{"glyphs":{"0":{"ha":810,"x_min":74,"x_max":736,"o":"m 405 -12 q 159 112 244 -12 q 74 514 74 237 q 159 916 74 792 q 405 1040 244 1040 q 651 916 566 1040 q 736 514 736 792 q 651 112 736 237 q 405 -12 565 -12 m 405 82 q 525 122 476 82 q 600 257 574 162 q 626 512 626 351 q 600 770 626 674 q 525 906 574 865 q 405 946 476 946 q 285 906 334 946 q 210 771 237 866 q 184 516 184 676 q 210 258 184 353 q 285 122 237 163 q 405 82 333 82 z "},"1":{"ha":463,"x_min":16,"x_max":347,"o":"m 279 1031 l 347 1031 l 347 0 l 238 0 l 238 892 l 16 731 l 16 838 l 279 1031 z "},"2":{"ha":638,"x_min":25,"x_max":597,"o":"m 597 94 l 597 0 l 37 0 l 37 60 l 313 462 q 409 630 381 560 q 438 764 438 699 q 387 904 438 861 q 230 947 335 947 q 25 908 119 947 l 25 1003 q 124 1030 65 1020 q 239 1040 183 1040 q 548 776 548 1040 q 516 613 548 694 q 406 420 485 533 l 180 94 l 597 94 z "},"3":{"ha":663,"x_min":33,"x_max":614,"o":"m 394 534 q 558 444 501 511 q 614 274 614 378 q 574 119 614 183 q 456 21 533 55 q 267 -12 378 -12 q 33 24 142 -12 l 33 115 q 148 86 88 96 q 263 76 207 76 q 445 127 382 76 q 508 278 508 178 q 445 430 508 376 q 254 483 383 483 l 149 483 l 149 572 l 208 572 q 406 626 338 572 q 474 775 474 679 q 262 951 474 951 q 53 913 151 951 l 53 1003 q 154 1030 95 1020 q 270 1040 213 1040 q 502 973 422 1040 q 581 781 581 906 q 532 627 581 692 q 394 534 483 562 z "},"4":{"ha":772,"x_min":32,"x_max":745,"o":"m 745 338 l 745 247 l 606 247 l 606 0 l 504 0 l 504 247 l 32 247 l 32 308 l 403 1028 l 513 1028 l 158 338 l 504 338 l 519 681 l 606 681 l 606 338 l 745 338 z "},"5":{"ha":667,"x_min":51,"x_max":631,"o":"m 245 590 q 538 505 444 579 q 631 288 631 431 q 542 64 631 141 q 285 -12 454 -12 q 51 26 156 -12 l 51 115 q 166 87 106 97 q 282 77 226 77 q 525 285 525 77 q 494 401 525 356 q 393 471 463 446 q 208 502 324 496 l 86 510 l 119 1028 l 589 1028 l 589 938 l 219 938 l 195 594 l 245 590 z "},"6":{"ha":749,"x_min":83,"x_max":712,"o":"m 415 590 q 568 558 501 590 q 674 458 635 525 q 712 292 712 390 q 674 125 712 194 q 570 22 637 57 q 417 -12 503 -12 q 83 480 83 -12 q 186 906 83 771 q 493 1040 290 1040 q 666 1011 597 1040 l 666 920 q 496 950 590 950 q 327 906 394 950 q 226 766 260 862 q 191 514 192 669 q 291 570 232 550 q 415 590 350 590 m 419 74 q 556 127 503 74 q 608 288 608 181 q 552 451 608 398 q 398 503 495 503 q 286 484 341 503 q 192 424 231 464 q 225 215 196 292 q 303 106 254 138 q 419 74 351 74 z "},"7":{"ha":613,"x_min":7,"x_max":574,"o":"m 7 1028 l 574 1028 l 574 967 l 224 0 l 110 0 l 455 933 l 7 933 l 7 1028 z "},"8":{"ha":810,"x_min":63,"x_max":747,"o":"m 545 523 q 701 417 654 479 q 747 261 747 355 q 708 118 747 180 q 592 22 668 56 q 411 -12 517 -12 q 220 20 298 -12 q 102 112 142 52 q 63 256 63 172 q 113 418 63 347 q 254 526 164 489 q 131 630 169 569 q 93 775 93 690 q 130 915 93 855 q 238 1008 167 975 q 407 1040 309 1040 q 572 1009 502 1040 q 679 919 642 978 q 716 782 716 861 q 673 631 716 697 q 545 523 630 565 m 200 778 q 221 684 200 722 q 294 615 242 645 q 441 558 347 585 l 458 553 q 580 646 542 594 q 617 774 617 697 q 562 909 617 862 q 406 956 507 956 q 253 909 306 956 q 200 778 200 861 m 412 72 q 581 119 522 72 q 641 254 641 167 q 619 351 641 313 q 545 418 597 390 q 399 473 493 447 q 335 492 362 483 q 212 402 256 462 q 169 265 169 343 q 230 121 169 171 q 412 72 291 72 z "},"9":{"ha":749,"x_min":37,"x_max":666,"o":"m 331 1040 q 666 548 666 1040 q 562 122 666 257 q 256 -12 458 -12 q 83 17 151 -12 l 83 108 q 253 78 159 78 q 421 122 354 78 q 523 262 488 166 q 558 514 557 358 q 458 458 517 478 q 333 438 399 438 q 180 470 247 438 q 75 570 113 503 q 37 736 37 638 q 74 902 37 834 q 178 1006 112 971 q 331 1040 245 1040 m 351 524 q 463 544 408 524 q 557 604 518 564 q 524 813 553 735 q 446 922 494 890 q 330 953 397 953 q 193 900 245 953 q 140 740 140 847 q 197 577 140 630 q 351 524 253 524 z "},"\u0000":{"ha":0,"x_min":0,"x_max":0,"o":""},"\r":{"ha":316,"x_min":0,"x_max":0,"o":""}," ":{"ha":316,"x_min":0,"x_max":0,"o":""},"A":{"ha":880,"x_min":16,"x_max":864,"o":"m 752 0 l 642 334 l 236 334 l 126 0 l 16 0 l 363 1028 l 517 1028 l 864 0 l 752 0 m 267 427 l 610 427 l 439 946 l 267 427 z "},"Á":{"ha":880,"x_min":16,"x_max":864,"o":"m 752 0 l 642 334 l 236 334 l 126 0 l 16 0 l 363 1028 l 517 1028 l 864 0 l 752 0 m 267 427 l 610 427 l 439 946 l 267 427 m 392 1117 l 499 1313 l 614 1313 l 488 1117 l 392 1117 z "},"Ă":{"ha":880,"x_min":16,"x_max":864,"o":"m 752 0 l 642 334 l 236 334 l 126 0 l 16 0 l 363 1028 l 517 1028 l 864 0 l 752 0 m 267 427 l 610 427 l 439 946 l 267 427 m 441 1124 q 294 1169 347 1124 q 234 1299 242 1215 l 307 1299 q 346 1214 315 1241 q 441 1188 377 1188 q 536 1214 505 1188 q 574 1299 567 1241 l 647 1299 q 587 1169 639 1214 q 441 1124 535 1124 z "},"Ắ":{"ha":880,"x_min":16,"x_max":864,"o":"m 752 0 l 642 334 l 236 334 l 126 0 l 16 0 l 363 1028 l 517 1028 l 864 0 l 752 0 m 267 427 l 610 427 l 439 946 l 267 427 m 406 1279 l 498 1451 l 584 1451 l 474 1279 l 406 1279 m 440 1124 q 296 1167 347 1124 q 238 1292 245 1210 l 305 1292 q 342 1208 311 1235 q 440 1182 374 1182 q 537 1208 506 1182 q 577 1292 567 1234 l 642 1292 q 583 1167 635 1211 q 440 1124 532 1124 z "},"Ặ":{"ha":880,"x_min":16,"x_max":864,"o":"m 752 0 l 642 334 l 236 334 l 126 0 l 16 0 l 363 1028 l 517 1028 l 864 0 l 752 0 m 267 427 l 610 427 l 439 946 l 267 427 m 440 -242 q 384 -225 404 -242 q 365 -178 365 -208 q 385 -131 365 -149 q 440 -114 405 -114 q 496 -131 476 -114 q 516 -178 516 -149 q 496 -225 516 -208 q 440 -242 476 -242 m 441 1124 q 294 1169 347 1124 q 234 1299 242 1215 l 307 1299 q 346 1214 315 1241 q 441 1188 377 1188 q 536 1214 505 1188 q 574 1299 567 1241 l 647 1299 q 587 1169 639 1214 q 441 1124 535 1124 z "},"Ằ":{"ha":880,"x_min":16,"x_max":864,"o":"m 752 0 l 642 334 l 236 334 l 126 0 l 16 0 l 363 1028 l 517 1028 l 864 0 l 752 0 m 267 427 l 610 427 l 439 946 l 267 427 m 406 1279 l 296 1451 l 382 1451 l 474 1279 l 406 1279 m 440 1124 q 296 1167 347 1124 q 238 1292 245 1210 l 303 1292 q 342 1208 311 1235 q 440 1182 374 1182 q 537 1208 506 1182 q 576 1292 567 1234 l 642 1292 q 583 1167 635 1211 q 440 1124 532 1124 z "},"Ẳ":{"ha":880,"x_min":16,"x_max":864,"o":"m 752 0 l 642 334 l 236 334 l 126 0 l 16 0 l 363 1028 l 517 1028 l 864 0 l 752 0 m 267 427 l 610 427 l 439 946 l 267 427 m 407 1279 q 425 1322 408 1307 q 474 1351 442 1337 q 507 1369 497 1361 q 517 1390 517 1377 q 500 1414 517 1406 q 440 1422 482 1422 q 310 1400 374 1422 l 310 1450 q 373 1466 336 1460 q 445 1472 409 1472 q 550 1452 515 1472 q 585 1396 585 1431 q 569 1355 585 1369 q 524 1326 553 1340 q 488 1305 500 1315 q 473 1279 475 1295 l 407 1279 m 439 1124 q 296 1167 347 1124 q 238 1292 245 1210 l 305 1292 q 342 1208 311 1235 q 439 1182 373 1182 q 536 1208 505 1182 q 577 1292 567 1234 l 642 1292 q 583 1167 635 1211 q 439 1124 531 1124 z "},"Ẵ":{"ha":880,"x_min":16,"x_max":864,"o":"m 752 0 l 642 334 l 236 334 l 126 0 l 16 0 l 363 1028 l 517 1028 l 864 0 l 752 0 m 267 427 l 610 427 l 439 946 l 267 427 m 531 1338 q 484 1344 506 1338 q 429 1364 463 1351 q 384 1381 402 1376 q 349 1387 366 1387 q 291 1375 317 1387 q 238 1338 265 1364 l 238 1402 q 289 1435 262 1424 q 349 1446 315 1446 q 398 1439 374 1446 q 451 1418 421 1431 q 496 1401 478 1406 q 531 1395 514 1395 q 588 1407 563 1395 q 642 1444 614 1418 l 642 1380 q 591 1348 618 1358 q 531 1338 565 1338 m 439 1124 q 296 1167 347 1124 q 238 1292 245 1210 l 305 1292 q 342 1208 311 1235 q 439 1182 373 1182 q 536 1208 505 1182 q 576 1292 567 1234 l 642 1292 q 583 1167 635 1211 q 439 1124 531 1124 z "},"Â":{"ha":880,"x_min":16,"x_max":864,"o":"m 752 0 l 642 334 l 236 334 l 126 0 l 16 0 l 363 1028 l 517 1028 l 864 0 l 752 0 m 267 427 l 610 427 l 439 946 l 267 427 m 645 1117 l 553 1117 l 440 1266 l 326 1117 l 235 1117 l 390 1313 l 490 1313 l 645 1117 z "},"Ấ":{"ha":880,"x_min":16,"x_max":864,"o":"m 752 0 l 642 334 l 236 334 l 126 0 l 16 0 l 363 1028 l 517 1028 l 864 0 l 752 0 m 267 427 l 610 427 l 439 946 l 267 427 m 678 1433 l 764 1433 l 653 1251 l 585 1251 l 678 1433 m 390 1306 l 490 1306 l 645 1117 l 553 1117 l 440 1262 l 326 1117 l 235 1117 l 390 1306 z "},"Ậ":{"ha":880,"x_min":16,"x_max":864,"o":"m 752 0 l 642 334 l 236 334 l 126 0 l 16 0 l 363 1028 l 517 1028 l 864 0 l 752 0 m 267 427 l 610 427 l 439 946 l 267 427 m 440 -242 q 384 -225 404 -242 q 365 -178 365 -208 q 385 -131 365 -149 q 440 -114 405 -114 q 496 -131 476 -114 q 516 -178 516 -149 q 496 -225 516 -208 q 440 -242 476 -242 m 645 1117 l 553 1117 l 440 1266 l 326 1117 l 235 1117 l 390 1313 l 490 1313 l 645 1117 z "},"Ầ":{"ha":880,"x_min":16,"x_max":864,"o":"m 752 0 l 642 334 l 236 334 l 126 0 l 16 0 l 363 1028 l 517 1028 l 864 0 l 752 0 m 267 427 l 610 427 l 439 946 l 267 427 m 671 1251 l 603 1251 l 493 1433 l 578 1433 l 671 1251 m 390 1306 l 490 1306 l 645 1117 l 553 1117 l 440 1262 l 326 1117 l 235 1117 l 390 1306 z "},"Ẩ":{"ha":880,"x_min":16,"x_max":864,"o":"m 752 0 l 642 334 l 236 334 l 126 0 l 16 0 l 363 1028 l 517 1028 l 864 0 l 752 0 m 267 427 l 610 427 l 439 946 l 267 427 m 623 1444 q 728 1423 693 1444 q 763 1367 763 1403 q 748 1326 763 1340 q 701 1297 732 1313 q 665 1276 677 1285 q 651 1251 653 1267 l 585 1251 q 603 1293 586 1278 q 651 1322 621 1308 q 685 1340 674 1332 q 695 1362 695 1349 q 677 1385 695 1377 q 617 1394 660 1394 q 488 1371 550 1394 l 488 1422 q 551 1438 515 1431 q 623 1444 588 1444 m 390 1306 l 490 1306 l 645 1117 l 553 1117 l 440 1262 l 326 1117 l 235 1117 l 390 1306 z "},"Ẫ":{"ha":880,"x_min":16,"x_max":864,"o":"m 752 0 l 642 334 l 236 334 l 126 0 l 16 0 l 363 1028 l 517 1028 l 864 0 l 752 0 m 267 427 l 610 427 l 439 946 l 267 427 m 533 1395 q 591 1407 565 1395 q 645 1444 617 1418 l 645 1380 q 533 1338 600 1338 q 484 1344 508 1338 q 429 1365 461 1351 q 382 1382 399 1376 q 347 1387 365 1387 q 289 1375 315 1387 q 235 1338 263 1364 l 235 1402 q 347 1446 280 1446 q 397 1439 373 1446 q 451 1418 421 1431 q 498 1401 480 1406 q 533 1395 515 1395 m 390 1306 l 490 1306 l 645 1117 l 553 1117 l 440 1262 l 326 1117 l 235 1117 l 390 1306 z "},"Ȁ":{"ha":880,"x_min":16,"x_max":864,"o":"m 752 0 l 642 334 l 236 334 l 126 0 l 16 0 l 363 1028 l 517 1028 l 864 0 l 752 0 m 267 427 l 610 427 l 439 946 l 267 427 m 290 1117 l 206 1313 l 297 1313 l 372 1117 l 290 1117 m 508 1117 l 424 1313 l 515 1313 l 591 1117 l 508 1117 z "},"Ä":{"ha":880,"x_min":16,"x_max":864,"o":"m 752 0 l 642 334 l 236 334 l 126 0 l 16 0 l 363 1028 l 517 1028 l 864 0 l 752 0 m 267 427 l 610 427 l 439 946 l 267 427 m 292 1153 q 240 1170 259 1153 q 222 1217 222 1187 q 240 1264 222 1247 q 292 1281 259 1281 q 343 1264 324 1281 q 362 1217 362 1247 q 343 1170 362 1187 q 292 1153 324 1153 m 588 1153 q 537 1170 556 1153 q 519 1217 519 1187 q 537 1264 519 1247 q 588 1281 556 1281 q 640 1264 621 1281 q 658 1217 658 1247 q 640 1170 658 1187 q 588 1153 621 1153 z "},"Ạ":{"ha":880,"x_min":16,"x_max":864,"o":"m 752 0 l 642 334 l 236 334 l 126 0 l 16 0 l 363 1028 l 517 1028 l 864 0 l 752 0 m 267 427 l 610 427 l 439 946 l 267 427 m 440 -242 q 384 -225 404 -242 q 365 -178 365 -208 q 385 -131 365 -149 q 440 -114 405 -114 q 496 -131 476 -114 q 516 -178 516 -149 q 496 -225 516 -208 q 440 -242 476 -242 z "},"À":{"ha":880,"x_min":16,"x_max":864,"o":"m 752 0 l 642 334 l 236 334 l 126 0 l 16 0 l 363 1028 l 517 1028 l 864 0 l 752 0 m 267 427 l 610 427 l 439 946 l 267 427 m 392 1117 l 266 1313 l 381 1313 l 488 1117 l 392 1117 z "},"Ả":{"ha":880,"x_min":16,"x_max":864,"o":"m 752 0 l 642 334 l 236 334 l 126 0 l 16 0 l 363 1028 l 517 1028 l 864 0 l 752 0 m 267 427 l 610 427 l 439 946 l 267 427 m 407 1117 q 417 1151 408 1138 q 440 1173 427 1165 q 474 1192 452 1181 q 507 1210 496 1201 q 517 1232 517 1218 q 500 1256 517 1248 q 440 1265 482 1265 q 310 1242 372 1265 l 310 1296 q 373 1312 336 1306 q 445 1318 409 1318 q 550 1297 515 1318 q 585 1238 585 1276 q 570 1195 585 1210 q 523 1165 554 1181 q 487 1143 499 1153 q 473 1117 475 1133 l 407 1117 z "},"Ȃ":{"ha":880,"x_min":16,"x_max":864,"o":"m 752 0 l 642 334 l 236 334 l 126 0 l 16 0 l 363 1028 l 517 1028 l 864 0 l 752 0 m 267 427 l 610 427 l 439 946 l 267 427 m 234 1132 q 293 1262 242 1217 q 439 1307 344 1307 q 586 1261 533 1307 q 647 1132 639 1216 l 574 1132 q 534 1216 566 1190 q 439 1243 503 1243 q 344 1216 375 1243 q 307 1132 313 1190 l 234 1132 z "},"Ā":{"ha":880,"x_min":16,"x_max":864,"o":"m 752 0 l 642 334 l 236 334 l 126 0 l 16 0 l 363 1028 l 517 1028 l 864 0 l 752 0 m 267 427 l 610 427 l 439 946 l 267 427 m 239 1179 l 239 1253 l 641 1253 l 641 1179 l 239 1179 z "},"Ą":{"ha":880,"x_min":16,"x_max":928,"o":"m 824 -233 q 928 -208 869 -233 l 928 -263 q 815 -288 874 -288 q 697 -256 738 -288 q 656 -162 656 -223 q 681 -75 656 -115 q 760 0 706 -35 l 752 0 l 642 334 l 236 334 l 126 0 l 16 0 l 363 1028 l 517 1028 l 864 0 q 757 -75 788 -38 q 726 -155 726 -112 q 824 -233 726 -233 m 267 427 l 610 427 l 439 946 l 267 427 z "},"Å":{"ha":880,"x_min":16,"x_max":864,"o":"m 642 334 l 236 334 l 126 0 l 16 0 l 363 1028 l 388 1028 q 329 1076 351 1043 q 307 1151 307 1109 q 324 1220 307 1190 q 373 1268 342 1251 q 442 1285 403 1285 q 511 1268 481 1285 q 560 1220 542 1251 q 578 1151 578 1190 q 556 1076 578 1109 q 497 1028 534 1043 l 517 1028 l 864 0 l 752 0 l 642 334 m 361 1151 q 384 1091 361 1113 q 442 1069 406 1069 q 501 1091 478 1069 q 524 1151 524 1113 q 501 1212 524 1190 q 442 1235 478 1235 q 384 1212 406 1235 q 361 1151 361 1190 m 267 427 l 610 427 l 439 946 l 267 427 z "},"Ǻ":{"ha":880,"x_min":16,"x_max":864,"o":"m 642 334 l 236 334 l 126 0 l 16 0 l 363 1028 l 391 1028 q 330 1075 353 1042 q 307 1153 307 1109 q 324 1221 307 1191 q 373 1269 342 1251 q 442 1286 403 1286 q 503 1274 473 1286 l 589 1365 l 682 1365 l 553 1233 q 578 1153 578 1198 q 555 1075 578 1109 q 494 1028 532 1042 l 517 1028 l 864 0 l 752 0 l 642 334 m 361 1153 q 384 1092 361 1115 q 442 1069 406 1069 q 501 1092 478 1069 q 524 1153 524 1115 q 501 1213 524 1191 q 442 1235 478 1235 q 384 1213 406 1235 q 361 1153 361 1191 m 267 427 l 610 427 l 439 946 l 267 427 z "},"Ã":{"ha":880,"x_min":16,"x_max":864,"o":"m 752 0 l 642 334 l 236 334 l 126 0 l 16 0 l 363 1028 l 517 1028 l 864 0 l 752 0 m 267 427 l 610 427 l 439 946 l 267 427 m 542 1159 q 489 1166 513 1159 q 430 1188 465 1174 q 380 1206 400 1200 q 338 1213 359 1213 q 277 1200 303 1213 q 226 1163 251 1188 l 226 1238 q 339 1283 267 1283 q 391 1276 367 1283 q 450 1255 415 1269 q 501 1235 481 1242 q 543 1229 522 1229 q 603 1241 576 1229 q 654 1279 629 1253 l 654 1204 q 542 1159 613 1159 z "},"Æ":{"ha":1207,"x_min":16,"x_max":1170,"o":"m 720 94 l 1170 94 l 1170 0 l 617 0 l 598 334 l 240 334 l 126 0 l 16 0 l 369 1028 l 1163 1028 l 1163 934 l 670 934 l 692 574 l 1097 574 l 1097 481 l 697 481 l 720 94 m 272 427 l 592 427 l 563 934 l 443 934 l 272 427 z "},"Ǽ":{"ha":1207,"x_min":16,"x_max":1170,"o":"m 720 94 l 1170 94 l 1170 0 l 617 0 l 598 334 l 240 334 l 126 0 l 16 0 l 369 1028 l 1163 1028 l 1163 934 l 670 934 l 692 574 l 1097 574 l 1097 481 l 697 481 l 720 94 m 272 427 l 592 427 l 563 934 l 443 934 l 272 427 m 564 1117 l 671 1313 l 786 1313 l 660 1117 l 564 1117 z "},"B":{"ha":829,"x_min":109,"x_max":781,"o":"m 574 531 q 729 446 676 512 q 781 278 781 381 q 737 119 781 183 q 596 24 692 56 q 344 -8 500 -8 q 109 6 219 -8 l 109 1013 q 372 1038 235 1038 q 589 1009 505 1038 q 712 919 672 979 q 752 767 752 860 q 709 617 752 680 q 574 531 665 553 m 380 951 q 217 938 292 951 l 217 572 l 392 572 q 542 594 486 572 q 622 657 598 615 q 647 762 647 698 q 620 871 647 830 q 536 931 594 912 q 380 951 478 951 m 367 79 q 549 101 481 79 q 647 166 617 122 q 676 280 676 210 q 614 433 676 383 q 416 483 551 483 l 217 483 l 217 87 q 367 79 278 79 z "},"C":{"ha":738,"x_min":67,"x_max":717,"o":"m 503 -12 q 178 110 290 -12 q 67 513 67 233 q 181 914 67 788 q 514 1040 294 1040 q 717 1013 619 1040 l 717 917 q 517 945 625 945 q 331 904 405 945 q 220 768 258 863 q 182 515 182 674 q 220 258 182 353 q 330 123 258 163 q 511 83 402 83 q 612 91 563 83 q 717 119 661 100 l 717 22 q 503 -12 616 -12 z "},"Ć":{"ha":738,"x_min":67,"x_max":717,"o":"m 503 -12 q 178 110 290 -12 q 67 513 67 233 q 181 914 67 788 q 514 1040 294 1040 q 717 1013 619 1040 l 717 917 q 517 945 625 945 q 331 904 405 945 q 220 768 258 863 q 182 515 182 674 q 220 258 182 353 q 330 123 258 163 q 511 83 402 83 q 612 91 563 83 q 717 119 661 100 l 717 22 q 503 -12 616 -12 m 408 1117 l 515 1313 l 631 1313 l 504 1117 l 408 1117 z "},"Č":{"ha":738,"x_min":67,"x_max":717,"o":"m 503 -12 q 178 110 290 -12 q 67 513 67 233 q 181 914 67 788 q 514 1040 294 1040 q 717 1013 619 1040 l 717 917 q 517 945 625 945 q 331 904 405 945 q 220 768 258 863 q 182 515 182 674 q 220 258 182 353 q 330 123 258 163 q 511 83 402 83 q 612 91 563 83 q 717 119 661 100 l 717 22 q 503 -12 616 -12 m 570 1313 l 662 1313 l 507 1117 l 406 1117 l 252 1313 l 343 1313 l 457 1165 l 570 1313 z "},"Ç":{"ha":738,"x_min":67,"x_max":717,"o":"m 517 945 q 331 904 405 945 q 220 768 258 863 q 182 515 182 674 q 220 258 182 353 q 330 123 258 163 q 511 83 402 83 q 612 91 563 83 q 717 119 661 100 l 717 22 q 503 -12 616 -12 l 490 -12 l 490 -71 q 577 -104 546 -76 q 608 -178 608 -131 q 569 -260 608 -231 q 460 -288 531 -288 q 332 -263 390 -288 l 332 -208 q 457 -235 395 -235 q 542 -176 542 -235 q 456 -117 542 -117 l 427 -117 l 427 -8 q 159 135 251 11 q 67 513 67 259 q 181 914 67 788 q 514 1040 294 1040 q 717 1013 619 1040 l 717 917 q 517 945 625 945 z "},"Ḉ":{"ha":738,"x_min":67,"x_max":717,"o":"m 631 1313 l 504 1117 l 408 1117 l 515 1313 l 631 1313 m 517 945 q 331 904 405 945 q 220 768 258 863 q 182 515 182 674 q 220 258 182 353 q 330 123 258 163 q 511 83 402 83 q 612 91 563 83 q 717 119 661 100 l 717 22 q 503 -12 616 -12 l 490 -12 l 490 -71 q 577 -104 546 -76 q 608 -178 608 -131 q 569 -260 608 -231 q 460 -288 531 -288 q 332 -263 390 -288 l 332 -208 q 457 -235 395 -235 q 542 -176 542 -235 q 456 -117 542 -117 l 427 -117 l 427 -8 q 159 135 251 11 q 67 513 67 259 q 181 914 67 788 q 514 1040 294 1040 q 717 1013 619 1040 l 717 917 q 517 945 625 945 z "},"Ĉ":{"ha":738,"x_min":67,"x_max":717,"o":"m 503 -12 q 178 110 290 -12 q 67 513 67 233 q 181 914 67 788 q 514 1040 294 1040 q 717 1013 619 1040 l 717 917 q 517 945 625 945 q 331 904 405 945 q 220 768 258 863 q 182 515 182 674 q 220 258 182 353 q 330 123 258 163 q 511 83 402 83 q 612 91 563 83 q 717 119 661 100 l 717 22 q 503 -12 616 -12 m 662 1117 l 570 1117 l 457 1266 l 343 1117 l 252 1117 l 406 1313 l 507 1313 l 662 1117 z "},"Ċ":{"ha":738,"x_min":67,"x_max":717,"o":"m 503 -12 q 178 110 290 -12 q 67 513 67 233 q 181 914 67 788 q 514 1040 294 1040 q 717 1013 619 1040 l 717 917 q 517 945 625 945 q 331 904 405 945 q 220 768 258 863 q 182 515 182 674 q 220 258 182 353 q 330 123 258 163 q 511 83 402 83 q 612 91 563 83 q 717 119 661 100 l 717 22 q 503 -12 616 -12 m 457 1153 q 401 1169 421 1153 q 381 1217 381 1186 q 401 1264 381 1247 q 457 1281 422 1281 q 513 1264 492 1281 q 533 1217 533 1247 q 513 1170 533 1187 q 457 1153 492 1153 z "},"D":{"ha":906,"x_min":109,"x_max":839,"o":"m 328 -8 q 109 5 222 -8 l 109 1014 q 355 1038 240 1038 q 718 910 597 1038 q 839 514 839 781 q 782 216 839 331 q 612 46 725 101 q 328 -8 499 -8 m 349 86 q 560 129 477 86 q 684 267 642 172 q 725 514 725 361 q 685 760 725 665 q 565 900 646 856 q 359 944 485 944 q 219 933 299 944 l 219 93 q 349 86 274 86 z "},"Ǳ":{"ha":1620,"x_min":109,"x_max":1580,"o":"m 328 -8 q 109 5 222 -8 l 109 1014 q 355 1038 240 1038 q 718 910 597 1038 q 839 514 839 781 q 782 216 839 331 q 612 46 725 101 q 328 -8 499 -8 m 349 86 q 560 129 477 86 q 684 267 642 172 q 725 514 725 361 q 685 760 725 665 q 565 900 646 856 q 359 944 485 944 q 219 933 299 944 l 219 93 q 349 86 274 86 m 1057 95 l 1580 95 l 1580 0 l 915 0 l 915 62 l 1431 933 l 922 933 l 922 1028 l 1573 1028 l 1573 966 l 1057 95 z "},"Ǆ":{"ha":1620,"x_min":109,"x_max":1580,"o":"m 328 -8 q 109 5 222 -8 l 109 1014 q 355 1038 240 1038 q 718 910 597 1038 q 839 514 839 781 q 782 216 839 331 q 612 46 725 101 q 328 -8 499 -8 m 349 86 q 560 129 477 86 q 684 267 642 172 q 725 514 725 361 q 685 760 725 665 q 565 900 646 856 q 359 944 485 944 q 219 933 299 944 l 219 93 q 349 86 274 86 m 1057 95 l 1580 95 l 1580 0 l 915 0 l 915 62 l 1431 933 l 922 933 l 922 1028 l 1573 1028 l 1573 966 l 1057 95 m 1361 1313 l 1453 1313 l 1298 1117 l 1197 1117 l 1043 1313 l 1134 1313 l 1248 1165 l 1361 1313 z "},"Ð":{"ha":906,"x_min":0,"x_max":839,"o":"m 355 1038 q 718 910 597 1038 q 839 514 839 781 q 782 216 839 331 q 612 46 725 101 q 328 -8 499 -8 q 109 5 222 -8 l 109 490 l 0 490 l 0 568 l 109 568 l 109 1014 q 355 1038 240 1038 m 349 86 q 560 129 477 86 q 684 267 642 172 q 725 514 725 361 q 685 760 725 665 q 565 900 646 856 q 359 944 485 944 q 219 933 299 944 l 219 568 l 428 568 l 428 490 l 219 490 l 219 93 q 349 86 274 86 z "},"Ď":{"ha":906,"x_min":109,"x_max":839,"o":"m 328 -8 q 109 5 222 -8 l 109 1014 q 355 1038 240 1038 q 718 910 597 1038 q 839 514 839 781 q 782 216 839 331 q 612 46 725 101 q 328 -8 499 -8 m 349 86 q 560 129 477 86 q 684 267 642 172 q 725 514 725 361 q 685 760 725 665 q 565 900 646 856 q 359 944 485 944 q 219 933 299 944 l 219 93 q 349 86 274 86 m 519 1313 l 611 1313 l 456 1117 l 356 1117 l 201 1313 l 292 1313 l 406 1165 l 519 1313 z "},"Đ":{"ha":906,"x_min":0,"x_max":839,"o":"m 355 1038 q 718 910 597 1038 q 839 514 839 781 q 782 216 839 331 q 612 46 725 101 q 328 -8 499 -8 q 109 5 222 -8 l 109 490 l 0 490 l 0 568 l 109 568 l 109 1014 q 355 1038 240 1038 m 349 86 q 560 129 477 86 q 684 267 642 172 q 725 514 725 361 q 685 760 725 665 q 565 900 646 856 q 359 944 485 944 q 219 933 299 944 l 219 568 l 428 568 l 428 490 l 219 490 l 219 93 q 349 86 274 86 z "},"Ḍ":{"ha":906,"x_min":109,"x_max":839,"o":"m 328 -8 q 109 5 222 -8 l 109 1014 q 355 1038 240 1038 q 718 910 597 1038 q 839 514 839 781 q 782 216 839 331 q 612 46 725 101 q 328 -8 499 -8 m 349 86 q 560 129 477 86 q 684 267 642 172 q 725 514 725 361 q 685 760 725 665 q 565 900 646 856 q 359 944 485 944 q 219 933 299 944 l 219 93 q 349 86 274 86 m 410 -242 q 354 -225 374 -242 q 334 -178 334 -208 q 354 -131 334 -149 q 410 -114 374 -114 q 465 -131 445 -114 q 485 -178 485 -149 q 465 -225 485 -208 q 410 -242 445 -242 z "},"Ḏ":{"ha":906,"x_min":109,"x_max":839,"o":"m 328 -8 q 109 5 222 -8 l 109 1014 q 355 1038 240 1038 q 718 910 597 1038 q 839 514 839 781 q 782 216 839 331 q 612 46 725 101 q 328 -8 499 -8 m 349 86 q 560 129 477 86 q 684 267 642 172 q 725 514 725 361 q 685 760 725 665 q 565 900 646 856 q 359 944 485 944 q 219 933 299 944 l 219 93 q 349 86 274 86 m 208 -213 l 208 -140 l 610 -140 l 610 -213 l 208 -213 z "},"ǲ":{"ha":1499,"x_min":109,"x_max":1463,"o":"m 328 -8 q 109 5 222 -8 l 109 1014 q 355 1038 240 1038 q 718 910 597 1038 q 839 514 839 781 q 782 216 839 331 q 612 46 725 101 q 328 -8 499 -8 m 349 86 q 560 129 477 86 q 684 267 642 172 q 725 514 725 361 q 685 760 725 665 q 565 900 646 856 q 359 944 485 944 q 219 933 299 944 l 219 93 q 349 86 274 86 m 1080 90 l 1463 90 l 1463 0 l 947 0 l 947 67 l 1322 663 l 953 663 l 953 753 l 1456 753 l 1456 686 l 1080 90 z "},"ǅ":{"ha":1499,"x_min":109,"x_max":1463,"o":"m 328 -8 q 109 5 222 -8 l 109 1014 q 355 1038 240 1038 q 718 910 597 1038 q 839 514 839 781 q 782 216 839 331 q 612 46 725 101 q 328 -8 499 -8 m 349 86 q 560 129 477 86 q 684 267 642 172 q 725 514 725 361 q 685 760 725 665 q 565 900 646 856 q 359 944 485 944 q 219 933 299 944 l 219 93 q 349 86 274 86 m 1080 90 l 1463 90 l 1463 0 l 947 0 l 947 67 l 1322 663 l 953 663 l 953 753 l 1456 753 l 1456 686 l 1080 90 m 1319 1091 l 1410 1091 l 1256 895 l 1155 895 l 1001 1091 l 1092 1091 l 1206 942 l 1319 1091 z "},"E":{"ha":749,"x_min":109,"x_max":713,"o":"m 218 94 l 713 94 l 713 0 l 109 0 l 109 1028 l 706 1028 l 706 934 l 218 934 l 218 574 l 640 574 l 640 481 l 218 481 l 218 94 z "},"É":{"ha":749,"x_min":109,"x_max":713,"o":"m 218 94 l 713 94 l 713 0 l 109 0 l 109 1028 l 706 1028 l 706 934 l 218 934 l 218 574 l 640 574 l 640 481 l 218 481 l 218 94 m 374 1117 l 481 1313 l 597 1313 l 470 1117 l 374 1117 z "},"Ĕ":{"ha":749,"x_min":109,"x_max":713,"o":"m 218 94 l 713 94 l 713 0 l 109 0 l 109 1028 l 706 1028 l 706 934 l 218 934 l 218 574 l 640 574 l 640 481 l 218 481 l 218 94 m 424 1124 q 277 1169 329 1124 q 217 1299 224 1215 l 290 1299 q 328 1214 297 1241 q 424 1188 360 1188 q 518 1214 488 1188 q 556 1299 549 1241 l 629 1299 q 570 1169 622 1214 q 424 1124 518 1124 z "},"Ě":{"ha":749,"x_min":109,"x_max":713,"o":"m 218 94 l 713 94 l 713 0 l 109 0 l 109 1028 l 706 1028 l 706 934 l 218 934 l 218 574 l 640 574 l 640 481 l 218 481 l 218 94 m 536 1313 l 628 1313 l 473 1117 l 372 1117 l 218 1313 l 309 1313 l 423 1165 l 536 1313 z "},"Ḝ":{"ha":749,"x_min":109,"x_max":713,"o":"m 424 1124 q 277 1169 329 1124 q 217 1299 224 1215 l 290 1299 q 328 1214 297 1241 q 424 1188 360 1188 q 518 1214 488 1188 q 556 1299 549 1241 l 629 1299 q 570 1169 622 1214 q 424 1124 518 1124 m 450 0 l 450 -71 q 538 -104 506 -76 q 569 -178 569 -131 q 530 -260 569 -231 q 421 -288 491 -288 q 292 -263 351 -288 l 292 -208 q 417 -235 356 -235 q 503 -176 503 -235 q 416 -117 503 -117 l 388 -117 l 388 0 l 109 0 l 109 1028 l 706 1028 l 706 934 l 218 934 l 218 574 l 640 574 l 640 481 l 218 481 l 218 94 l 713 94 l 713 0 l 450 0 z "},"Ê":{"ha":749,"x_min":109,"x_max":713,"o":"m 218 94 l 713 94 l 713 0 l 109 0 l 109 1028 l 706 1028 l 706 934 l 218 934 l 218 574 l 640 574 l 640 481 l 218 481 l 218 94 m 628 1117 l 536 1117 l 423 1266 l 309 1117 l 218 1117 l 372 1313 l 473 1313 l 628 1117 z "},"Ế":{"ha":749,"x_min":109,"x_max":747,"o":"m 218 94 l 713 94 l 713 0 l 109 0 l 109 1028 l 706 1028 l 706 934 l 218 934 l 218 574 l 640 574 l 640 481 l 218 481 l 218 94 m 660 1433 l 747 1433 l 636 1251 l 568 1251 l 660 1433 m 372 1306 l 473 1306 l 628 1117 l 536 1117 l 423 1262 l 309 1117 l 218 1117 l 372 1306 z "},"Ệ":{"ha":749,"x_min":109,"x_max":713,"o":"m 218 94 l 713 94 l 713 0 l 109 0 l 109 1028 l 706 1028 l 706 934 l 218 934 l 218 574 l 640 574 l 640 481 l 218 481 l 218 94 m 424 -242 q 368 -225 388 -242 q 348 -178 348 -208 q 368 -131 348 -149 q 424 -114 388 -114 q 479 -131 459 -114 q 499 -178 499 -149 q 479 -225 499 -208 q 424 -242 459 -242 m 628 1117 l 536 1117 l 423 1266 l 309 1117 l 218 1117 l 372 1313 l 473 1313 l 628 1117 z "},"Ề":{"ha":749,"x_min":109,"x_max":713,"o":"m 218 94 l 713 94 l 713 0 l 109 0 l 109 1028 l 706 1028 l 706 934 l 218 934 l 218 574 l 640 574 l 640 481 l 218 481 l 218 94 m 653 1251 l 585 1251 l 476 1433 l 561 1433 l 653 1251 m 372 1306 l 473 1306 l 628 1117 l 536 1117 l 423 1262 l 309 1117 l 218 1117 l 372 1306 z "},"Ể":{"ha":749,"x_min":109,"x_max":746,"o":"m 218 94 l 713 94 l 713 0 l 109 0 l 109 1028 l 706 1028 l 706 934 l 218 934 l 218 574 l 640 574 l 640 481 l 218 481 l 218 94 m 606 1444 q 711 1423 676 1444 q 746 1367 746 1403 q 730 1326 746 1340 q 684 1297 715 1313 q 648 1276 660 1285 q 634 1251 636 1267 l 567 1251 q 586 1293 569 1278 q 634 1322 603 1308 q 667 1340 657 1332 q 678 1362 678 1349 q 660 1385 678 1377 q 600 1394 642 1394 q 471 1371 533 1394 l 471 1422 q 534 1438 497 1431 q 606 1444 570 1444 m 372 1306 l 473 1306 l 628 1117 l 536 1117 l 423 1262 l 309 1117 l 218 1117 l 372 1306 z "},"Ễ":{"ha":749,"x_min":109,"x_max":713,"o":"m 218 94 l 713 94 l 713 0 l 109 0 l 109 1028 l 706 1028 l 706 934 l 218 934 l 218 574 l 640 574 l 640 481 l 218 481 l 218 94 m 516 1395 q 574 1407 548 1395 q 628 1444 599 1418 l 628 1380 q 515 1338 583 1338 q 467 1344 490 1338 q 412 1365 444 1351 q 365 1382 382 1376 q 329 1387 347 1387 q 272 1375 298 1387 q 218 1338 246 1364 l 218 1402 q 330 1446 263 1446 q 380 1439 356 1446 q 434 1418 403 1431 q 480 1401 463 1406 q 516 1395 498 1395 m 372 1306 l 473 1306 l 628 1117 l 536 1117 l 423 1262 l 309 1117 l 218 1117 l 372 1306 z "},"Ȅ":{"ha":749,"x_min":109,"x_max":713,"o":"m 218 94 l 713 94 l 713 0 l 109 0 l 109 1028 l 706 1028 l 706 934 l 218 934 l 218 574 l 640 574 l 640 481 l 218 481 l 218 94 m 272 1117 l 188 1313 l 279 1313 l 355 1117 l 272 1117 m 490 1117 l 406 1313 l 497 1313 l 574 1117 l 490 1117 z "},"Ë":{"ha":749,"x_min":109,"x_max":713,"o":"m 218 94 l 713 94 l 713 0 l 109 0 l 109 1028 l 706 1028 l 706 934 l 218 934 l 218 574 l 640 574 l 640 481 l 218 481 l 218 94 m 274 1153 q 223 1170 242 1153 q 204 1217 204 1187 q 223 1264 204 1247 q 274 1281 242 1281 q 326 1264 307 1281 q 344 1217 344 1247 q 326 1170 344 1187 q 274 1153 307 1153 m 571 1153 q 520 1170 538 1153 q 501 1217 501 1187 q 520 1264 501 1247 q 571 1281 538 1281 q 622 1264 603 1281 q 641 1217 641 1247 q 622 1170 641 1187 q 571 1153 603 1153 z "},"Ė":{"ha":749,"x_min":109,"x_max":713,"o":"m 218 94 l 713 94 l 713 0 l 109 0 l 109 1028 l 706 1028 l 706 934 l 218 934 l 218 574 l 640 574 l 640 481 l 218 481 l 218 94 m 423 1153 q 367 1169 387 1153 q 347 1217 347 1186 q 367 1264 347 1247 q 423 1281 388 1281 q 478 1264 458 1281 q 499 1217 499 1247 q 478 1170 499 1187 q 423 1153 458 1153 z "},"Ẹ":{"ha":749,"x_min":109,"x_max":713,"o":"m 218 94 l 713 94 l 713 0 l 109 0 l 109 1028 l 706 1028 l 706 934 l 218 934 l 218 574 l 640 574 l 640 481 l 218 481 l 218 94 m 424 -242 q 368 -225 388 -242 q 348 -178 348 -208 q 368 -131 348 -149 q 424 -114 388 -114 q 479 -131 459 -114 q 499 -178 499 -149 q 479 -225 499 -208 q 424 -242 459 -242 z "},"È":{"ha":749,"x_min":109,"x_max":713,"o":"m 218 94 l 713 94 l 713 0 l 109 0 l 109 1028 l 706 1028 l 706 934 l 218 934 l 218 574 l 640 574 l 640 481 l 218 481 l 218 94 m 374 1117 l 249 1313 l 364 1313 l 471 1117 l 374 1117 z "},"Ẻ":{"ha":749,"x_min":109,"x_max":713,"o":"m 218 94 l 713 94 l 713 0 l 109 0 l 109 1028 l 706 1028 l 706 934 l 218 934 l 218 574 l 640 574 l 640 481 l 218 481 l 218 94 m 390 1117 q 400 1151 390 1138 q 422 1173 410 1165 q 456 1192 435 1181 q 489 1210 478 1201 q 500 1232 500 1218 q 482 1256 500 1248 q 422 1265 465 1265 q 292 1242 355 1265 l 292 1296 q 355 1312 319 1306 q 428 1318 392 1318 q 533 1297 498 1318 q 568 1238 568 1276 q 552 1195 568 1210 q 506 1165 537 1181 q 469 1143 481 1153 q 456 1117 458 1133 l 390 1117 z "},"Ȇ":{"ha":749,"x_min":109,"x_max":713,"o":"m 218 94 l 713 94 l 713 0 l 109 0 l 109 1028 l 706 1028 l 706 934 l 218 934 l 218 574 l 640 574 l 640 481 l 218 481 l 218 94 m 217 1132 q 276 1262 224 1217 q 422 1307 327 1307 q 569 1261 516 1307 q 629 1132 622 1216 l 556 1132 q 517 1216 549 1190 q 422 1243 485 1243 q 327 1216 358 1243 q 290 1132 296 1190 l 217 1132 z "},"Ē":{"ha":749,"x_min":109,"x_max":713,"o":"m 218 94 l 713 94 l 713 0 l 109 0 l 109 1028 l 706 1028 l 706 934 l 218 934 l 218 574 l 640 574 l 640 481 l 218 481 l 218 94 m 222 1179 l 222 1253 l 624 1253 l 624 1179 l 222 1179 z "},"Ḗ":{"ha":749,"x_min":109,"x_max":713,"o":"m 218 94 l 713 94 l 713 0 l 109 0 l 109 1028 l 706 1028 l 706 934 l 218 934 l 218 574 l 640 574 l 640 481 l 218 481 l 218 94 m 371 1326 l 478 1487 l 601 1487 l 475 1326 l 371 1326 m 222 1179 l 222 1253 l 624 1253 l 624 1179 l 222 1179 z "},"Ḕ":{"ha":749,"x_min":109,"x_max":713,"o":"m 218 94 l 713 94 l 713 0 l 109 0 l 109 1028 l 706 1028 l 706 934 l 218 934 l 218 574 l 640 574 l 640 481 l 218 481 l 218 94 m 371 1326 l 244 1487 l 368 1487 l 475 1326 l 371 1326 m 222 1179 l 222 1253 l 624 1253 l 624 1179 l 222 1179 z "},"Ę":{"ha":749,"x_min":109,"x_max":720,"o":"m 616 -233 q 720 -208 660 -233 l 720 -263 q 607 -288 665 -288 q 489 -256 529 -288 q 448 -162 448 -223 q 473 -75 448 -115 q 552 0 497 -35 l 109 0 l 109 1028 l 706 1028 l 706 934 l 218 934 l 218 574 l 640 574 l 640 481 l 218 481 l 218 94 l 713 94 l 713 0 l 656 0 q 548 -75 579 -38 q 517 -155 517 -112 q 616 -233 517 -233 z "},"Ẽ":{"ha":749,"x_min":109,"x_max":713,"o":"m 218 94 l 713 94 l 713 0 l 109 0 l 109 1028 l 706 1028 l 706 934 l 218 934 l 218 574 l 640 574 l 640 481 l 218 481 l 218 94 m 524 1159 q 472 1166 496 1159 q 413 1188 447 1174 q 362 1206 383 1200 q 320 1213 342 1213 q 260 1200 286 1213 q 208 1163 233 1188 l 208 1238 q 322 1283 250 1283 q 374 1276 349 1283 q 433 1255 398 1269 q 484 1235 463 1242 q 526 1229 504 1229 q 585 1241 559 1229 q 637 1279 612 1253 l 637 1204 q 524 1159 595 1159 z "},"F":{"ha":722,"x_min":109,"x_max":701,"o":"m 701 933 l 219 933 l 219 567 l 635 567 l 635 472 l 219 472 l 219 0 l 109 0 l 109 1028 l 701 1028 l 701 933 z "},"G":{"ha":867,"x_min":67,"x_max":774,"o":"m 774 500 l 774 10 q 566 -8 669 -8 q 289 45 399 -8 q 123 213 178 98 q 67 513 67 328 q 189 914 67 788 q 542 1040 310 1040 q 754 1013 654 1040 l 754 917 q 547 945 653 945 q 345 903 426 945 q 224 766 265 862 q 182 511 182 671 q 223 263 182 356 q 348 128 265 169 q 560 86 431 86 q 669 93 620 86 l 669 500 l 774 500 z "},"Ǵ":{"ha":867,"x_min":67,"x_max":774,"o":"m 774 500 l 774 10 q 566 -8 669 -8 q 289 45 399 -8 q 123 213 178 98 q 67 513 67 328 q 189 914 67 788 q 542 1040 310 1040 q 754 1013 654 1040 l 754 917 q 547 945 653 945 q 345 903 426 945 q 224 766 265 862 q 182 511 182 671 q 223 263 182 356 q 348 128 265 169 q 560 86 431 86 q 669 93 620 86 l 669 500 l 774 500 m 435 1117 l 542 1313 l 658 1313 l 531 1117 l 435 1117 z "},"Ğ":{"ha":867,"x_min":67,"x_max":774,"o":"m 774 500 l 774 10 q 566 -8 669 -8 q 289 45 399 -8 q 123 213 178 98 q 67 513 67 328 q 189 914 67 788 q 542 1040 310 1040 q 754 1013 654 1040 l 754 917 q 547 945 653 945 q 345 903 426 945 q 224 766 265 862 q 182 511 182 671 q 223 263 182 356 q 348 128 265 169 q 560 86 431 86 q 669 93 620 86 l 669 500 l 774 500 m 485 1124 q 338 1169 390 1124 q 278 1299 285 1215 l 351 1299 q 390 1214 358 1241 q 485 1188 421 1188 q 580 1214 549 1188 q 617 1299 610 1241 l 690 1299 q 631 1169 683 1214 q 485 1124 579 1124 z "},"Ǧ":{"ha":867,"x_min":67,"x_max":774,"o":"m 774 500 l 774 10 q 566 -8 669 -8 q 289 45 399 -8 q 123 213 178 98 q 67 513 67 328 q 189 914 67 788 q 542 1040 310 1040 q 754 1013 654 1040 l 754 917 q 547 945 653 945 q 345 903 426 945 q 224 766 265 862 q 182 511 182 671 q 223 263 182 356 q 348 128 265 169 q 560 86 431 86 q 669 93 620 86 l 669 500 l 774 500 m 597 1313 l 689 1313 l 534 1117 l 433 1117 l 279 1313 l 370 1313 l 484 1165 l 597 1313 z "},"Ĝ":{"ha":867,"x_min":67,"x_max":774,"o":"m 774 500 l 774 10 q 566 -8 669 -8 q 289 45 399 -8 q 123 213 178 98 q 67 513 67 328 q 189 914 67 788 q 542 1040 310 1040 q 754 1013 654 1040 l 754 917 q 547 945 653 945 q 345 903 426 945 q 224 766 265 862 q 182 511 182 671 q 223 263 182 356 q 348 128 265 169 q 560 86 431 86 q 669 93 620 86 l 669 500 l 774 500 m 689 1117 l 597 1117 l 484 1266 l 370 1117 l 279 1117 l 433 1313 l 534 1313 l 689 1117 z "},"Ģ":{"ha":867,"x_min":67,"x_max":774,"o":"m 774 500 l 774 10 q 566 -8 669 -8 q 289 45 399 -8 q 123 213 178 98 q 67 513 67 328 q 189 914 67 788 q 542 1040 310 1040 q 754 1013 654 1040 l 754 917 q 547 945 653 945 q 345 903 426 945 q 224 766 265 862 q 182 511 182 671 q 223 263 182 356 q 348 128 265 169 q 560 86 431 86 q 669 93 620 86 l 669 500 l 774 500 m 482 -114 q 537 -133 518 -114 q 556 -189 556 -152 q 545 -255 556 -219 q 517 -323 535 -292 l 449 -323 q 477 -226 473 -267 q 429 -209 446 -224 q 413 -169 413 -194 q 431 -129 413 -144 q 482 -114 449 -114 z "},"Ġ":{"ha":867,"x_min":67,"x_max":774,"o":"m 774 500 l 774 10 q 566 -8 669 -8 q 289 45 399 -8 q 123 213 178 98 q 67 513 67 328 q 189 914 67 788 q 542 1040 310 1040 q 754 1013 654 1040 l 754 917 q 547 945 653 945 q 345 903 426 945 q 224 766 265 862 q 182 511 182 671 q 223 263 182 356 q 348 128 265 169 q 560 86 431 86 q 669 93 620 86 l 669 500 l 774 500 m 484 1153 q 428 1169 448 1153 q 408 1217 408 1186 q 428 1264 408 1247 q 484 1281 449 1281 q 540 1264 519 1281 q 560 1217 560 1247 q 540 1170 560 1187 q 484 1153 519 1153 z "},"Ḡ":{"ha":867,"x_min":67,"x_max":774,"o":"m 774 500 l 774 10 q 566 -8 669 -8 q 289 45 399 -8 q 123 213 178 98 q 67 513 67 328 q 189 914 67 788 q 542 1040 310 1040 q 754 1013 654 1040 l 754 917 q 547 945 653 945 q 345 903 426 945 q 224 766 265 862 q 182 511 182 671 q 223 263 182 356 q 348 128 265 169 q 560 86 431 86 q 669 93 620 86 l 669 500 l 774 500 m 283 1179 l 283 1253 l 685 1253 l 685 1179 l 283 1179 z "},"H":{"ha":940,"x_min":109,"x_max":831,"o":"m 109 0 l 109 1028 l 219 1028 l 219 577 l 721 577 l 721 1028 l 831 1028 l 831 0 l 721 0 l 721 478 l 219 478 l 219 0 l 109 0 z "},"Ħ":{"ha":940,"x_min":0,"x_max":940,"o":"m 940 842 l 940 766 l 831 766 l 831 0 l 721 0 l 721 478 l 219 478 l 219 0 l 109 0 l 109 766 l 0 766 l 0 842 l 109 842 l 109 1028 l 219 1028 l 219 842 l 721 842 l 721 1028 l 831 1028 l 831 842 l 940 842 m 721 577 l 721 766 l 219 766 l 219 577 l 721 577 z "},"Ḫ":{"ha":940,"x_min":109,"x_max":831,"o":"m 109 0 l 109 1028 l 219 1028 l 219 577 l 721 577 l 721 1028 l 831 1028 l 831 0 l 721 0 l 721 478 l 219 478 l 219 0 l 109 0 m 471 -287 q 321 -239 374 -287 q 264 -107 267 -192 l 337 -107 q 374 -193 341 -165 q 471 -222 406 -222 q 568 -193 535 -222 q 603 -107 600 -165 l 676 -107 q 620 -240 672 -193 q 471 -287 567 -287 z "},"Ĥ":{"ha":940,"x_min":109,"x_max":831,"o":"m 109 0 l 109 1028 l 219 1028 l 219 577 l 721 577 l 721 1028 l 831 1028 l 831 0 l 721 0 l 721 478 l 219 478 l 219 0 l 109 0 m 675 1117 l 583 1117 l 470 1266 l 356 1117 l 265 1117 l 419 1313 l 520 1313 l 675 1117 z "},"Ḥ":{"ha":940,"x_min":109,"x_max":831,"o":"m 109 0 l 109 1028 l 219 1028 l 219 577 l 721 577 l 721 1028 l 831 1028 l 831 0 l 721 0 l 721 478 l 219 478 l 219 0 l 109 0 m 470 -242 q 414 -225 434 -242 q 394 -178 394 -208 q 415 -131 394 -149 q 470 -114 435 -114 q 526 -131 506 -114 q 546 -178 546 -149 q 526 -225 546 -208 q 470 -242 506 -242 z "},"I":{"ha":328,"x_min":109,"x_max":219,"o":"m 109 0 l 109 1028 l 219 1028 l 219 0 l 109 0 z "},"Í":{"ha":328,"x_min":109,"x_max":338,"o":"m 109 0 l 109 1028 l 219 1028 l 219 0 l 109 0 m 115 1117 l 222 1313 l 338 1313 l 211 1117 l 115 1117 z "},"Ĭ":{"ha":328,"x_min":-42,"x_max":370,"o":"m 109 0 l 109 1028 l 219 1028 l 219 0 l 109 0 m 165 1124 q 18 1169 70 1124 q -42 1299 -35 1215 l 31 1299 q 69 1214 38 1241 q 165 1188 101 1188 q 259 1214 228 1188 q 297 1299 290 1241 l 370 1299 q 311 1169 363 1214 q 165 1124 259 1124 z "},"Î":{"ha":328,"x_min":-41,"x_max":369,"o":"m 109 0 l 109 1028 l 219 1028 l 219 0 l 109 0 m 369 1117 l 277 1117 l 164 1266 l 50 1117 l -41 1117 l 113 1313 l 214 1313 l 369 1117 z "},"Ȉ":{"ha":328,"x_min":-71,"x_max":315,"o":"m 109 0 l 109 1028 l 219 1028 l 219 0 l 109 0 m 13 1117 l -71 1313 l 20 1313 l 96 1117 l 13 1117 m 231 1117 l 147 1313 l 238 1313 l 315 1117 l 231 1117 z "},"Ï":{"ha":328,"x_min":-55,"x_max":382,"o":"m 109 0 l 109 1028 l 219 1028 l 219 0 l 109 0 m 15 1153 q -36 1170 -17 1153 q -55 1217 -55 1187 q -36 1264 -55 1247 q 15 1281 -17 1281 q 67 1264 48 1281 q 85 1217 85 1247 q 67 1170 85 1187 q 15 1153 48 1153 m 312 1153 q 261 1170 279 1153 q 242 1217 242 1187 q 261 1264 242 1247 q 312 1281 279 1281 q 363 1264 344 1281 q 382 1217 382 1247 q 363 1170 382 1187 q 312 1153 344 1153 z "},"Ḯ":{"ha":328,"x_min":-55,"x_max":382,"o":"m 109 0 l 109 1028 l 219 1028 l 219 0 l 109 0 m 112 1326 l 219 1487 l 342 1487 l 216 1326 l 112 1326 m 15 1153 q -36 1170 -17 1153 q -55 1217 -55 1187 q -36 1264 -55 1247 q 15 1281 -17 1281 q 67 1264 48 1281 q 85 1217 85 1247 q 67 1170 85 1187 q 15 1153 48 1153 m 312 1153 q 261 1170 279 1153 q 242 1217 242 1187 q 261 1264 242 1247 q 312 1281 279 1281 q 363 1264 344 1281 q 382 1217 382 1247 q 363 1170 382 1187 q 312 1153 344 1153 z "},"İ":{"ha":328,"x_min":88,"x_max":240,"o":"m 109 0 l 109 1028 l 219 1028 l 219 0 l 109 0 m 164 1153 q 108 1169 128 1153 q 88 1217 88 1186 q 108 1264 88 1247 q 164 1281 128 1281 q 219 1264 199 1281 q 240 1217 240 1247 q 219 1170 240 1187 q 164 1153 199 1153 z "},"Ị":{"ha":328,"x_min":88,"x_max":240,"o":"m 109 0 l 109 1028 l 219 1028 l 219 0 l 109 0 m 164 -242 q 108 -225 128 -242 q 88 -178 88 -208 q 108 -131 88 -149 q 164 -114 128 -114 q 219 -131 199 -114 q 240 -178 240 -149 q 219 -225 240 -208 q 164 -242 199 -242 z "},"Ì":{"ha":328,"x_min":-10,"x_max":219,"o":"m 109 0 l 109 1028 l 219 1028 l 219 0 l 109 0 m 115 1117 l -10 1313 l 105 1313 l 212 1117 l 115 1117 z "},"Ỉ":{"ha":328,"x_min":33,"x_max":309,"o":"m 109 0 l 109 1028 l 219 1028 l 219 0 l 109 0 m 131 1117 q 141 1151 131 1138 q 163 1173 151 1165 q 197 1192 176 1181 q 230 1210 219 1201 q 241 1232 241 1218 q 223 1256 241 1248 q 163 1265 206 1265 q 33 1242 96 1265 l 33 1296 q 96 1312 60 1306 q 169 1318 133 1318 q 274 1297 239 1318 q 309 1238 309 1276 q 293 1195 309 1210 q 247 1165 278 1181 q 210 1143 222 1153 q 197 1117 199 1133 l 131 1117 z "},"Ȋ":{"ha":328,"x_min":-42,"x_max":370,"o":"m 109 0 l 109 1028 l 219 1028 l 219 0 l 109 0 m -42 1132 q 17 1262 -35 1217 q 163 1307 68 1307 q 310 1261 257 1307 q 370 1132 363 1216 l 297 1132 q 258 1216 290 1190 q 163 1243 226 1243 q 68 1216 99 1243 q 31 1132 37 1190 l -42 1132 z "},"Ī":{"ha":328,"x_min":-37,"x_max":365,"o":"m 109 0 l 109 1028 l 219 1028 l 219 0 l 109 0 m -37 1179 l -37 1253 l 365 1253 l 365 1179 l -37 1179 z "},"Į":{"ha":328,"x_min":11,"x_max":283,"o":"m 179 -233 q 283 -208 224 -233 l 283 -263 q 170 -288 228 -288 q 52 -256 92 -288 q 11 -162 11 -223 q 36 -75 11 -115 q 115 0 60 -35 l 109 0 l 109 1028 l 219 1028 l 219 0 q 111 -75 142 -38 q 81 -155 81 -112 q 179 -233 81 -233 z "},"Ĩ":{"ha":328,"x_min":-51,"x_max":378,"o":"m 109 0 l 109 1028 l 219 1028 l 219 0 l 109 0 m 265 1159 q 213 1166 237 1159 q 153 1188 188 1174 q 103 1206 124 1200 q 61 1213 83 1213 q 1 1200 27 1213 q -51 1163 -26 1188 l -51 1238 q 63 1283 -9 1283 q 115 1276 90 1283 q 174 1255 139 1269 q 225 1235 204 1242 q 267 1229 245 1229 q 326 1241 300 1229 q 378 1279 353 1253 l 378 1204 q 265 1159 336 1159 z "},"J":{"ha":328,"x_min":-8,"x_max":219,"o":"m -8 -190 q 82 -8 56 -97 q 109 202 109 80 l 109 1028 l 219 1028 l 219 188 q 181 -35 215 63 q 65 -238 146 -133 l -8 -190 z "},"Ĵ":{"ha":328,"x_min":-41,"x_max":369,"o":"m -8 -190 q 82 -8 56 -97 q 109 202 109 80 l 109 1028 l 219 1028 l 219 188 q 181 -35 215 63 q 65 -238 146 -133 l -8 -190 m 369 1117 l 277 1117 l 164 1266 l 50 1117 l -41 1117 l 113 1313 l 214 1313 l 369 1117 z "},"K":{"ha":808,"x_min":109,"x_max":833,"o":"m 710 0 l 349 478 l 219 478 l 219 0 l 109 0 l 109 1028 l 219 1028 l 219 576 l 351 576 l 684 1028 l 803 1028 l 436 530 l 833 0 l 710 0 z "},"Ķ":{"ha":808,"x_min":109,"x_max":833,"o":"m 710 0 l 349 478 l 219 478 l 219 0 l 109 0 l 109 1028 l 219 1028 l 219 576 l 351 576 l 684 1028 l 803 1028 l 436 530 l 833 0 l 710 0 m 424 -114 q 479 -133 460 -114 q 498 -189 498 -152 q 488 -255 498 -219 q 459 -323 477 -292 l 391 -323 q 419 -226 415 -267 q 372 -209 388 -224 q 355 -169 355 -194 q 373 -129 355 -144 q 424 -114 391 -114 z "},"L":{"ha":695,"x_min":109,"x_max":690,"o":"m 109 0 l 109 1028 l 219 1028 l 219 96 l 690 96 l 690 0 l 109 0 z "},"Ǉ":{"ha":1023,"x_min":109,"x_max":914,"o":"m 109 0 l 109 1028 l 219 1028 l 219 96 l 690 96 l 690 0 l 109 0 m 688 -190 q 777 -8 751 -97 q 804 202 804 80 l 804 1028 l 914 1028 l 914 188 q 876 -35 910 63 q 760 -238 841 -133 l 688 -190 z "},"Ĺ":{"ha":695,"x_min":109,"x_max":690,"o":"m 109 0 l 109 1028 l 219 1028 l 219 96 l 690 96 l 690 0 l 109 0 m 116 1117 l 223 1313 l 338 1313 l 212 1117 l 116 1117 z "},"Ľ":{"ha":695,"x_min":109,"x_max":690,"o":"m 109 0 l 109 1028 l 219 1028 l 219 96 l 690 96 l 690 0 l 109 0 m 439 792 q 451 941 448 861 q 454 1122 454 1021 l 535 1122 q 502 792 535 924 l 439 792 z "},"Ļ":{"ha":695,"x_min":109,"x_max":690,"o":"m 109 0 l 109 1028 l 219 1028 l 219 96 l 690 96 l 690 0 l 109 0 m 398 -114 q 453 -133 434 -114 q 472 -189 472 -152 q 461 -255 472 -219 q 433 -323 451 -292 l 365 -323 q 393 -226 389 -267 q 345 -209 362 -224 q 328 -169 328 -194 q 347 -129 328 -144 q 398 -114 365 -114 z "},"Ŀ":{"ha":695,"x_min":109,"x_max":690,"o":"m 109 0 l 109 1028 l 219 1028 l 219 96 l 690 96 l 690 0 l 109 0 m 507 492 q 451 510 470 492 q 431 560 431 528 q 451 611 431 592 q 507 630 470 630 q 563 611 544 630 q 583 560 583 592 q 563 510 583 528 q 507 492 544 492 z "},"Ḷ":{"ha":695,"x_min":109,"x_max":690,"o":"m 109 0 l 109 1028 l 219 1028 l 219 96 l 690 96 l 690 0 l 109 0 m 400 -242 q 344 -225 364 -242 q 324 -178 324 -208 q 344 -131 324 -149 q 400 -114 365 -114 q 456 -131 435 -114 q 476 -178 476 -149 q 456 -225 476 -208 q 400 -242 435 -242 z "},"ǈ":{"ha":997,"x_min":109,"x_max":921,"o":"m 109 0 l 109 1028 l 219 1028 l 219 96 l 690 96 l 690 0 l 109 0 m 674 -274 q 765 -92 738 -181 q 792 117 792 -4 l 792 753 l 900 753 l 900 125 q 884 -41 900 33 q 836 -182 869 -115 q 747 -322 803 -249 l 674 -274 m 845 919 q 789 938 808 919 q 769 988 769 956 q 789 1039 769 1021 q 845 1058 808 1058 q 901 1039 881 1058 q 921 988 921 1021 q 901 938 921 956 q 845 919 881 919 z "},"Ḻ":{"ha":695,"x_min":109,"x_max":690,"o":"m 109 0 l 109 1028 l 219 1028 l 219 96 l 690 96 l 690 0 l 109 0 m 199 -213 l 199 -140 l 601 -140 l 601 -213 l 199 -213 z "},"Ł":{"ha":695,"x_min":-14,"x_max":690,"o":"m 219 96 l 690 96 l 690 0 l 109 0 l 109 458 l 28 395 l -14 460 l 109 555 l 109 1028 l 219 1028 l 219 640 l 394 776 l 436 711 l 219 543 l 219 96 z "},"M":{"ha":1159,"x_min":112,"x_max":1047,"o":"m 917 1028 l 1047 1028 l 1047 0 l 944 0 l 944 861 l 629 142 l 530 142 l 215 851 l 215 0 l 112 0 l 112 1028 l 242 1028 l 581 256 l 917 1028 z "},"Ṃ":{"ha":1159,"x_min":112,"x_max":1047,"o":"m 917 1028 l 1047 1028 l 1047 0 l 944 0 l 944 861 l 629 142 l 530 142 l 215 851 l 215 0 l 112 0 l 112 1028 l 242 1028 l 581 256 l 917 1028 m 584 -242 q 528 -225 548 -242 q 508 -178 508 -208 q 528 -131 508 -149 q 584 -114 549 -114 q 640 -131 619 -114 q 660 -178 660 -149 q 640 -225 660 -208 q 584 -242 619 -242 z "},"N":{"ha":957,"x_min":109,"x_max":848,"o":"m 744 1028 l 848 1028 l 848 0 l 734 0 l 213 856 l 213 0 l 109 0 l 109 1028 l 223 1028 l 744 172 l 744 1028 z "},"Ǌ":{"ha":1285,"x_min":109,"x_max":1176,"o":"m 744 1028 l 848 1028 l 848 0 l 734 0 l 213 856 l 213 0 l 109 0 l 109 1028 l 223 1028 l 744 172 l 744 1028 m 949 -190 q 1039 -8 1013 -97 q 1066 202 1066 80 l 1066 1028 l 1176 1028 l 1176 188 q 1138 -35 1172 63 q 1022 -238 1103 -133 l 949 -190 z "},"Ń":{"ha":957,"x_min":109,"x_max":848,"o":"m 744 1028 l 848 1028 l 848 0 l 734 0 l 213 856 l 213 0 l 109 0 l 109 1028 l 223 1028 l 744 172 l 744 1028 m 430 1117 l 537 1313 l 652 1313 l 526 1117 l 430 1117 z "},"Ň":{"ha":957,"x_min":109,"x_max":848,"o":"m 744 1028 l 848 1028 l 848 0 l 734 0 l 213 856 l 213 0 l 109 0 l 109 1028 l 223 1028 l 744 172 l 744 1028 m 592 1313 l 683 1313 l 528 1117 l 428 1117 l 274 1313 l 365 1313 l 478 1165 l 592 1313 z "},"Ņ":{"ha":957,"x_min":109,"x_max":848,"o":"m 744 1028 l 848 1028 l 848 0 l 734 0 l 213 856 l 213 0 l 109 0 l 109 1028 l 223 1028 l 744 172 l 744 1028 m 476 -114 q 531 -133 513 -114 q 550 -189 550 -152 q 540 -255 550 -219 q 511 -323 529 -292 l 443 -323 q 472 -226 467 -267 q 424 -209 440 -224 q 407 -169 407 -194 q 425 -129 407 -144 q 476 -114 443 -114 z "},"Ṅ":{"ha":957,"x_min":109,"x_max":848,"o":"m 744 1028 l 848 1028 l 848 0 l 734 0 l 213 856 l 213 0 l 109 0 l 109 1028 l 223 1028 l 744 172 l 744 1028 m 478 1153 q 423 1169 442 1153 q 403 1217 403 1186 q 423 1264 403 1247 q 478 1281 443 1281 q 534 1264 514 1281 q 554 1217 554 1247 q 534 1170 554 1187 q 478 1153 514 1153 z "},"Ṇ":{"ha":957,"x_min":109,"x_max":848,"o":"m 744 1028 l 848 1028 l 848 0 l 734 0 l 213 856 l 213 0 l 109 0 l 109 1028 l 223 1028 l 744 172 l 744 1028 m 478 -242 q 423 -225 442 -242 q 403 -178 403 -208 q 423 -131 403 -149 q 478 -114 443 -114 q 534 -131 514 -114 q 554 -178 554 -149 q 534 -225 554 -208 q 478 -242 514 -242 z "},"Ŋ":{"ha":957,"x_min":109,"x_max":848,"o":"m 848 1028 l 848 132 q 832 -39 848 37 q 783 -182 817 -114 q 694 -322 750 -249 l 622 -274 q 698 -140 670 -203 q 735 -3 725 -76 l 213 856 l 213 0 l 109 0 l 109 1028 l 223 1028 l 744 173 l 744 1028 l 848 1028 z "},"ǋ":{"ha":1258,"x_min":109,"x_max":1183,"o":"m 744 1028 l 848 1028 l 848 0 l 734 0 l 213 856 l 213 0 l 109 0 l 109 1028 l 223 1028 l 744 172 l 744 1028 m 936 -274 q 1027 -92 1000 -181 q 1053 117 1053 -4 l 1053 753 l 1162 753 l 1162 125 q 1146 -41 1162 33 q 1098 -182 1131 -115 q 1009 -322 1065 -249 l 936 -274 m 1107 919 q 1050 938 1070 919 q 1031 988 1031 956 q 1050 1039 1031 1021 q 1107 1058 1070 1058 q 1163 1039 1143 1058 q 1183 988 1183 1021 q 1163 938 1183 956 q 1107 919 1143 919 z "},"Ṉ":{"ha":957,"x_min":109,"x_max":848,"o":"m 744 1028 l 848 1028 l 848 0 l 734 0 l 213 856 l 213 0 l 109 0 l 109 1028 l 223 1028 l 744 172 l 744 1028 m 277 -213 l 277 -140 l 679 -140 l 679 -213 l 277 -213 z "},"Ñ":{"ha":957,"x_min":109,"x_max":848,"o":"m 744 1028 l 848 1028 l 848 0 l 734 0 l 213 856 l 213 0 l 109 0 l 109 1028 l 223 1028 l 744 172 l 744 1028 m 580 1159 q 527 1166 551 1159 q 468 1188 503 1174 q 418 1206 438 1200 q 376 1213 397 1213 q 315 1200 342 1213 q 264 1163 289 1188 l 264 1238 q 377 1283 306 1283 q 429 1276 405 1283 q 488 1255 453 1269 q 539 1235 519 1242 q 581 1229 560 1229 q 641 1241 615 1229 q 692 1279 667 1253 l 692 1204 q 580 1159 651 1159 z "},"O":{"ha":926,"x_min":67,"x_max":860,"o":"m 463 -12 q 170 115 274 -12 q 67 514 67 242 q 170 913 67 786 q 463 1040 274 1040 q 756 913 651 1040 q 860 514 860 785 q 756 115 860 242 q 463 -12 651 -12 m 463 81 q 673 181 600 81 q 746 510 746 280 q 673 846 746 746 q 463 947 600 947 q 253 848 326 947 q 181 517 181 749 q 215 261 181 357 q 311 123 249 165 q 463 81 373 81 z "},"Ó":{"ha":926,"x_min":67,"x_max":860,"o":"m 463 -12 q 170 115 274 -12 q 67 514 67 242 q 170 913 67 786 q 463 1040 274 1040 q 756 913 651 1040 q 860 514 860 785 q 756 115 860 242 q 463 -12 651 -12 m 463 81 q 673 181 600 81 q 746 510 746 280 q 673 846 746 746 q 463 947 600 947 q 253 848 326 947 q 181 517 181 749 q 215 261 181 357 q 311 123 249 165 q 463 81 373 81 m 415 1117 l 522 1313 l 637 1313 l 510 1117 l 415 1117 z "},"Ŏ":{"ha":926,"x_min":67,"x_max":860,"o":"m 463 -12 q 170 115 274 -12 q 67 514 67 242 q 170 913 67 786 q 463 1040 274 1040 q 756 913 651 1040 q 860 514 860 785 q 756 115 860 242 q 463 -12 651 -12 m 463 81 q 673 181 600 81 q 746 510 746 280 q 673 846 746 746 q 463 947 600 947 q 253 848 326 947 q 181 517 181 749 q 215 261 181 357 q 311 123 249 165 q 463 81 373 81 m 464 1124 q 317 1169 369 1124 q 257 1299 265 1215 l 330 1299 q 369 1214 338 1241 q 464 1188 400 1188 q 559 1214 528 1188 q 597 1299 590 1241 l 669 1299 q 610 1169 662 1214 q 464 1124 558 1124 z "},"Ô":{"ha":926,"x_min":67,"x_max":860,"o":"m 463 -12 q 170 115 274 -12 q 67 514 67 242 q 170 913 67 786 q 463 1040 274 1040 q 756 913 651 1040 q 860 514 860 785 q 756 115 860 242 q 463 -12 651 -12 m 463 81 q 673 181 600 81 q 746 510 746 280 q 673 846 746 746 q 463 947 600 947 q 253 848 326 947 q 181 517 181 749 q 215 261 181 357 q 311 123 249 165 q 463 81 373 81 m 668 1117 l 576 1117 l 463 1266 l 349 1117 l 258 1117 l 413 1313 l 513 1313 l 668 1117 z "},"Ố":{"ha":926,"x_min":67,"x_max":860,"o":"m 463 -12 q 170 115 274 -12 q 67 514 67 242 q 170 913 67 786 q 463 1040 274 1040 q 756 913 651 1040 q 860 514 860 785 q 756 115 860 242 q 463 -12 651 -12 m 463 81 q 673 181 600 81 q 746 510 746 280 q 673 846 746 746 q 463 947 600 947 q 253 848 326 947 q 181 517 181 749 q 215 261 181 357 q 311 123 249 165 q 463 81 373 81 m 701 1433 l 787 1433 l 676 1251 l 608 1251 l 701 1433 m 413 1306 l 513 1306 l 668 1117 l 576 1117 l 463 1262 l 349 1117 l 258 1117 l 413 1306 z "},"Ộ":{"ha":926,"x_min":67,"x_max":860,"o":"m 463 -12 q 170 115 274 -12 q 67 514 67 242 q 170 913 67 786 q 463 1040 274 1040 q 756 913 651 1040 q 860 514 860 785 q 756 115 860 242 q 463 -12 651 -12 m 463 81 q 673 181 600 81 q 746 510 746 280 q 673 846 746 746 q 463 947 600 947 q 253 848 326 947 q 181 517 181 749 q 215 261 181 357 q 311 123 249 165 q 463 81 373 81 m 463 -242 q 407 -225 427 -242 q 388 -178 388 -208 q 408 -131 388 -149 q 463 -114 428 -114 q 519 -131 499 -114 q 539 -178 539 -149 q 519 -225 539 -208 q 463 -242 499 -242 m 668 1117 l 576 1117 l 463 1266 l 349 1117 l 258 1117 l 413 1313 l 513 1313 l 668 1117 z "},"Ồ":{"ha":926,"x_min":67,"x_max":860,"o":"m 463 -12 q 170 115 274 -12 q 67 514 67 242 q 170 913 67 786 q 463 1040 274 1040 q 756 913 651 1040 q 860 514 860 785 q 756 115 860 242 q 463 -12 651 -12 m 463 81 q 673 181 600 81 q 746 510 746 280 q 673 846 746 746 q 463 947 600 947 q 253 848 326 947 q 181 517 181 749 q 215 261 181 357 q 311 123 249 165 q 463 81 373 81 m 694 1251 l 626 1251 l 516 1433 l 601 1433 l 694 1251 m 413 1306 l 513 1306 l 668 1117 l 576 1117 l 463 1262 l 349 1117 l 258 1117 l 413 1306 z "},"Ổ":{"ha":926,"x_min":67,"x_max":860,"o":"m 463 -12 q 170 115 274 -12 q 67 514 67 242 q 170 913 67 786 q 463 1040 274 1040 q 756 913 651 1040 q 860 514 860 785 q 756 115 860 242 q 463 -12 651 -12 m 463 81 q 673 181 600 81 q 746 510 746 280 q 673 846 746 746 q 463 947 600 947 q 253 848 326 947 q 181 517 181 749 q 215 261 181 357 q 311 123 249 165 q 463 81 373 81 m 646 1444 q 751 1423 716 1444 q 786 1367 786 1403 q 770 1326 786 1340 q 724 1297 755 1313 q 688 1276 700 1285 q 674 1251 676 1267 l 608 1251 q 626 1293 609 1278 q 674 1322 644 1308 q 708 1340 697 1332 q 718 1362 718 1349 q 700 1385 718 1377 q 640 1394 683 1394 q 511 1371 573 1394 l 511 1422 q 574 1438 538 1431 q 646 1444 610 1444 m 413 1306 l 513 1306 l 668 1117 l 576 1117 l 463 1262 l 349 1117 l 258 1117 l 413 1306 z "},"Ỗ":{"ha":926,"x_min":67,"x_max":860,"o":"m 463 -12 q 170 115 274 -12 q 67 514 67 242 q 170 913 67 786 q 463 1040 274 1040 q 756 913 651 1040 q 860 514 860 785 q 756 115 860 242 q 463 -12 651 -12 m 463 81 q 673 181 600 81 q 746 510 746 280 q 673 846 746 746 q 463 947 600 947 q 253 848 326 947 q 181 517 181 749 q 215 261 181 357 q 311 123 249 165 q 463 81 373 81 m 556 1395 q 614 1407 588 1395 q 668 1444 640 1418 l 668 1380 q 556 1338 623 1338 q 507 1344 531 1338 q 452 1365 484 1351 q 405 1382 422 1376 q 369 1387 388 1387 q 312 1375 338 1387 q 258 1338 286 1364 l 258 1402 q 370 1446 303 1446 q 420 1439 396 1446 q 474 1418 444 1431 q 520 1401 503 1406 q 556 1395 538 1395 m 413 1306 l 513 1306 l 668 1117 l 576 1117 l 463 1262 l 349 1117 l 258 1117 l 413 1306 z "},"Ȍ":{"ha":926,"x_min":67,"x_max":860,"o":"m 463 -12 q 170 115 274 -12 q 67 514 67 242 q 170 913 67 786 q 463 1040 274 1040 q 756 913 651 1040 q 860 514 860 785 q 756 115 860 242 q 463 -12 651 -12 m 463 81 q 673 181 600 81 q 746 510 746 280 q 673 846 746 746 q 463 947 600 947 q 253 848 326 947 q 181 517 181 749 q 215 261 181 357 q 311 123 249 165 q 463 81 373 81 m 313 1117 l 228 1313 l 319 1313 l 395 1117 l 313 1117 m 531 1117 l 447 1313 l 538 1313 l 614 1117 l 531 1117 z "},"Ö":{"ha":926,"x_min":67,"x_max":860,"o":"m 463 -12 q 170 115 274 -12 q 67 514 67 242 q 170 913 67 786 q 463 1040 274 1040 q 756 913 651 1040 q 860 514 860 785 q 756 115 860 242 q 463 -12 651 -12 m 463 81 q 673 181 600 81 q 746 510 746 280 q 673 846 746 746 q 463 947 600 947 q 253 848 326 947 q 181 517 181 749 q 215 261 181 357 q 311 123 249 165 q 463 81 373 81 m 315 1153 q 263 1170 282 1153 q 244 1217 244 1187 q 263 1264 244 1247 q 315 1281 282 1281 q 366 1264 347 1281 q 385 1217 385 1247 q 366 1170 385 1187 q 315 1153 347 1153 m 611 1153 q 560 1170 578 1153 q 542 1217 542 1187 q 560 1264 542 1247 q 611 1281 578 1281 q 663 1264 644 1281 q 681 1217 681 1247 q 663 1170 681 1187 q 611 1153 644 1153 z "},"Ȫ":{"ha":926,"x_min":67,"x_max":860,"o":"m 463 -12 q 170 115 274 -12 q 67 514 67 242 q 170 913 67 786 q 463 1040 274 1040 q 756 913 651 1040 q 860 514 860 785 q 756 115 860 242 q 463 -12 651 -12 m 463 81 q 673 181 600 81 q 746 510 746 280 q 673 846 746 746 q 463 947 600 947 q 253 848 326 947 q 181 517 181 749 q 215 261 181 357 q 311 123 249 165 q 463 81 373 81 m 315 1153 q 263 1170 282 1153 q 244 1217 244 1187 q 263 1264 244 1247 q 315 1281 282 1281 q 366 1264 347 1281 q 385 1217 385 1247 q 366 1170 385 1187 q 315 1153 347 1153 m 611 1153 q 560 1170 578 1153 q 542 1217 542 1187 q 560 1264 542 1247 q 611 1281 578 1281 q 663 1264 644 1281 q 681 1217 681 1247 q 663 1170 681 1187 q 611 1153 644 1153 m 262 1367 l 262 1441 l 664 1441 l 664 1367 l 262 1367 z "},"Ȱ":{"ha":926,"x_min":67,"x_max":860,"o":"m 463 -12 q 170 115 274 -12 q 67 514 67 242 q 170 913 67 786 q 463 1040 274 1040 q 756 913 651 1040 q 860 514 860 785 q 756 115 860 242 q 463 -12 651 -12 m 463 81 q 673 181 600 81 q 746 510 746 280 q 673 846 746 746 q 463 947 600 947 q 253 848 326 947 q 181 517 181 749 q 215 261 181 357 q 311 123 249 165 q 463 81 373 81 m 463 1153 q 407 1169 427 1153 q 388 1217 388 1186 q 408 1264 388 1247 q 463 1281 428 1281 q 519 1264 499 1281 q 539 1217 539 1247 q 519 1170 539 1187 q 463 1153 499 1153 m 262 1367 l 262 1441 l 664 1441 l 664 1367 l 262 1367 z "},"Ọ":{"ha":926,"x_min":67,"x_max":860,"o":"m 463 -12 q 170 115 274 -12 q 67 514 67 242 q 170 913 67 786 q 463 1040 274 1040 q 756 913 651 1040 q 860 514 860 785 q 756 115 860 242 q 463 -12 651 -12 m 463 81 q 673 181 600 81 q 746 510 746 280 q 673 846 746 746 q 463 947 600 947 q 253 848 326 947 q 181 517 181 749 q 215 261 181 357 q 311 123 249 165 q 463 81 373 81 m 463 -242 q 407 -225 427 -242 q 388 -178 388 -208 q 408 -131 388 -149 q 463 -114 428 -114 q 519 -131 499 -114 q 539 -178 539 -149 q 519 -225 539 -208 q 463 -242 499 -242 z "},"Ò":{"ha":926,"x_min":67,"x_max":860,"o":"m 463 -12 q 170 115 274 -12 q 67 514 67 242 q 170 913 67 786 q 463 1040 274 1040 q 756 913 651 1040 q 860 514 860 785 q 756 115 860 242 q 463 -12 651 -12 m 463 81 q 673 181 600 81 q 746 510 746 280 q 673 846 746 746 q 463 947 600 947 q 253 848 326 947 q 181 517 181 749 q 215 261 181 357 q 311 123 249 165 q 463 81 373 81 m 415 1117 l 289 1313 l 404 1313 l 511 1117 l 415 1117 z "},"Ỏ":{"ha":926,"x_min":67,"x_max":860,"o":"m 463 -12 q 170 115 274 -12 q 67 514 67 242 q 170 913 67 786 q 463 1040 274 1040 q 756 913 651 1040 q 860 514 860 785 q 756 115 860 242 q 463 -12 651 -12 m 463 81 q 673 181 600 81 q 746 510 746 280 q 673 846 746 746 q 463 947 600 947 q 253 848 326 947 q 181 517 181 749 q 215 261 181 357 q 311 123 249 165 q 463 81 373 81 m 430 1117 q 440 1151 431 1138 q 463 1173 450 1165 q 497 1192 475 1181 q 530 1210 519 1201 q 540 1232 540 1218 q 523 1256 540 1248 q 463 1265 505 1265 q 333 1242 395 1265 l 333 1296 q 395 1312 359 1306 q 468 1318 432 1318 q 573 1297 538 1318 q 608 1238 608 1276 q 593 1195 608 1210 q 546 1165 577 1181 q 510 1143 522 1153 q 496 1117 498 1133 l 430 1117 z "},"Ơ":{"ha":926,"x_min":67,"x_max":863,"o":"m 711 960 q 860 514 860 837 q 756 115 860 242 q 463 -12 651 -12 q 171 115 275 -12 q 67 514 67 242 q 170 913 67 786 q 463 1040 274 1040 q 566 1032 505 1040 q 652 1025 623 1025 q 746 1052 712 1025 q 780 1135 780 1079 q 776 1182 780 1160 q 765 1233 772 1204 l 847 1233 q 859 1185 856 1208 q 863 1131 863 1161 q 822 1013 863 1057 q 711 960 781 969 m 463 81 q 673 181 600 81 q 746 510 746 280 q 673 846 746 746 q 463 947 600 947 q 253 848 326 947 q 181 517 181 749 q 215 261 181 357 q 311 123 249 165 q 463 81 373 81 z "},"Ớ":{"ha":926,"x_min":67,"x_max":863,"o":"m 711 960 q 860 514 860 837 q 756 115 860 242 q 463 -12 651 -12 q 171 115 275 -12 q 67 514 67 242 q 170 913 67 786 q 463 1040 274 1040 q 566 1032 505 1040 q 652 1025 623 1025 q 746 1052 712 1025 q 780 1135 780 1079 q 776 1182 780 1160 q 765 1233 772 1204 l 847 1233 q 859 1185 856 1208 q 863 1131 863 1161 q 822 1013 863 1057 q 711 960 781 969 m 463 81 q 673 181 600 81 q 746 510 746 280 q 673 846 746 746 q 463 947 600 947 q 253 848 326 947 q 181 517 181 749 q 215 261 181 357 q 311 123 249 165 q 463 81 373 81 m 415 1117 l 522 1313 l 637 1313 l 510 1117 l 415 1117 z "},"Ợ":{"ha":926,"x_min":67,"x_max":863,"o":"m 711 960 q 860 514 860 837 q 756 115 860 242 q 463 -12 651 -12 q 171 115 275 -12 q 67 514 67 242 q 170 913 67 786 q 463 1040 274 1040 q 566 1032 505 1040 q 652 1025 623 1025 q 746 1052 712 1025 q 780 1135 780 1079 q 776 1182 780 1160 q 765 1233 772 1204 l 847 1233 q 859 1185 856 1208 q 863 1131 863 1161 q 822 1013 863 1057 q 711 960 781 969 m 463 81 q 673 181 600 81 q 746 510 746 280 q 673 846 746 746 q 463 947 600 947 q 253 848 326 947 q 181 517 181 749 q 215 261 181 357 q 311 123 249 165 q 463 81 373 81 m 463 -242 q 407 -225 427 -242 q 388 -178 388 -208 q 408 -131 388 -149 q 463 -114 428 -114 q 519 -131 499 -114 q 539 -178 539 -149 q 519 -225 539 -208 q 463 -242 499 -242 z "},"Ờ":{"ha":926,"x_min":67,"x_max":863,"o":"m 711 960 q 860 514 860 837 q 756 115 860 242 q 463 -12 651 -12 q 171 115 275 -12 q 67 514 67 242 q 170 913 67 786 q 463 1040 274 1040 q 566 1032 505 1040 q 652 1025 623 1025 q 746 1052 712 1025 q 780 1135 780 1079 q 776 1182 780 1160 q 765 1233 772 1204 l 847 1233 q 859 1185 856 1208 q 863 1131 863 1161 q 822 1013 863 1057 q 711 960 781 969 m 463 81 q 673 181 600 81 q 746 510 746 280 q 673 846 746 746 q 463 947 600 947 q 253 848 326 947 q 181 517 181 749 q 215 261 181 357 q 311 123 249 165 q 463 81 373 81 m 415 1117 l 289 1313 l 404 1313 l 511 1117 l 415 1117 z "},"Ở":{"ha":926,"x_min":67,"x_max":863,"o":"m 711 960 q 860 514 860 837 q 756 115 860 242 q 463 -12 651 -12 q 171 115 275 -12 q 67 514 67 242 q 170 913 67 786 q 463 1040 274 1040 q 566 1032 505 1040 q 652 1025 623 1025 q 746 1052 712 1025 q 780 1135 780 1079 q 776 1182 780 1160 q 765 1233 772 1204 l 847 1233 q 859 1185 856 1208 q 863 1131 863 1161 q 822 1013 863 1057 q 711 960 781 969 m 463 81 q 673 181 600 81 q 746 510 746 280 q 673 846 746 746 q 463 947 600 947 q 253 848 326 947 q 181 517 181 749 q 215 261 181 357 q 311 123 249 165 q 463 81 373 81 m 430 1117 q 440 1151 431 1138 q 463 1173 450 1165 q 497 1192 475 1181 q 530 1210 519 1201 q 540 1232 540 1218 q 523 1256 540 1248 q 463 1265 505 1265 q 333 1242 395 1265 l 333 1296 q 395 1312 359 1306 q 468 1318 432 1318 q 573 1297 538 1318 q 608 1238 608 1276 q 593 1195 608 1210 q 546 1165 577 1181 q 510 1143 522 1153 q 496 1117 498 1133 l 430 1117 z "},"Ỡ":{"ha":926,"x_min":67,"x_max":863,"o":"m 362 1213 q 303 1200 329 1213 q 253 1163 278 1188 l 253 1238 q 363 1283 293 1283 q 416 1276 391 1283 q 474 1254 440 1269 q 524 1235 504 1242 q 564 1229 543 1229 q 623 1241 597 1229 q 674 1279 649 1253 l 674 1204 q 563 1159 633 1159 q 511 1166 535 1159 q 453 1188 488 1174 q 401 1207 420 1201 q 362 1213 383 1213 m 711 960 q 860 514 860 837 q 756 115 860 242 q 463 -12 651 -12 q 171 115 275 -12 q 67 514 67 242 q 170 913 67 786 q 463 1040 274 1040 q 566 1032 505 1040 q 652 1025 623 1025 q 746 1052 712 1025 q 780 1135 780 1079 q 776 1182 780 1160 q 765 1233 772 1204 l 847 1233 q 859 1185 856 1208 q 863 1131 863 1161 q 822 1013 863 1057 q 711 960 781 969 m 463 81 q 673 181 600 81 q 746 510 746 280 q 673 846 746 746 q 463 947 600 947 q 253 848 326 947 q 181 517 181 749 q 215 261 181 357 q 311 123 249 165 q 463 81 373 81 z "},"Ő":{"ha":926,"x_min":67,"x_max":860,"o":"m 463 -12 q 170 115 274 -12 q 67 514 67 242 q 170 913 67 786 q 463 1040 274 1040 q 756 913 651 1040 q 860 514 860 785 q 756 115 860 242 q 463 -12 651 -12 m 463 81 q 673 181 600 81 q 746 510 746 280 q 673 846 746 746 q 463 947 600 947 q 253 848 326 947 q 181 517 181 749 q 215 261 181 357 q 311 123 249 165 q 463 81 373 81 m 313 1117 l 388 1313 l 479 1313 l 395 1117 l 313 1117 m 531 1117 l 607 1313 l 698 1313 l 614 1117 l 531 1117 z "},"Ȏ":{"ha":926,"x_min":67,"x_max":860,"o":"m 463 -12 q 170 115 274 -12 q 67 514 67 242 q 170 913 67 786 q 463 1040 274 1040 q 756 913 651 1040 q 860 514 860 785 q 756 115 860 242 q 463 -12 651 -12 m 463 81 q 673 181 600 81 q 746 510 746 280 q 673 846 746 746 q 463 947 600 947 q 253 848 326 947 q 181 517 181 749 q 215 261 181 357 q 311 123 249 165 q 463 81 373 81 m 257 1132 q 316 1262 265 1217 q 462 1307 367 1307 q 609 1261 556 1307 q 669 1132 662 1216 l 597 1132 q 557 1216 589 1190 q 462 1243 526 1243 q 367 1216 398 1243 q 330 1132 336 1190 l 257 1132 z "},"Ō":{"ha":926,"x_min":67,"x_max":860,"o":"m 463 -12 q 170 115 274 -12 q 67 514 67 242 q 170 913 67 786 q 463 1040 274 1040 q 756 913 651 1040 q 860 514 860 785 q 756 115 860 242 q 463 -12 651 -12 m 463 81 q 673 181 600 81 q 746 510 746 280 q 673 846 746 746 q 463 947 600 947 q 253 848 326 947 q 181 517 181 749 q 215 261 181 357 q 311 123 249 165 q 463 81 373 81 m 262 1179 l 262 1253 l 664 1253 l 664 1179 l 262 1179 z "},"Ṓ":{"ha":926,"x_min":67,"x_max":860,"o":"m 463 -12 q 170 115 274 -12 q 67 514 67 242 q 170 913 67 786 q 463 1040 274 1040 q 756 913 651 1040 q 860 514 860 785 q 756 115 860 242 q 463 -12 651 -12 m 463 81 q 673 181 600 81 q 746 510 746 280 q 673 846 746 746 q 463 947 600 947 q 253 848 326 947 q 181 517 181 749 q 215 261 181 357 q 311 123 249 165 q 463 81 373 81 m 411 1326 l 518 1487 l 641 1487 l 515 1326 l 411 1326 m 262 1179 l 262 1253 l 664 1253 l 664 1179 l 262 1179 z "},"Ṑ":{"ha":926,"x_min":67,"x_max":860,"o":"m 463 -12 q 170 115 274 -12 q 67 514 67 242 q 170 913 67 786 q 463 1040 274 1040 q 756 913 651 1040 q 860 514 860 785 q 756 115 860 242 q 463 -12 651 -12 m 463 81 q 673 181 600 81 q 746 510 746 280 q 673 846 746 746 q 463 947 600 947 q 253 848 326 947 q 181 517 181 749 q 215 261 181 357 q 311 123 249 165 q 463 81 373 81 m 411 1326 l 285 1487 l 408 1487 l 515 1326 l 411 1326 m 262 1179 l 262 1253 l 664 1253 l 664 1179 l 262 1179 z "},"Ǫ":{"ha":926,"x_min":67,"x_max":860,"o":"m 606 8 q 441 -155 441 -52 q 540 -233 441 -233 q 644 -208 584 -233 l 644 -263 q 531 -288 589 -288 q 411 -255 453 -288 q 370 -162 370 -222 q 461 -12 370 -71 q 170 115 274 -12 q 67 514 67 242 q 170 913 67 786 q 463 1040 274 1040 q 756 913 651 1040 q 860 514 860 786 q 606 8 860 104 m 181 517 q 215 261 181 357 q 311 123 249 165 q 463 81 373 81 q 673 181 600 81 q 746 510 746 280 q 673 846 746 746 q 463 947 600 947 q 253 848 326 947 q 181 517 181 749 z "},"Ø":{"ha":926,"x_min":67,"x_max":860,"o":"m 767 897 q 860 514 860 765 q 756 115 860 242 q 463 -12 651 -12 q 206 76 303 -12 l 142 -19 l 85 22 l 160 130 q 67 514 67 262 q 170 913 67 786 q 463 1040 274 1040 q 720 951 623 1040 l 785 1047 l 842 1006 l 767 897 m 181 517 q 227 229 181 334 l 660 863 q 463 947 592 947 q 253 848 326 947 q 181 517 181 749 m 463 81 q 673 181 600 81 q 746 510 746 280 q 699 798 746 693 l 267 164 q 351 101 302 121 q 463 81 400 81 z "},"Ǿ":{"ha":926,"x_min":67,"x_max":860,"o":"m 767 897 q 860 514 860 765 q 756 115 860 242 q 463 -12 651 -12 q 206 76 303 -12 l 142 -19 l 85 22 l 160 130 q 67 514 67 262 q 170 913 67 786 q 463 1040 274 1040 q 720 951 623 1040 l 785 1047 l 842 1006 l 767 897 m 181 517 q 227 229 181 334 l 660 863 q 463 947 592 947 q 253 848 326 947 q 181 517 181 749 m 463 81 q 673 181 600 81 q 746 510 746 280 q 699 798 746 693 l 267 164 q 351 101 302 121 q 463 81 400 81 m 414 1117 l 521 1313 l 636 1313 l 510 1117 l 414 1117 z "},"Õ":{"ha":926,"x_min":67,"x_max":860,"o":"m 463 -12 q 170 115 274 -12 q 67 514 67 242 q 170 913 67 786 q 463 1040 274 1040 q 756 913 651 1040 q 860 514 860 785 q 756 115 860 242 q 463 -12 651 -12 m 463 81 q 673 181 600 81 q 746 510 746 280 q 673 846 746 746 q 463 947 600 947 q 253 848 326 947 q 181 517 181 749 q 215 261 181 357 q 311 123 249 165 q 463 81 373 81 m 565 1159 q 512 1166 536 1159 q 453 1188 488 1174 q 402 1206 423 1200 q 360 1213 382 1213 q 300 1200 326 1213 q 249 1163 274 1188 l 249 1238 q 362 1283 290 1283 q 414 1276 390 1283 q 473 1255 438 1269 q 524 1235 503 1242 q 566 1229 544 1229 q 626 1241 599 1229 q 677 1279 652 1253 l 677 1204 q 565 1159 635 1159 z "},"Ṍ":{"ha":926,"x_min":67,"x_max":860,"o":"m 463 -12 q 170 115 274 -12 q 67 514 67 242 q 170 913 67 786 q 463 1040 274 1040 q 756 913 651 1040 q 860 514 860 785 q 756 115 860 242 q 463 -12 651 -12 m 463 81 q 673 181 600 81 q 746 510 746 280 q 673 846 746 746 q 463 947 600 947 q 253 848 326 947 q 181 517 181 749 q 215 261 181 357 q 311 123 249 165 q 463 81 373 81 m 411 1326 l 518 1487 l 641 1487 l 515 1326 l 411 1326 m 565 1159 q 512 1166 536 1159 q 453 1188 488 1174 q 402 1206 423 1200 q 360 1213 382 1213 q 300 1200 326 1213 q 249 1163 274 1188 l 249 1238 q 362 1283 290 1283 q 414 1276 390 1283 q 473 1255 438 1269 q 524 1235 503 1242 q 566 1229 544 1229 q 626 1241 599 1229 q 677 1279 652 1253 l 677 1204 q 565 1159 635 1159 z "},"Ṏ":{"ha":926,"x_min":67,"x_max":860,"o":"m 463 -12 q 170 115 274 -12 q 67 514 67 242 q 170 913 67 786 q 463 1040 274 1040 q 756 913 651 1040 q 860 514 860 785 q 756 115 860 242 q 463 -12 651 -12 m 463 81 q 673 181 600 81 q 746 510 746 280 q 673 846 746 746 q 463 947 600 947 q 253 848 326 947 q 181 517 181 749 q 215 261 181 357 q 311 123 249 165 q 463 81 373 81 m 565 1159 q 512 1166 536 1159 q 453 1188 488 1174 q 402 1206 423 1200 q 360 1213 382 1213 q 300 1200 326 1213 q 249 1163 274 1188 l 249 1238 q 362 1283 290 1283 q 414 1276 390 1283 q 473 1255 438 1269 q 524 1235 503 1242 q 566 1229 544 1229 q 626 1241 599 1229 q 677 1279 652 1253 l 677 1204 q 565 1159 635 1159 m 315 1341 q 263 1358 282 1341 q 244 1405 244 1375 q 263 1452 244 1435 q 315 1469 282 1469 q 366 1452 347 1469 q 385 1405 385 1435 q 366 1358 385 1375 q 315 1341 347 1341 m 611 1341 q 560 1358 578 1341 q 542 1405 542 1375 q 560 1452 542 1435 q 611 1469 578 1469 q 663 1452 644 1469 q 681 1405 681 1435 q 663 1358 681 1375 q 611 1341 644 1341 z "},"Ȭ":{"ha":926,"x_min":67,"x_max":860,"o":"m 463 -12 q 170 115 274 -12 q 67 514 67 242 q 170 913 67 786 q 463 1040 274 1040 q 756 913 651 1040 q 860 514 860 785 q 756 115 860 242 q 463 -12 651 -12 m 463 81 q 673 181 600 81 q 746 510 746 280 q 673 846 746 746 q 463 947 600 947 q 253 848 326 947 q 181 517 181 749 q 215 261 181 357 q 311 123 249 165 q 463 81 373 81 m 565 1159 q 512 1166 536 1159 q 453 1188 488 1174 q 402 1206 423 1200 q 360 1213 382 1213 q 300 1200 326 1213 q 249 1163 274 1188 l 249 1238 q 362 1283 290 1283 q 414 1276 390 1283 q 473 1255 438 1269 q 524 1235 503 1242 q 566 1229 544 1229 q 626 1241 599 1229 q 677 1279 652 1253 l 677 1204 q 565 1159 635 1159 m 262 1367 l 262 1441 l 664 1441 l 664 1367 l 262 1367 z "},"Œ":{"ha":1292,"x_min":67,"x_max":1255,"o":"m 1255 94 l 1255 0 l 748 0 q 669 -3 726 0 q 563 -7 605 -7 q 191 118 315 -7 q 67 514 67 244 q 189 908 67 779 q 551 1037 311 1037 q 620 1035 585 1037 q 663 1032 655 1033 q 743 1028 720 1028 l 1248 1028 l 1248 934 l 780 934 l 780 574 l 1182 574 l 1182 481 l 780 481 l 780 94 l 1255 94 m 671 935 q 537 942 609 942 q 337 898 415 942 q 219 759 258 853 q 180 514 180 665 q 221 268 180 362 q 342 130 262 174 q 547 87 423 87 q 671 93 622 87 l 671 935 z "},"P":{"ha":809,"x_min":109,"x_max":749,"o":"m 109 1015 q 353 1038 234 1038 q 650 952 551 1038 q 749 688 749 867 q 338 338 749 338 q 219 343 283 338 l 219 0 l 109 0 l 109 1015 m 342 428 q 568 490 496 428 q 640 685 640 553 q 572 886 640 823 q 360 949 504 949 q 219 938 285 949 l 219 435 q 342 428 269 428 z "},"Þ":{"ha":816,"x_min":109,"x_max":749,"o":"m 109 1028 l 219 1028 l 219 869 q 354 878 287 878 q 651 793 553 878 q 749 527 749 707 q 648 266 749 353 q 339 178 547 178 q 219 183 275 178 l 219 0 l 109 0 l 109 1028 m 342 267 q 568 330 496 267 q 640 525 640 392 q 572 725 640 663 q 360 788 504 788 q 219 778 285 788 l 219 274 q 342 267 269 267 z "},"Q":{"ha":926,"x_min":67,"x_max":860,"o":"m 860 514 q 773 141 860 274 q 515 -3 686 9 q 844 -66 658 -48 l 826 -158 q 367 -42 531 -119 q 135 166 203 35 q 67 513 67 298 q 170 913 67 785 q 463 1040 274 1040 q 756 913 651 1040 q 860 514 860 786 m 181 517 q 215 261 181 357 q 311 123 249 165 q 463 81 373 81 q 673 181 600 81 q 746 510 746 280 q 673 846 746 746 q 463 947 600 947 q 253 848 326 947 q 181 517 181 749 z "},"R":{"ha":856,"x_min":109,"x_max":830,"o":"m 708 0 l 400 428 q 341 426 372 426 q 217 431 283 426 l 217 0 l 109 0 l 109 1014 q 364 1038 239 1038 q 653 963 558 1038 q 748 735 748 888 q 688 545 749 619 q 508 443 627 472 l 830 0 l 708 0 m 340 514 q 570 567 498 514 q 642 734 642 620 q 578 898 642 846 q 370 950 513 950 q 217 938 290 950 l 217 519 q 340 514 292 514 z "},"Ŕ":{"ha":856,"x_min":109,"x_max":830,"o":"m 708 0 l 400 428 q 341 426 372 426 q 217 431 283 426 l 217 0 l 109 0 l 109 1014 q 364 1038 239 1038 q 653 963 558 1038 q 748 735 748 888 q 688 545 749 619 q 508 443 627 472 l 830 0 l 708 0 m 340 514 q 570 567 498 514 q 642 734 642 620 q 578 898 642 846 q 370 950 513 950 q 217 938 290 950 l 217 519 q 340 514 292 514 m 361 1117 l 468 1313 l 583 1313 l 457 1117 l 361 1117 z "},"Ř":{"ha":856,"x_min":109,"x_max":830,"o":"m 708 0 l 400 428 q 341 426 372 426 q 217 431 283 426 l 217 0 l 109 0 l 109 1014 q 364 1038 239 1038 q 653 963 558 1038 q 748 735 748 888 q 688 545 749 619 q 508 443 627 472 l 830 0 l 708 0 m 340 514 q 570 567 498 514 q 642 734 642 620 q 578 898 642 846 q 370 950 513 950 q 217 938 290 950 l 217 519 q 340 514 292 514 m 523 1313 l 615 1313 l 460 1117 l 359 1117 l 205 1313 l 296 1313 l 410 1165 l 523 1313 z "},"Ŗ":{"ha":856,"x_min":109,"x_max":830,"o":"m 708 0 l 400 428 q 341 426 372 426 q 217 431 283 426 l 217 0 l 109 0 l 109 1014 q 364 1038 239 1038 q 653 963 558 1038 q 748 735 748 888 q 688 545 749 619 q 508 443 627 472 l 830 0 l 708 0 m 340 514 q 570 567 498 514 q 642 734 642 620 q 578 898 642 846 q 370 950 513 950 q 217 938 290 950 l 217 519 q 340 514 292 514 m 449 -114 q 504 -133 485 -114 q 523 -189 523 -152 q 513 -255 523 -219 q 484 -323 502 -292 l 416 -323 q 444 -226 440 -267 q 397 -209 413 -224 q 380 -169 380 -194 q 398 -129 380 -144 q 449 -114 416 -114 z "},"Ȑ":{"ha":856,"x_min":109,"x_max":830,"o":"m 708 0 l 400 428 q 341 426 372 426 q 217 431 283 426 l 217 0 l 109 0 l 109 1014 q 364 1038 239 1038 q 653 963 558 1038 q 748 735 748 888 q 688 545 749 619 q 508 443 627 472 l 830 0 l 708 0 m 340 514 q 570 567 498 514 q 642 734 642 620 q 578 898 642 846 q 370 950 513 950 q 217 938 290 950 l 217 519 q 340 514 292 514 m 259 1117 l 175 1313 l 266 1313 l 342 1117 l 259 1117 m 477 1117 l 393 1313 l 484 1313 l 560 1117 l 477 1117 z "},"Ṛ":{"ha":856,"x_min":109,"x_max":830,"o":"m 708 0 l 400 428 q 341 426 372 426 q 217 431 283 426 l 217 0 l 109 0 l 109 1014 q 364 1038 239 1038 q 653 963 558 1038 q 748 735 748 888 q 688 545 749 619 q 508 443 627 472 l 830 0 l 708 0 m 340 514 q 570 567 498 514 q 642 734 642 620 q 578 898 642 846 q 370 950 513 950 q 217 938 290 950 l 217 519 q 340 514 292 514 m 451 -242 q 395 -225 415 -242 q 376 -178 376 -208 q 396 -131 376 -149 q 451 -114 416 -114 q 507 -131 487 -114 q 527 -178 527 -149 q 507 -225 527 -208 q 451 -242 487 -242 z "},"Ȓ":{"ha":856,"x_min":109,"x_max":830,"o":"m 708 0 l 400 428 q 341 426 372 426 q 217 431 283 426 l 217 0 l 109 0 l 109 1014 q 364 1038 239 1038 q 653 963 558 1038 q 748 735 748 888 q 688 545 749 619 q 508 443 627 472 l 830 0 l 708 0 m 340 514 q 570 567 498 514 q 642 734 642 620 q 578 898 642 846 q 370 950 513 950 q 217 938 290 950 l 217 519 q 340 514 292 514 m 203 1132 q 263 1262 211 1217 q 408 1307 314 1307 q 556 1261 503 1307 q 616 1132 608 1216 l 543 1132 q 504 1216 535 1190 q 408 1243 472 1243 q 314 1216 344 1243 q 276 1132 283 1190 l 203 1132 z "},"Ṟ":{"ha":856,"x_min":109,"x_max":830,"o":"m 708 0 l 400 428 q 341 426 372 426 q 217 431 283 426 l 217 0 l 109 0 l 109 1014 q 364 1038 239 1038 q 653 963 558 1038 q 748 735 748 888 q 688 545 749 619 q 508 443 627 472 l 830 0 l 708 0 m 340 514 q 570 567 498 514 q 642 734 642 620 q 578 898 642 846 q 370 950 513 950 q 217 938 290 950 l 217 519 q 340 514 292 514 m 250 -213 l 250 -140 l 652 -140 l 652 -213 l 250 -213 z "},"S":{"ha":686,"x_min":46,"x_max":641,"o":"m 294 -12 q 176 -3 237 -12 q 61 26 115 7 l 61 121 q 180 91 119 101 q 297 81 240 81 q 529 269 529 81 q 511 358 529 322 q 452 418 492 393 q 341 465 411 443 l 289 480 q 106 584 167 516 q 46 759 46 651 q 135 967 46 893 q 394 1040 224 1040 q 502 1033 448 1040 q 597 1013 556 1026 l 597 917 q 397 947 505 947 q 157 765 157 947 q 174 680 157 715 q 230 621 192 646 q 334 576 268 597 l 385 561 q 578 455 516 523 q 641 276 641 386 q 600 120 641 185 q 482 22 560 56 q 294 -12 404 -12 z "},"Ś":{"ha":686,"x_min":46,"x_max":641,"o":"m 294 -12 q 176 -3 237 -12 q 61 26 115 7 l 61 121 q 180 91 119 101 q 297 81 240 81 q 529 269 529 81 q 511 358 529 322 q 452 418 492 393 q 341 465 411 443 l 289 480 q 106 584 167 516 q 46 759 46 651 q 135 967 46 893 q 394 1040 224 1040 q 502 1033 448 1040 q 597 1013 556 1026 l 597 917 q 397 947 505 947 q 157 765 157 947 q 174 680 157 715 q 230 621 192 646 q 334 576 268 597 l 385 561 q 578 455 516 523 q 641 276 641 386 q 600 120 641 185 q 482 22 560 56 q 294 -12 404 -12 m 301 1117 l 408 1313 l 523 1313 l 397 1117 l 301 1117 z "},"Ṥ":{"ha":686,"x_min":46,"x_max":641,"o":"m 294 -12 q 176 -3 237 -12 q 61 26 115 7 l 61 121 q 180 91 119 101 q 297 81 240 81 q 529 269 529 81 q 511 358 529 322 q 452 418 492 393 q 341 465 411 443 l 289 480 q 106 584 167 516 q 46 759 46 651 q 135 967 46 893 q 394 1040 224 1040 q 502 1033 448 1040 q 597 1013 556 1026 l 597 917 q 397 947 505 947 q 157 765 157 947 q 174 680 157 715 q 230 621 192 646 q 334 576 268 597 l 385 561 q 578 455 516 523 q 641 276 641 386 q 600 120 641 185 q 482 22 560 56 q 294 -12 404 -12 m 276 1285 q 227 1301 245 1285 q 209 1343 209 1317 q 227 1385 209 1369 q 276 1401 245 1401 q 325 1386 308 1401 q 343 1343 343 1370 q 325 1301 343 1317 q 276 1285 308 1285 m 301 1117 l 408 1313 l 523 1313 l 397 1117 l 301 1117 z "},"Š":{"ha":686,"x_min":46,"x_max":641,"o":"m 294 -12 q 176 -3 237 -12 q 61 26 115 7 l 61 121 q 180 91 119 101 q 297 81 240 81 q 529 269 529 81 q 511 358 529 322 q 452 418 492 393 q 341 465 411 443 l 289 480 q 106 584 167 516 q 46 759 46 651 q 135 967 46 893 q 394 1040 224 1040 q 502 1033 448 1040 q 597 1013 556 1026 l 597 917 q 397 947 505 947 q 157 765 157 947 q 174 680 157 715 q 230 621 192 646 q 334 576 268 597 l 385 561 q 578 455 516 523 q 641 276 641 386 q 600 120 641 185 q 482 22 560 56 q 294 -12 404 -12 m 463 1313 l 554 1313 l 399 1117 l 299 1117 l 144 1313 l 235 1313 l 349 1165 l 463 1313 z "},"Ṧ":{"ha":686,"x_min":46,"x_max":641,"o":"m 294 -12 q 176 -3 237 -12 q 61 26 115 7 l 61 121 q 180 91 119 101 q 297 81 240 81 q 529 269 529 81 q 511 358 529 322 q 452 418 492 393 q 341 465 411 443 l 289 480 q 106 584 167 516 q 46 759 46 651 q 135 967 46 893 q 394 1040 224 1040 q 502 1033 448 1040 q 597 1013 556 1026 l 597 917 q 397 947 505 947 q 157 765 157 947 q 174 680 157 715 q 230 621 192 646 q 334 576 268 597 l 385 561 q 578 455 516 523 q 641 276 641 386 q 600 120 641 185 q 482 22 560 56 q 294 -12 404 -12 m 349 1320 q 300 1336 318 1320 q 282 1378 282 1351 q 300 1420 282 1405 q 349 1436 318 1436 q 398 1420 381 1436 q 416 1378 416 1405 q 398 1336 416 1351 q 349 1320 381 1320 m 463 1313 l 554 1313 l 399 1117 l 299 1117 l 144 1313 l 235 1313 l 349 1165 l 463 1313 z "},"Ş":{"ha":686,"x_min":46,"x_max":641,"o":"m 641 276 q 572 84 641 157 q 376 -7 503 10 l 376 -71 q 463 -104 432 -76 q 494 -178 494 -131 q 456 -260 494 -231 q 347 -288 417 -288 q 218 -263 276 -288 l 218 -208 q 343 -235 281 -235 q 428 -176 428 -235 q 342 -117 428 -117 l 313 -117 l 313 -12 l 294 -12 q 176 -3 237 -12 q 61 26 115 7 l 61 121 q 180 91 119 101 q 297 81 240 81 q 529 269 529 81 q 511 358 529 322 q 452 418 492 393 q 341 465 411 443 l 289 480 q 106 584 167 516 q 46 759 46 651 q 135 967 46 893 q 394 1040 224 1040 q 502 1033 448 1040 q 597 1013 556 1026 l 597 917 q 397 947 505 947 q 157 765 157 947 q 174 680 157 715 q 230 621 192 646 q 334 576 268 597 l 385 561 q 578 455 516 523 q 641 276 641 386 z "},"Ŝ":{"ha":686,"x_min":46,"x_max":641,"o":"m 294 -12 q 176 -3 237 -12 q 61 26 115 7 l 61 121 q 180 91 119 101 q 297 81 240 81 q 529 269 529 81 q 511 358 529 322 q 452 418 492 393 q 341 465 411 443 l 289 480 q 106 584 167 516 q 46 759 46 651 q 135 967 46 893 q 394 1040 224 1040 q 502 1033 448 1040 q 597 1013 556 1026 l 597 917 q 397 947 505 947 q 157 765 157 947 q 174 680 157 715 q 230 621 192 646 q 334 576 268 597 l 385 561 q 578 455 516 523 q 641 276 641 386 q 600 120 641 185 q 482 22 560 56 q 294 -12 404 -12 m 554 1117 l 463 1117 l 349 1266 l 235 1117 l 144 1117 l 299 1313 l 399 1313 l 554 1117 z "},"Ș":{"ha":686,"x_min":46,"x_max":641,"o":"m 294 -12 q 176 -3 237 -12 q 61 26 115 7 l 61 121 q 180 91 119 101 q 297 81 240 81 q 529 269 529 81 q 511 358 529 322 q 452 418 492 393 q 341 465 411 443 l 289 480 q 106 584 167 516 q 46 759 46 651 q 135 967 46 893 q 394 1040 224 1040 q 502 1033 448 1040 q 597 1013 556 1026 l 597 917 q 397 947 505 947 q 157 765 157 947 q 174 680 157 715 q 230 621 192 646 q 334 576 268 597 l 385 561 q 578 455 516 523 q 641 276 641 386 q 600 120 641 185 q 482 22 560 56 q 294 -12 404 -12 m 347 -114 q 402 -133 383 -114 q 421 -189 421 -152 q 410 -255 421 -219 q 382 -323 400 -292 l 314 -323 q 342 -226 338 -267 q 294 -209 311 -224 q 278 -169 278 -194 q 296 -129 278 -144 q 347 -114 314 -114 z "},"Ṡ":{"ha":686,"x_min":46,"x_max":641,"o":"m 294 -12 q 176 -3 237 -12 q 61 26 115 7 l 61 121 q 180 91 119 101 q 297 81 240 81 q 529 269 529 81 q 511 358 529 322 q 452 418 492 393 q 341 465 411 443 l 289 480 q 106 584 167 516 q 46 759 46 651 q 135 967 46 893 q 394 1040 224 1040 q 502 1033 448 1040 q 597 1013 556 1026 l 597 917 q 397 947 505 947 q 157 765 157 947 q 174 680 157 715 q 230 621 192 646 q 334 576 268 597 l 385 561 q 578 455 516 523 q 641 276 641 386 q 600 120 641 185 q 482 22 560 56 q 294 -12 404 -12 m 349 1153 q 293 1169 313 1153 q 274 1217 274 1186 q 294 1264 274 1247 q 349 1281 314 1281 q 405 1264 385 1281 q 425 1217 425 1247 q 405 1170 425 1187 q 349 1153 385 1153 z "},"Ṣ":{"ha":686,"x_min":46,"x_max":641,"o":"m 294 -12 q 176 -3 237 -12 q 61 26 115 7 l 61 121 q 180 91 119 101 q 297 81 240 81 q 529 269 529 81 q 511 358 529 322 q 452 418 492 393 q 341 465 411 443 l 289 480 q 106 584 167 516 q 46 759 46 651 q 135 967 46 893 q 394 1040 224 1040 q 502 1033 448 1040 q 597 1013 556 1026 l 597 917 q 397 947 505 947 q 157 765 157 947 q 174 680 157 715 q 230 621 192 646 q 334 576 268 597 l 385 561 q 578 455 516 523 q 641 276 641 386 q 600 120 641 185 q 482 22 560 56 q 294 -12 404 -12 m 349 -242 q 293 -225 313 -242 q 274 -178 274 -208 q 294 -131 274 -149 q 349 -114 314 -114 q 405 -131 385 -114 q 425 -178 425 -149 q 405 -225 425 -208 q 349 -242 385 -242 z "},"Ṩ":{"ha":686,"x_min":46,"x_max":641,"o":"m 294 -12 q 176 -3 237 -12 q 61 26 115 7 l 61 121 q 180 91 119 101 q 297 81 240 81 q 529 269 529 81 q 511 358 529 322 q 452 418 492 393 q 341 465 411 443 l 289 480 q 106 584 167 516 q 46 759 46 651 q 135 967 46 893 q 394 1040 224 1040 q 502 1033 448 1040 q 597 1013 556 1026 l 597 917 q 397 947 505 947 q 157 765 157 947 q 174 680 157 715 q 230 621 192 646 q 334 576 268 597 l 385 561 q 578 455 516 523 q 641 276 641 386 q 600 120 641 185 q 482 22 560 56 q 294 -12 404 -12 m 349 -242 q 293 -225 313 -242 q 274 -178 274 -208 q 294 -131 274 -149 q 349 -114 314 -114 q 405 -131 385 -114 q 425 -178 425 -149 q 405 -225 425 -208 q 349 -242 385 -242 m 349 1153 q 293 1169 313 1153 q 274 1217 274 1186 q 294 1264 274 1247 q 349 1281 314 1281 q 405 1264 385 1281 q 425 1217 425 1247 q 405 1170 425 1187 q 349 1153 385 1153 z "},"ẞ":{"ha":1097,"x_min":109,"x_max":1051,"o":"m 799 561 q 990 455 928 523 q 1051 276 1051 387 q 1011 120 1051 185 q 894 21 971 55 q 708 -12 817 -12 q 593 -3 653 -12 q 480 25 533 7 l 480 120 q 597 91 538 101 q 709 81 656 81 q 941 269 941 81 q 923 358 941 322 q 864 418 904 393 q 756 465 824 444 l 705 480 q 524 584 584 516 q 465 759 465 651 q 526 941 465 870 q 458 947 494 947 q 276 882 333 947 q 219 679 219 817 l 219 0 l 109 0 l 109 665 q 194 948 109 855 q 458 1040 279 1040 q 628 1010 556 1040 q 810 1040 705 1040 q 915 1033 863 1040 q 1008 1014 968 1026 l 1008 919 q 814 947 918 947 q 634 900 692 947 q 575 765 575 853 q 592 680 575 715 q 647 620 609 645 q 749 576 684 596 l 799 561 z "},"Ə":{"ha":922,"x_min":60,"x_max":856,"o":"m 373 1040 q 639 986 533 1040 q 801 816 746 933 q 856 510 856 699 q 751 114 856 241 q 458 -12 647 -12 q 164 114 267 -12 q 60 510 60 240 l 60 556 l 744 556 q 695 789 739 703 q 571 911 652 874 q 364 947 490 947 q 237 940 302 947 q 115 917 172 933 l 115 1011 q 373 1040 233 1040 m 459 78 q 609 115 548 78 q 706 238 671 152 q 744 469 740 324 l 174 469 q 211 239 178 324 q 306 116 245 153 q 459 78 367 78 z "},"T":{"ha":769,"x_min":8,"x_max":761,"o":"m 329 0 l 329 932 l 8 932 l 8 1028 l 761 1028 l 761 932 l 439 932 l 439 0 l 329 0 z "},"Ŧ":{"ha":769,"x_min":8,"x_max":761,"o":"m 761 932 l 439 932 l 439 577 l 651 577 l 651 499 l 439 499 l 439 0 l 329 0 l 329 499 l 117 499 l 117 577 l 329 577 l 329 932 l 8 932 l 8 1028 l 761 1028 l 761 932 z "},"Ť":{"ha":769,"x_min":8,"x_max":761,"o":"m 329 0 l 329 932 l 8 932 l 8 1028 l 761 1028 l 761 932 l 439 932 l 439 0 l 329 0 m 497 1313 l 589 1313 l 434 1117 l 333 1117 l 179 1313 l 270 1313 l 384 1165 l 497 1313 z "},"Ţ":{"ha":769,"x_min":8,"x_max":761,"o":"m 410 0 l 410 -71 q 498 -104 467 -76 q 529 -178 529 -131 q 490 -260 529 -231 q 381 -288 451 -288 q 253 -263 311 -288 l 253 -208 q 378 -235 316 -235 q 463 -176 463 -235 q 376 -117 463 -117 l 348 -117 l 348 0 l 329 0 l 329 932 l 8 932 l 8 1028 l 761 1028 l 761 932 l 439 932 l 439 0 l 410 0 z "},"Ț":{"ha":769,"x_min":8,"x_max":761,"o":"m 329 0 l 329 932 l 8 932 l 8 1028 l 761 1028 l 761 932 l 439 932 l 439 0 l 329 0 m 382 -114 q 437 -133 418 -114 q 456 -189 456 -152 q 445 -255 456 -219 q 417 -323 435 -292 l 349 -323 q 377 -226 373 -267 q 329 -209 346 -224 q 313 -169 313 -194 q 331 -129 313 -144 q 382 -114 349 -114 z "},"Ṭ":{"ha":769,"x_min":8,"x_max":761,"o":"m 329 0 l 329 932 l 8 932 l 8 1028 l 761 1028 l 761 932 l 439 932 l 439 0 l 329 0 m 384 -242 q 328 -225 348 -242 q 308 -178 308 -208 q 328 -131 308 -149 q 384 -114 349 -114 q 440 -131 419 -114 q 460 -178 460 -149 q 440 -225 460 -208 q 384 -242 419 -242 z "},"Ṯ":{"ha":769,"x_min":8,"x_max":761,"o":"m 329 0 l 329 932 l 8 932 l 8 1028 l 761 1028 l 761 932 l 439 932 l 439 0 l 329 0 m 183 -213 l 183 -140 l 585 -140 l 585 -213 l 183 -213 z "},"U":{"ha":922,"x_min":103,"x_max":818,"o":"m 463 -12 q 190 82 276 -12 q 103 375 103 176 l 103 1028 l 214 1028 l 214 363 q 273 150 214 217 q 463 82 333 82 q 652 150 592 82 q 711 363 711 217 l 711 1028 l 818 1028 l 818 375 q 781 156 818 242 q 665 29 743 71 q 463 -12 586 -12 z "},"Ú":{"ha":922,"x_min":103,"x_max":818,"o":"m 463 -12 q 190 82 276 -12 q 103 375 103 176 l 103 1028 l 214 1028 l 214 363 q 273 150 214 217 q 463 82 333 82 q 652 150 592 82 q 711 363 711 217 l 711 1028 l 818 1028 l 818 375 q 781 156 818 242 q 665 29 743 71 q 463 -12 586 -12 m 414 1117 l 521 1313 l 636 1313 l 510 1117 l 414 1117 z "},"Ŭ":{"ha":922,"x_min":103,"x_max":818,"o":"m 463 -12 q 190 82 276 -12 q 103 375 103 176 l 103 1028 l 214 1028 l 214 363 q 273 150 214 217 q 463 82 333 82 q 652 150 592 82 q 711 363 711 217 l 711 1028 l 818 1028 l 818 375 q 781 156 818 242 q 665 29 743 71 q 463 -12 586 -12 m 463 1124 q 316 1169 369 1124 q 256 1299 264 1215 l 329 1299 q 368 1214 337 1241 q 463 1188 399 1188 q 558 1214 527 1188 q 596 1299 589 1241 l 669 1299 q 609 1169 661 1214 q 463 1124 558 1124 z "},"Û":{"ha":922,"x_min":103,"x_max":818,"o":"m 463 -12 q 190 82 276 -12 q 103 375 103 176 l 103 1028 l 214 1028 l 214 363 q 273 150 214 217 q 463 82 333 82 q 652 150 592 82 q 711 363 711 217 l 711 1028 l 818 1028 l 818 375 q 781 156 818 242 q 665 29 743 71 q 463 -12 586 -12 m 667 1117 l 576 1117 l 463 1266 l 349 1117 l 258 1117 l 412 1313 l 513 1313 l 667 1117 z "},"Ȕ":{"ha":922,"x_min":103,"x_max":818,"o":"m 463 -12 q 190 82 276 -12 q 103 375 103 176 l 103 1028 l 214 1028 l 214 363 q 273 150 214 217 q 463 82 333 82 q 652 150 592 82 q 711 363 711 217 l 711 1028 l 818 1028 l 818 375 q 781 156 818 242 q 665 29 743 71 q 463 -12 586 -12 m 312 1117 l 228 1313 l 319 1313 l 394 1117 l 312 1117 m 530 1117 l 446 1313 l 537 1313 l 613 1117 l 530 1117 z "},"Ü":{"ha":922,"x_min":103,"x_max":818,"o":"m 463 -12 q 190 82 276 -12 q 103 375 103 176 l 103 1028 l 214 1028 l 214 363 q 273 150 214 217 q 463 82 333 82 q 652 150 592 82 q 711 363 711 217 l 711 1028 l 818 1028 l 818 375 q 781 156 818 242 q 665 29 743 71 q 463 -12 586 -12 m 314 1153 q 263 1170 281 1153 q 244 1217 244 1187 q 263 1264 244 1247 q 314 1281 281 1281 q 365 1264 347 1281 q 384 1217 384 1247 q 365 1170 384 1187 q 314 1153 347 1153 m 610 1153 q 559 1170 578 1153 q 541 1217 541 1187 q 559 1264 541 1247 q 610 1281 578 1281 q 662 1264 643 1281 q 681 1217 681 1247 q 662 1170 681 1187 q 610 1153 643 1153 z "},"Ụ":{"ha":922,"x_min":103,"x_max":818,"o":"m 463 -12 q 190 82 276 -12 q 103 375 103 176 l 103 1028 l 214 1028 l 214 363 q 273 150 214 217 q 463 82 333 82 q 652 150 592 82 q 711 363 711 217 l 711 1028 l 818 1028 l 818 375 q 781 156 818 242 q 665 29 743 71 q 463 -12 586 -12 m 463 -242 q 407 -225 426 -242 q 387 -178 387 -208 q 407 -131 387 -149 q 463 -114 427 -114 q 518 -131 498 -114 q 538 -178 538 -149 q 518 -225 538 -208 q 463 -242 498 -242 z "},"Ù":{"ha":922,"x_min":103,"x_max":818,"o":"m 463 -12 q 190 82 276 -12 q 103 375 103 176 l 103 1028 l 214 1028 l 214 363 q 273 150 214 217 q 463 82 333 82 q 652 150 592 82 q 711 363 711 217 l 711 1028 l 818 1028 l 818 375 q 781 156 818 242 q 665 29 743 71 q 463 -12 586 -12 m 414 1117 l 288 1313 l 403 1313 l 510 1117 l 414 1117 z "},"Ủ":{"ha":922,"x_min":103,"x_max":818,"o":"m 463 -12 q 190 82 276 -12 q 103 375 103 176 l 103 1028 l 214 1028 l 214 363 q 273 150 214 217 q 463 82 333 82 q 652 150 592 82 q 711 363 711 217 l 711 1028 l 818 1028 l 818 375 q 781 156 818 242 q 665 29 743 71 q 463 -12 586 -12 m 429 1117 q 440 1151 430 1138 q 462 1173 449 1165 q 496 1192 474 1181 q 529 1210 518 1201 q 540 1232 540 1218 q 522 1256 540 1248 q 462 1265 504 1265 q 332 1242 394 1265 l 332 1296 q 395 1312 358 1306 q 467 1318 431 1318 q 573 1297 538 1318 q 608 1238 608 1276 q 592 1195 608 1210 q 545 1165 576 1181 q 509 1143 521 1153 q 495 1117 497 1133 l 429 1117 z "},"Ư":{"ha":923,"x_min":103,"x_max":962,"o":"m 463 -12 q 190 82 276 -12 q 103 375 103 176 l 103 1028 l 214 1028 l 214 363 q 273 150 214 217 q 463 82 333 82 q 652 150 592 82 q 711 363 711 217 l 711 1028 l 751 1028 q 845 1053 812 1028 q 878 1135 878 1079 q 875 1183 878 1160 q 864 1233 872 1206 l 946 1233 q 958 1184 954 1208 q 962 1131 962 1160 q 923 1018 962 1060 q 818 968 884 976 l 818 375 q 781 156 818 242 q 665 29 743 71 q 463 -12 586 -12 z "},"Ứ":{"ha":923,"x_min":103,"x_max":962,"o":"m 463 -12 q 190 82 276 -12 q 103 375 103 176 l 103 1028 l 214 1028 l 214 363 q 273 150 214 217 q 463 82 333 82 q 652 150 592 82 q 711 363 711 217 l 711 1028 l 751 1028 q 845 1053 812 1028 q 878 1135 878 1079 q 875 1183 878 1160 q 864 1233 872 1206 l 946 1233 q 958 1184 954 1208 q 962 1131 962 1160 q 923 1018 962 1060 q 818 968 884 976 l 818 375 q 781 156 818 242 q 665 29 743 71 q 463 -12 586 -12 m 413 1117 l 520 1313 l 635 1313 l 509 1117 l 413 1117 z "},"Ự":{"ha":923,"x_min":103,"x_max":962,"o":"m 463 -12 q 190 82 276 -12 q 103 375 103 176 l 103 1028 l 214 1028 l 214 363 q 273 150 214 217 q 463 82 333 82 q 652 150 592 82 q 711 363 711 217 l 711 1028 l 751 1028 q 845 1053 812 1028 q 878 1135 878 1079 q 875 1183 878 1160 q 864 1233 872 1206 l 946 1233 q 958 1184 954 1208 q 962 1131 962 1160 q 923 1018 962 1060 q 818 968 884 976 l 818 375 q 781 156 818 242 q 665 29 743 71 q 463 -12 586 -12 m 462 -242 q 406 -225 426 -242 q 386 -178 386 -208 q 406 -131 386 -149 q 462 -114 426 -114 q 517 -131 497 -114 q 538 -178 538 -149 q 517 -225 538 -208 q 462 -242 497 -242 z "},"Ừ":{"ha":923,"x_min":103,"x_max":962,"o":"m 463 -12 q 190 82 276 -12 q 103 375 103 176 l 103 1028 l 214 1028 l 214 363 q 273 150 214 217 q 463 82 333 82 q 652 150 592 82 q 711 363 711 217 l 711 1028 l 751 1028 q 845 1053 812 1028 q 878 1135 878 1079 q 875 1183 878 1160 q 864 1233 872 1206 l 946 1233 q 958 1184 954 1208 q 962 1131 962 1160 q 923 1018 962 1060 q 818 968 884 976 l 818 375 q 781 156 818 242 q 665 29 743 71 q 463 -12 586 -12 m 413 1117 l 288 1313 l 403 1313 l 510 1117 l 413 1117 z "},"Ử":{"ha":923,"x_min":103,"x_max":962,"o":"m 463 -12 q 190 82 276 -12 q 103 375 103 176 l 103 1028 l 214 1028 l 214 363 q 273 150 214 217 q 463 82 333 82 q 652 150 592 82 q 711 363 711 217 l 711 1028 l 751 1028 q 845 1053 812 1028 q 878 1135 878 1079 q 875 1183 878 1160 q 864 1233 872 1206 l 946 1233 q 958 1184 954 1208 q 962 1131 962 1160 q 923 1018 962 1060 q 818 968 884 976 l 818 375 q 781 156 818 242 q 665 29 743 71 q 463 -12 586 -12 m 428 1117 q 439 1151 429 1138 q 461 1173 449 1165 q 495 1192 474 1181 q 528 1210 517 1201 q 539 1232 539 1218 q 521 1256 539 1248 q 461 1265 503 1265 q 331 1242 394 1265 l 331 1296 q 394 1312 358 1306 q 467 1318 431 1318 q 572 1297 537 1318 q 607 1238 607 1276 q 591 1195 607 1210 q 544 1165 576 1181 q 508 1143 520 1153 q 494 1117 497 1133 l 428 1117 z "},"Ữ":{"ha":923,"x_min":103,"x_max":962,"o":"m 463 -12 q 190 82 276 -12 q 103 375 103 176 l 103 1028 l 214 1028 l 214 363 q 273 150 214 217 q 463 82 333 82 q 652 150 592 82 q 711 363 711 217 l 711 1028 l 751 1028 q 845 1053 812 1028 q 878 1135 878 1079 q 875 1183 878 1160 q 864 1233 872 1206 l 946 1233 q 958 1184 954 1208 q 962 1131 962 1160 q 923 1018 962 1060 q 818 968 884 976 l 818 375 q 781 156 818 242 q 665 29 743 71 q 463 -12 586 -12 m 563 1159 q 510 1166 535 1159 q 451 1188 486 1174 q 401 1206 422 1200 q 359 1213 381 1213 q 299 1200 325 1213 q 247 1163 272 1188 l 247 1238 q 360 1283 289 1283 q 413 1276 388 1283 q 472 1255 437 1269 q 523 1235 502 1242 q 565 1229 543 1229 q 624 1241 598 1229 q 676 1279 651 1253 l 676 1204 q 563 1159 634 1159 z "},"Ű":{"ha":922,"x_min":103,"x_max":818,"o":"m 463 -12 q 190 82 276 -12 q 103 375 103 176 l 103 1028 l 214 1028 l 214 363 q 273 150 214 217 q 463 82 333 82 q 652 150 592 82 q 711 363 711 217 l 711 1028 l 818 1028 l 818 375 q 781 156 818 242 q 665 29 743 71 q 463 -12 586 -12 m 312 1117 l 388 1313 l 478 1313 l 394 1117 l 312 1117 m 530 1117 l 606 1313 l 697 1313 l 613 1117 l 530 1117 z "},"Ȗ":{"ha":922,"x_min":103,"x_max":818,"o":"m 463 -12 q 190 82 276 -12 q 103 375 103 176 l 103 1028 l 214 1028 l 214 363 q 273 150 214 217 q 463 82 333 82 q 652 150 592 82 q 711 363 711 217 l 711 1028 l 818 1028 l 818 375 q 781 156 818 242 q 665 29 743 71 q 463 -12 586 -12 m 256 1132 q 315 1262 264 1217 q 461 1307 367 1307 q 608 1261 556 1307 q 669 1132 661 1216 l 596 1132 q 557 1216 588 1190 q 461 1243 525 1243 q 366 1216 397 1243 q 329 1132 335 1190 l 256 1132 z "},"Ū":{"ha":922,"x_min":103,"x_max":818,"o":"m 463 -12 q 190 82 276 -12 q 103 375 103 176 l 103 1028 l 214 1028 l 214 363 q 273 150 214 217 q 463 82 333 82 q 652 150 592 82 q 711 363 711 217 l 711 1028 l 818 1028 l 818 375 q 781 156 818 242 q 665 29 743 71 q 463 -12 586 -12 m 261 1179 l 261 1253 l 663 1253 l 663 1179 l 261 1179 z "},"Ṻ":{"ha":922,"x_min":103,"x_max":818,"o":"m 463 -12 q 190 82 276 -12 q 103 375 103 176 l 103 1028 l 214 1028 l 214 363 q 273 150 214 217 q 463 82 333 82 q 652 150 592 82 q 711 363 711 217 l 711 1028 l 818 1028 l 818 375 q 781 156 818 242 q 665 29 743 71 q 463 -12 586 -12 m 261 1179 l 261 1253 l 663 1253 l 663 1179 l 261 1179 m 314 1341 q 263 1358 281 1341 q 244 1405 244 1375 q 263 1452 244 1435 q 314 1469 281 1469 q 365 1452 347 1469 q 384 1405 384 1435 q 365 1358 384 1375 q 314 1341 347 1341 m 610 1341 q 559 1358 578 1341 q 541 1405 541 1375 q 559 1452 541 1435 q 610 1469 578 1469 q 662 1452 643 1469 q 681 1405 681 1435 q 662 1358 681 1375 q 610 1341 643 1341 z "},"Ų":{"ha":922,"x_min":103,"x_max":818,"o":"m 818 1028 l 818 375 q 769 133 818 226 q 610 6 720 41 q 473 -66 512 -25 q 433 -154 433 -107 q 532 -233 433 -233 q 636 -208 577 -233 l 636 -262 q 522 -287 581 -287 q 404 -255 444 -287 q 363 -160 363 -222 q 455 -12 363 -70 q 188 84 273 -10 q 103 375 103 178 l 103 1028 l 214 1028 l 214 363 q 273 150 214 217 q 463 82 333 82 q 652 150 592 82 q 711 363 711 217 l 711 1028 l 818 1028 z "},"Ů":{"ha":922,"x_min":103,"x_max":818,"o":"m 463 -12 q 190 82 276 -12 q 103 375 103 176 l 103 1028 l 214 1028 l 214 363 q 273 150 214 217 q 463 82 333 82 q 652 150 592 82 q 711 363 711 217 l 711 1028 l 818 1028 l 818 375 q 781 156 818 242 q 665 29 743 71 q 463 -12 586 -12 m 463 1111 q 393 1128 424 1111 q 344 1176 362 1146 q 327 1245 327 1207 q 344 1314 327 1283 q 393 1362 362 1344 q 463 1379 424 1379 q 532 1362 501 1379 q 580 1314 563 1344 q 598 1245 598 1283 q 580 1176 598 1207 q 532 1128 563 1146 q 463 1111 501 1111 m 463 1163 q 521 1185 499 1163 q 544 1245 544 1207 q 521 1306 544 1283 q 463 1328 499 1328 q 404 1306 426 1328 q 381 1245 381 1283 q 404 1185 381 1207 q 463 1163 426 1163 z "},"Ũ":{"ha":922,"x_min":103,"x_max":818,"o":"m 463 -12 q 190 82 276 -12 q 103 375 103 176 l 103 1028 l 214 1028 l 214 363 q 273 150 214 217 q 463 82 333 82 q 652 150 592 82 q 711 363 711 217 l 711 1028 l 818 1028 l 818 375 q 781 156 818 242 q 665 29 743 71 q 463 -12 586 -12 m 564 1159 q 511 1166 535 1159 q 452 1188 487 1174 q 402 1206 422 1200 q 360 1213 381 1213 q 299 1200 326 1213 q 248 1163 273 1188 l 248 1238 q 361 1283 290 1283 q 413 1276 389 1283 q 472 1255 438 1269 q 523 1235 503 1242 q 565 1229 544 1229 q 625 1241 599 1229 q 676 1279 651 1253 l 676 1204 q 564 1159 635 1159 z "},"Ṹ":{"ha":922,"x_min":103,"x_max":818,"o":"m 463 -12 q 190 82 276 -12 q 103 375 103 176 l 103 1028 l 214 1028 l 214 363 q 273 150 214 217 q 463 82 333 82 q 652 150 592 82 q 711 363 711 217 l 711 1028 l 818 1028 l 818 375 q 781 156 818 242 q 665 29 743 71 q 463 -12 586 -12 m 410 1326 l 517 1487 l 640 1487 l 515 1326 l 410 1326 m 564 1159 q 511 1166 535 1159 q 452 1188 487 1174 q 402 1206 422 1200 q 360 1213 381 1213 q 299 1200 326 1213 q 248 1163 273 1188 l 248 1238 q 361 1283 290 1283 q 413 1276 389 1283 q 472 1255 438 1269 q 523 1235 503 1242 q 565 1229 544 1229 q 625 1241 599 1229 q 676 1279 651 1253 l 676 1204 q 564 1159 635 1159 z "},"V":{"ha":858,"x_min":6,"x_max":853,"o":"m 744 1028 l 853 1028 l 509 0 l 349 0 l 6 1028 l 122 1028 l 432 88 l 744 1028 z "},"W":{"ha":1378,"x_min":34,"x_max":1344,"o":"m 1239 1028 l 1344 1028 l 1074 0 l 930 0 l 691 906 l 449 0 l 305 0 l 34 1028 l 147 1028 l 383 104 l 627 1028 l 757 1028 l 999 101 l 1239 1028 z "},"Ẃ":{"ha":1378,"x_min":34,"x_max":1344,"o":"m 1239 1028 l 1344 1028 l 1074 0 l 930 0 l 691 906 l 449 0 l 305 0 l 34 1028 l 147 1028 l 383 104 l 627 1028 l 757 1028 l 999 101 l 1239 1028 m 642 1117 l 749 1313 l 864 1313 l 738 1117 l 642 1117 z "},"Ŵ":{"ha":1378,"x_min":34,"x_max":1344,"o":"m 1239 1028 l 1344 1028 l 1074 0 l 930 0 l 691 906 l 449 0 l 305 0 l 34 1028 l 147 1028 l 383 104 l 627 1028 l 757 1028 l 999 101 l 1239 1028 m 895 1117 l 803 1117 l 690 1266 l 576 1117 l 485 1117 l 640 1313 l 740 1313 l 895 1117 z "},"Ẅ":{"ha":1378,"x_min":34,"x_max":1344,"o":"m 1239 1028 l 1344 1028 l 1074 0 l 930 0 l 691 906 l 449 0 l 305 0 l 34 1028 l 147 1028 l 383 104 l 627 1028 l 757 1028 l 999 101 l 1239 1028 m 542 1153 q 490 1170 509 1153 q 472 1217 472 1187 q 490 1264 472 1247 q 542 1281 509 1281 q 593 1264 574 1281 q 612 1217 612 1247 q 593 1170 612 1187 q 542 1153 574 1153 m 838 1153 q 787 1170 806 1153 q 769 1217 769 1187 q 787 1264 769 1247 q 838 1281 806 1281 q 890 1264 871 1281 q 908 1217 908 1247 q 890 1170 908 1187 q 838 1153 871 1153 z "},"Ẁ":{"ha":1378,"x_min":34,"x_max":1344,"o":"m 1239 1028 l 1344 1028 l 1074 0 l 930 0 l 691 906 l 449 0 l 305 0 l 34 1028 l 147 1028 l 383 104 l 627 1028 l 757 1028 l 999 101 l 1239 1028 m 642 1117 l 516 1313 l 631 1313 l 738 1117 l 642 1117 z "},"X":{"ha":835,"x_min":7,"x_max":828,"o":"m 482 525 l 828 0 l 703 0 l 417 438 l 130 0 l 7 0 l 353 524 l 20 1028 l 144 1028 l 418 610 l 691 1028 l 813 1028 l 482 525 z "},"Y":{"ha":769,"x_min":-22,"x_max":785,"o":"m 785 1028 l 440 459 l 440 0 l 330 0 l 330 458 l -22 1028 l 97 1028 l 386 557 l 672 1028 l 785 1028 z "},"Ý":{"ha":769,"x_min":-22,"x_max":785,"o":"m 785 1028 l 440 459 l 440 0 l 330 0 l 330 458 l -22 1028 l 97 1028 l 386 557 l 672 1028 l 785 1028 m 335 1117 l 442 1313 l 558 1313 l 431 1117 l 335 1117 z "},"Ŷ":{"ha":769,"x_min":-22,"x_max":785,"o":"m 785 1028 l 440 459 l 440 0 l 330 0 l 330 458 l -22 1028 l 97 1028 l 386 557 l 672 1028 l 785 1028 m 589 1117 l 497 1117 l 384 1266 l 270 1117 l 179 1117 l 333 1313 l 434 1313 l 589 1117 z "},"Ÿ":{"ha":769,"x_min":-22,"x_max":785,"o":"m 785 1028 l 440 459 l 440 0 l 330 0 l 330 458 l -22 1028 l 97 1028 l 386 557 l 672 1028 l 785 1028 m 235 1153 q 184 1170 203 1153 q 165 1217 165 1187 q 184 1264 165 1247 q 235 1281 203 1281 q 287 1264 268 1281 q 306 1217 306 1247 q 287 1170 306 1187 q 235 1153 268 1153 m 532 1153 q 481 1170 499 1153 q 463 1217 463 1187 q 481 1264 463 1247 q 532 1281 499 1281 q 583 1264 565 1281 q 602 1217 602 1247 q 583 1170 602 1187 q 532 1153 565 1153 z "},"Ẏ":{"ha":769,"x_min":-22,"x_max":785,"o":"m 785 1028 l 440 459 l 440 0 l 330 0 l 330 458 l -22 1028 l 97 1028 l 386 557 l 672 1028 l 785 1028 m 384 1153 q 328 1169 348 1153 q 308 1217 308 1186 q 328 1264 308 1247 q 384 1281 349 1281 q 440 1264 419 1281 q 460 1217 460 1247 q 440 1170 460 1187 q 384 1153 419 1153 z "},"Ỵ":{"ha":769,"x_min":-22,"x_max":785,"o":"m 785 1028 l 440 459 l 440 0 l 330 0 l 330 458 l -22 1028 l 97 1028 l 386 557 l 672 1028 l 785 1028 m 384 -242 q 328 -225 348 -242 q 308 -178 308 -208 q 328 -131 308 -149 q 384 -114 349 -114 q 440 -131 419 -114 q 460 -178 460 -149 q 440 -225 460 -208 q 384 -242 419 -242 z "},"Ỳ":{"ha":769,"x_min":-22,"x_max":785,"o":"m 785 1028 l 440 459 l 440 0 l 330 0 l 330 458 l -22 1028 l 97 1028 l 386 557 l 672 1028 l 785 1028 m 335 1117 l 210 1313 l 325 1313 l 432 1117 l 335 1117 z "},"Ỷ":{"ha":769,"x_min":-22,"x_max":785,"o":"m 785 1028 l 440 459 l 440 0 l 330 0 l 330 458 l -22 1028 l 97 1028 l 386 557 l 672 1028 l 785 1028 m 351 1117 q 361 1151 351 1138 q 383 1173 371 1165 q 417 1192 396 1181 q 450 1210 440 1201 q 461 1232 461 1218 q 443 1256 461 1248 q 383 1265 426 1265 q 253 1242 316 1265 l 253 1296 q 316 1312 280 1306 q 389 1318 353 1318 q 494 1297 459 1318 q 529 1238 529 1276 q 514 1195 529 1210 q 467 1165 498 1181 q 431 1143 442 1153 q 417 1117 419 1133 l 351 1117 z "},"Ȳ":{"ha":769,"x_min":-22,"x_max":785,"o":"m 785 1028 l 440 459 l 440 0 l 330 0 l 330 458 l -22 1028 l 97 1028 l 386 557 l 672 1028 l 785 1028 m 183 1179 l 183 1253 l 585 1253 l 585 1179 l 183 1179 z "},"Ỹ":{"ha":769,"x_min":-22,"x_max":785,"o":"m 785 1028 l 440 459 l 440 0 l 330 0 l 330 458 l -22 1028 l 97 1028 l 386 557 l 672 1028 l 785 1028 m 485 1159 q 433 1166 457 1159 q 374 1188 408 1174 q 323 1206 344 1200 q 281 1213 303 1213 q 221 1200 247 1213 q 169 1163 194 1188 l 169 1238 q 283 1283 211 1283 q 335 1276 310 1283 q 394 1255 359 1269 q 445 1235 424 1242 q 487 1229 465 1229 q 547 1241 520 1229 q 598 1279 573 1253 l 598 1204 q 485 1159 556 1159 z "},"Z":{"ha":746,"x_min":40,"x_max":706,"o":"m 183 95 l 706 95 l 706 0 l 40 0 l 40 62 l 556 933 l 47 933 l 47 1028 l 699 1028 l 699 966 l 183 95 z "},"Ź":{"ha":746,"x_min":40,"x_max":706,"o":"m 183 95 l 706 95 l 706 0 l 40 0 l 40 62 l 556 933 l 47 933 l 47 1028 l 699 1028 l 699 966 l 183 95 m 325 1117 l 432 1313 l 547 1313 l 421 1117 l 325 1117 z "},"Ž":{"ha":746,"x_min":40,"x_max":706,"o":"m 183 95 l 706 95 l 706 0 l 40 0 l 40 62 l 556 933 l 47 933 l 47 1028 l 699 1028 l 699 966 l 183 95 m 487 1313 l 578 1313 l 424 1117 l 323 1117 l 169 1313 l 260 1313 l 374 1165 l 487 1313 z "},"Ż":{"ha":746,"x_min":40,"x_max":706,"o":"m 183 95 l 706 95 l 706 0 l 40 0 l 40 62 l 556 933 l 47 933 l 47 1028 l 699 1028 l 699 966 l 183 95 m 374 1153 q 318 1169 338 1153 q 298 1217 298 1186 q 318 1264 298 1247 q 374 1281 338 1281 q 429 1264 409 1281 q 449 1217 449 1247 q 429 1170 449 1187 q 374 1153 409 1153 z "},"Ẓ":{"ha":746,"x_min":40,"x_max":706,"o":"m 183 95 l 706 95 l 706 0 l 40 0 l 40 62 l 556 933 l 47 933 l 47 1028 l 699 1028 l 699 966 l 183 95 m 373 -242 q 317 -225 337 -242 q 297 -178 297 -208 q 317 -131 297 -149 q 373 -114 338 -114 q 428 -131 408 -114 q 449 -178 449 -149 q 428 -225 449 -208 q 373 -242 408 -242 z "},"a":{"ha":669,"x_min":55,"x_max":580,"o":"m 306 765 q 459 739 399 765 q 550 656 519 714 q 580 498 580 597 l 580 0 l 489 0 l 481 83 l 474 83 q 388 12 440 36 q 272 -12 335 -12 q 157 13 206 -12 q 81 83 108 37 q 55 192 55 128 q 118 348 55 293 q 317 416 182 403 l 473 433 l 473 503 q 453 608 473 570 q 394 660 433 645 q 291 676 355 676 q 199 668 249 676 q 101 644 149 660 l 101 733 q 200 756 145 748 q 306 765 256 765 m 300 72 q 394 94 349 72 q 473 166 439 117 l 473 358 l 324 343 q 203 300 242 335 q 165 203 165 266 q 200 105 165 138 q 300 72 234 72 z "},"á":{"ha":669,"x_min":55,"x_max":580,"o":"m 306 765 q 459 739 399 765 q 550 656 519 714 q 580 498 580 597 l 580 0 l 489 0 l 481 83 l 474 83 q 388 12 440 36 q 272 -12 335 -12 q 157 13 206 -12 q 81 83 108 37 q 55 192 55 128 q 118 348 55 293 q 317 416 182 403 l 473 433 l 473 503 q 453 608 473 570 q 394 660 433 645 q 291 676 355 676 q 199 668 249 676 q 101 644 149 660 l 101 733 q 200 756 145 748 q 306 765 256 765 m 300 72 q 394 94 349 72 q 473 166 439 117 l 473 358 l 324 343 q 203 300 242 335 q 165 203 165 266 q 200 105 165 138 q 300 72 234 72 m 283 870 l 411 1122 l 526 1122 l 379 870 l 283 870 z "},"ă":{"ha":669,"x_min":55,"x_max":580,"o":"m 306 765 q 459 739 399 765 q 550 656 519 714 q 580 498 580 597 l 580 0 l 489 0 l 481 83 l 474 83 q 388 12 440 36 q 272 -12 335 -12 q 157 13 206 -12 q 81 83 108 37 q 55 192 55 128 q 118 348 55 293 q 317 416 182 403 l 473 433 l 473 503 q 453 608 473 570 q 394 660 433 645 q 291 676 355 676 q 199 668 249 676 q 101 644 149 660 l 101 733 q 200 756 145 748 q 306 765 256 765 m 300 72 q 394 94 349 72 q 473 166 439 117 l 473 358 l 324 343 q 203 300 242 335 q 165 203 165 266 q 200 105 165 138 q 300 72 234 72 m 332 878 q 193 935 244 878 q 138 1104 142 993 l 211 1104 q 246 982 216 1022 q 332 943 276 943 q 418 982 389 943 q 451 1104 448 1021 l 524 1104 q 469 935 519 992 q 332 878 419 878 z "},"ắ":{"ha":669,"x_min":55,"x_max":580,"o":"m 306 765 q 459 739 399 765 q 550 656 519 714 q 580 498 580 597 l 580 0 l 489 0 l 481 83 l 474 83 q 388 12 440 36 q 272 -12 335 -12 q 157 13 206 -12 q 81 83 108 37 q 55 192 55 128 q 118 348 55 293 q 317 416 182 403 l 473 433 l 473 503 q 453 608 473 570 q 394 660 433 645 q 291 676 355 676 q 199 668 249 676 q 101 644 149 660 l 101 733 q 200 756 145 748 q 306 765 256 765 m 300 72 q 394 94 349 72 q 473 166 439 117 l 473 358 l 324 343 q 203 300 242 335 q 165 203 165 266 q 200 105 165 138 q 300 72 234 72 m 290 1108 l 398 1297 l 497 1297 l 371 1108 l 290 1108 m 332 878 q 191 935 242 878 q 135 1096 140 991 l 208 1096 q 244 979 214 1017 q 332 942 275 942 q 419 979 389 942 q 454 1096 449 1017 l 527 1096 q 471 934 522 990 q 332 878 421 878 z "},"ặ":{"ha":669,"x_min":55,"x_max":580,"o":"m 306 765 q 459 739 399 765 q 550 656 519 714 q 580 498 580 597 l 580 0 l 489 0 l 481 83 l 474 83 q 388 12 440 36 q 272 -12 335 -12 q 157 13 206 -12 q 81 83 108 37 q 55 192 55 128 q 118 348 55 293 q 317 416 182 403 l 473 433 l 473 503 q 453 608 473 570 q 394 660 433 645 q 291 676 355 676 q 199 668 249 676 q 101 644 149 660 l 101 733 q 200 756 145 748 q 306 765 256 765 m 300 72 q 394 94 349 72 q 473 166 439 117 l 473 358 l 324 343 q 203 300 242 335 q 165 203 165 266 q 200 105 165 138 q 300 72 234 72 m 335 -248 q 284 -230 303 -248 q 265 -181 265 -212 q 284 -132 265 -150 q 335 -114 303 -114 q 386 -132 367 -114 q 405 -181 405 -151 q 386 -230 405 -212 q 335 -248 367 -248 m 332 878 q 193 935 244 878 q 138 1104 142 993 l 211 1104 q 246 982 216 1022 q 332 943 276 943 q 418 982 389 943 q 451 1104 448 1021 l 524 1104 q 469 935 519 992 q 332 878 419 878 z "},"ằ":{"ha":669,"x_min":55,"x_max":580,"o":"m 306 765 q 459 739 399 765 q 550 656 519 714 q 580 498 580 597 l 580 0 l 489 0 l 481 83 l 474 83 q 388 12 440 36 q 272 -12 335 -12 q 157 13 206 -12 q 81 83 108 37 q 55 192 55 128 q 118 348 55 293 q 317 416 182 403 l 473 433 l 473 503 q 453 608 473 570 q 394 660 433 645 q 291 676 355 676 q 199 668 249 676 q 101 644 149 660 l 101 733 q 200 756 145 748 q 306 765 256 765 m 300 72 q 394 94 349 72 q 473 166 439 117 l 473 358 l 324 343 q 203 300 242 335 q 165 203 165 266 q 200 105 165 138 q 300 72 234 72 m 291 1108 l 165 1297 l 265 1297 l 372 1108 l 291 1108 m 332 878 q 191 935 242 878 q 135 1096 140 991 l 208 1096 q 244 979 214 1017 q 332 942 275 942 q 419 979 389 942 q 454 1096 449 1017 l 527 1096 q 471 934 522 990 q 332 878 421 878 z "},"ẳ":{"ha":669,"x_min":55,"x_max":580,"o":"m 306 765 q 459 739 399 765 q 550 656 519 714 q 580 498 580 597 l 580 0 l 489 0 l 481 83 l 474 83 q 388 12 440 36 q 272 -12 335 -12 q 157 13 206 -12 q 81 83 108 37 q 55 192 55 128 q 118 348 55 293 q 317 416 182 403 l 473 433 l 473 503 q 453 608 473 570 q 394 660 433 645 q 291 676 355 676 q 199 668 249 676 q 101 644 149 660 l 101 733 q 200 756 145 748 q 306 765 256 765 m 300 72 q 394 94 349 72 q 473 166 439 117 l 473 358 l 324 343 q 203 300 242 335 q 165 203 165 266 q 200 105 165 138 q 300 72 234 72 m 298 1108 q 316 1151 299 1136 q 365 1181 333 1166 q 398 1198 388 1190 q 408 1219 408 1206 q 391 1243 408 1235 q 331 1251 373 1251 q 201 1229 265 1251 l 201 1279 q 264 1295 227 1290 q 336 1301 300 1301 q 441 1281 406 1301 q 476 1225 476 1260 q 460 1184 476 1199 q 415 1156 444 1169 q 378 1134 391 1144 q 364 1108 366 1124 l 298 1108 m 332 878 q 191 935 242 878 q 135 1096 140 991 l 208 1096 q 244 979 214 1017 q 332 942 275 942 q 419 979 389 942 q 454 1096 449 1017 l 527 1096 q 471 934 522 990 q 332 878 421 878 z "},"ẵ":{"ha":669,"x_min":55,"x_max":580,"o":"m 306 765 q 459 739 399 765 q 550 656 519 714 q 580 498 580 597 l 580 0 l 489 0 l 481 83 l 474 83 q 388 12 440 36 q 272 -12 335 -12 q 157 13 206 -12 q 81 83 108 37 q 55 192 55 128 q 118 348 55 293 q 317 416 182 403 l 473 433 l 473 503 q 453 608 473 570 q 394 660 433 645 q 291 676 355 676 q 199 668 249 676 q 101 644 149 660 l 101 733 q 200 756 145 748 q 306 765 256 765 m 300 72 q 394 94 349 72 q 473 166 439 117 l 473 358 l 324 343 q 203 300 242 335 q 165 203 165 266 q 200 105 165 138 q 300 72 234 72 m 428 1150 q 377 1157 402 1150 q 321 1178 352 1165 q 270 1196 288 1190 q 233 1201 252 1201 q 173 1190 199 1201 q 122 1153 147 1178 l 122 1223 q 234 1267 164 1267 q 284 1260 260 1267 q 341 1239 308 1253 q 390 1221 369 1227 q 430 1215 410 1215 q 489 1226 463 1215 q 540 1263 515 1238 l 540 1194 q 428 1150 499 1150 m 332 878 q 191 935 242 878 q 135 1096 140 991 l 208 1096 q 244 979 214 1017 q 332 942 275 942 q 419 979 389 942 q 454 1096 449 1017 l 527 1096 q 471 934 522 990 q 332 878 421 878 z "},"â":{"ha":669,"x_min":55,"x_max":580,"o":"m 306 765 q 459 739 399 765 q 550 656 519 714 q 580 498 580 597 l 580 0 l 489 0 l 481 83 l 474 83 q 388 12 440 36 q 272 -12 335 -12 q 157 13 206 -12 q 81 83 108 37 q 55 192 55 128 q 118 348 55 293 q 317 416 182 403 l 473 433 l 473 503 q 453 608 473 570 q 394 660 433 645 q 291 676 355 676 q 199 668 249 676 q 101 644 149 660 l 101 733 q 200 756 145 748 q 306 765 256 765 m 300 72 q 394 94 349 72 q 473 166 439 117 l 473 358 l 324 343 q 203 300 242 335 q 165 203 165 266 q 200 105 165 138 q 300 72 234 72 m 520 870 l 435 870 l 331 1066 l 226 870 l 142 870 l 282 1122 l 380 1122 l 520 870 z "},"ấ":{"ha":669,"x_min":55,"x_max":676,"o":"m 306 765 q 459 739 399 765 q 550 656 519 714 q 580 498 580 597 l 580 0 l 489 0 l 481 83 l 474 83 q 388 12 440 36 q 272 -12 335 -12 q 157 13 206 -12 q 81 83 108 37 q 55 192 55 128 q 118 348 55 293 q 317 416 182 403 l 473 433 l 473 503 q 453 608 473 570 q 394 660 433 645 q 291 676 355 676 q 199 668 249 676 q 101 644 149 660 l 101 733 q 200 756 145 748 q 306 765 256 765 m 300 72 q 394 94 349 72 q 473 166 439 117 l 473 358 l 324 343 q 203 300 242 335 q 165 203 165 266 q 200 105 165 138 q 300 72 234 72 m 576 1297 l 676 1297 l 550 1108 l 469 1108 l 576 1297 m 282 1122 l 380 1122 l 520 870 l 435 870 l 331 1066 l 226 870 l 142 870 l 282 1122 z "},"ậ":{"ha":669,"x_min":55,"x_max":580,"o":"m 306 765 q 459 739 399 765 q 550 656 519 714 q 580 498 580 597 l 580 0 l 489 0 l 481 83 l 474 83 q 388 12 440 36 q 272 -12 335 -12 q 157 13 206 -12 q 81 83 108 37 q 55 192 55 128 q 118 348 55 293 q 317 416 182 403 l 473 433 l 473 503 q 453 608 473 570 q 394 660 433 645 q 291 676 355 676 q 199 668 249 676 q 101 644 149 660 l 101 733 q 200 756 145 748 q 306 765 256 765 m 300 72 q 394 94 349 72 q 473 166 439 117 l 473 358 l 324 343 q 203 300 242 335 q 165 203 165 266 q 200 105 165 138 q 300 72 234 72 m 335 -248 q 284 -230 303 -248 q 265 -181 265 -212 q 284 -132 265 -150 q 335 -114 303 -114 q 386 -132 367 -114 q 405 -181 405 -151 q 386 -230 405 -212 q 335 -248 367 -248 m 520 870 l 435 870 l 331 1066 l 226 870 l 142 870 l 282 1122 l 380 1122 l 520 870 z "},"ầ":{"ha":669,"x_min":55,"x_max":580,"o":"m 306 765 q 459 739 399 765 q 550 656 519 714 q 580 498 580 597 l 580 0 l 489 0 l 481 83 l 474 83 q 388 12 440 36 q 272 -12 335 -12 q 157 13 206 -12 q 81 83 108 37 q 55 192 55 128 q 118 348 55 293 q 317 416 182 403 l 473 433 l 473 503 q 453 608 473 570 q 394 660 433 645 q 291 676 355 676 q 199 668 249 676 q 101 644 149 660 l 101 733 q 200 756 145 748 q 306 765 256 765 m 300 72 q 394 94 349 72 q 473 166 439 117 l 473 358 l 324 343 q 203 300 242 335 q 165 203 165 266 q 200 105 165 138 q 300 72 234 72 m 560 1108 l 479 1108 l 353 1297 l 452 1297 l 560 1108 m 282 1122 l 380 1122 l 520 870 l 435 870 l 331 1066 l 226 870 l 142 870 l 282 1122 z "},"ẩ":{"ha":669,"x_min":55,"x_max":635,"o":"m 306 765 q 459 739 399 765 q 550 656 519 714 q 580 498 580 597 l 580 0 l 489 0 l 481 83 l 474 83 q 388 12 440 36 q 272 -12 335 -12 q 157 13 206 -12 q 81 83 108 37 q 55 192 55 128 q 118 348 55 293 q 317 416 182 403 l 473 433 l 473 503 q 453 608 473 570 q 394 660 433 645 q 291 676 355 676 q 199 668 249 676 q 101 644 149 660 l 101 733 q 200 756 145 748 q 306 765 256 765 m 300 72 q 394 94 349 72 q 473 166 439 117 l 473 358 l 324 343 q 203 300 242 335 q 165 203 165 266 q 200 105 165 138 q 300 72 234 72 m 497 1301 q 600 1281 566 1301 q 635 1225 635 1261 q 620 1185 635 1199 q 576 1158 605 1172 q 539 1136 552 1146 q 524 1108 526 1126 l 460 1108 q 479 1152 462 1138 q 526 1181 496 1167 q 558 1199 548 1192 q 568 1219 568 1207 q 551 1244 568 1235 q 492 1252 533 1252 q 365 1229 426 1252 l 365 1279 q 426 1295 390 1290 q 497 1301 462 1301 m 282 1122 l 380 1122 l 520 870 l 435 870 l 331 1066 l 226 870 l 142 870 l 282 1122 z "},"ẫ":{"ha":669,"x_min":55,"x_max":580,"o":"m 306 765 q 459 739 399 765 q 550 656 519 714 q 580 498 580 597 l 580 0 l 489 0 l 481 83 l 474 83 q 388 12 440 36 q 272 -12 335 -12 q 157 13 206 -12 q 81 83 108 37 q 55 192 55 128 q 118 348 55 293 q 317 416 182 403 l 473 433 l 473 503 q 453 608 473 570 q 394 660 433 645 q 291 676 355 676 q 199 668 249 676 q 101 644 149 660 l 101 733 q 200 756 145 748 q 306 765 256 765 m 300 72 q 394 94 349 72 q 473 166 439 117 l 473 358 l 324 343 q 203 300 242 335 q 165 203 165 266 q 200 105 165 138 q 300 72 234 72 m 428 1215 q 487 1226 461 1215 q 538 1263 513 1238 l 538 1193 q 427 1150 497 1150 q 377 1157 401 1150 q 321 1178 353 1164 q 271 1196 290 1190 q 233 1201 253 1201 q 175 1190 201 1201 q 124 1153 149 1178 l 124 1223 q 235 1267 166 1267 q 284 1260 261 1267 q 341 1239 306 1253 q 390 1220 370 1226 q 428 1215 409 1215 m 281 1109 l 381 1109 l 525 871 l 438 871 l 331 1058 l 224 871 l 137 871 l 281 1109 z "},"ȁ":{"ha":669,"x_min":55,"x_max":580,"o":"m 306 765 q 459 739 399 765 q 550 656 519 714 q 580 498 580 597 l 580 0 l 489 0 l 481 83 l 474 83 q 388 12 440 36 q 272 -12 335 -12 q 157 13 206 -12 q 81 83 108 37 q 55 192 55 128 q 118 348 55 293 q 317 416 182 403 l 473 433 l 473 503 q 453 608 473 570 q 394 660 433 645 q 291 676 355 676 q 199 668 249 676 q 101 644 149 660 l 101 733 q 200 756 145 748 q 306 765 256 765 m 300 72 q 394 94 349 72 q 473 166 439 117 l 473 358 l 324 343 q 203 300 242 335 q 165 203 165 266 q 200 105 165 138 q 300 72 234 72 m 181 870 l 92 1122 l 184 1122 l 263 870 l 181 870 m 399 870 l 310 1122 l 402 1122 l 482 870 l 399 870 z "},"ä":{"ha":669,"x_min":55,"x_max":580,"o":"m 306 765 q 459 739 399 765 q 550 656 519 714 q 580 498 580 597 l 580 0 l 489 0 l 481 83 l 474 83 q 388 12 440 36 q 272 -12 335 -12 q 157 13 206 -12 q 81 83 108 37 q 55 192 55 128 q 118 348 55 293 q 317 416 182 403 l 473 433 l 473 503 q 453 608 473 570 q 394 660 433 645 q 291 676 355 676 q 199 668 249 676 q 101 644 149 660 l 101 733 q 200 756 145 748 q 306 765 256 765 m 300 72 q 394 94 349 72 q 473 166 439 117 l 473 358 l 324 343 q 203 300 242 335 q 165 203 165 266 q 200 105 165 138 q 300 72 234 72 m 194 919 q 143 938 162 919 q 124 987 124 956 q 143 1037 124 1018 q 194 1056 163 1056 q 245 1037 226 1056 q 265 987 265 1018 q 246 938 265 956 q 194 919 227 919 m 467 919 q 416 938 435 919 q 397 987 397 956 q 416 1037 397 1018 q 467 1056 435 1056 q 518 1037 499 1056 q 538 987 538 1018 q 519 938 538 956 q 467 919 500 919 z "},"ạ":{"ha":669,"x_min":55,"x_max":580,"o":"m 306 765 q 459 739 399 765 q 550 656 519 714 q 580 498 580 597 l 580 0 l 489 0 l 481 83 l 474 83 q 388 12 440 36 q 272 -12 335 -12 q 157 13 206 -12 q 81 83 108 37 q 55 192 55 128 q 118 348 55 293 q 317 416 182 403 l 473 433 l 473 503 q 453 608 473 570 q 394 660 433 645 q 291 676 355 676 q 199 668 249 676 q 101 644 149 660 l 101 733 q 200 756 145 748 q 306 765 256 765 m 300 72 q 394 94 349 72 q 473 166 439 117 l 473 358 l 324 343 q 203 300 242 335 q 165 203 165 266 q 200 105 165 138 q 300 72 234 72 m 335 -248 q 284 -230 303 -248 q 265 -181 265 -212 q 284 -132 265 -150 q 335 -114 303 -114 q 386 -132 367 -114 q 405 -181 405 -151 q 386 -230 405 -212 q 335 -248 367 -248 z "},"à":{"ha":669,"x_min":55,"x_max":580,"o":"m 306 765 q 459 739 399 765 q 550 656 519 714 q 580 498 580 597 l 580 0 l 489 0 l 481 83 l 474 83 q 388 12 440 36 q 272 -12 335 -12 q 157 13 206 -12 q 81 83 108 37 q 55 192 55 128 q 118 348 55 293 q 317 416 182 403 l 473 433 l 473 503 q 453 608 473 570 q 394 660 433 645 q 291 676 355 676 q 199 668 249 676 q 101 644 149 660 l 101 733 q 200 756 145 748 q 306 765 256 765 m 300 72 q 394 94 349 72 q 473 166 439 117 l 473 358 l 324 343 q 203 300 242 335 q 165 203 165 266 q 200 105 165 138 q 300 72 234 72 m 283 870 l 135 1122 l 251 1122 l 379 870 l 283 870 z "},"ả":{"ha":669,"x_min":55,"x_max":580,"o":"m 306 765 q 459 739 399 765 q 550 656 519 714 q 580 498 580 597 l 580 0 l 489 0 l 481 83 l 474 83 q 388 12 440 36 q 272 -12 335 -12 q 157 13 206 -12 q 81 83 108 37 q 55 192 55 128 q 118 348 55 293 q 317 416 182 403 l 473 433 l 473 503 q 453 608 473 570 q 394 660 433 645 q 291 676 355 676 q 199 668 249 676 q 101 644 149 660 l 101 733 q 200 756 145 748 q 306 765 256 765 m 300 72 q 394 94 349 72 q 473 166 439 117 l 473 358 l 324 343 q 203 300 242 335 q 165 203 165 266 q 200 105 165 138 q 300 72 234 72 m 297 870 q 307 916 298 897 q 329 948 316 935 q 361 975 342 960 q 391 1002 381 990 q 401 1028 401 1013 q 383 1064 401 1052 q 324 1075 365 1075 q 272 1071 299 1075 q 220 1058 244 1067 l 220 1114 q 272 1126 242 1122 q 329 1131 302 1131 q 469 1034 469 1131 q 455 984 469 1003 q 414 944 441 965 q 377 910 389 926 q 364 870 365 895 l 297 870 z "},"ȃ":{"ha":669,"x_min":55,"x_max":580,"o":"m 306 765 q 459 739 399 765 q 550 656 519 714 q 580 498 580 597 l 580 0 l 489 0 l 481 83 l 474 83 q 388 12 440 36 q 272 -12 335 -12 q 157 13 206 -12 q 81 83 108 37 q 55 192 55 128 q 118 348 55 293 q 317 416 182 403 l 473 433 l 473 503 q 453 608 473 570 q 394 660 433 645 q 291 676 355 676 q 199 668 249 676 q 101 644 149 660 l 101 733 q 200 756 145 748 q 306 765 256 765 m 300 72 q 394 94 349 72 q 473 166 439 117 l 473 358 l 324 343 q 203 300 242 335 q 165 203 165 266 q 200 105 165 138 q 300 72 234 72 m 138 890 q 192 1059 142 1002 q 330 1116 242 1116 q 469 1059 418 1116 q 524 890 519 1001 l 451 890 q 416 1012 447 973 q 330 1051 386 1051 q 244 1012 273 1051 q 211 890 215 973 l 138 890 z "},"ā":{"ha":669,"x_min":55,"x_max":580,"o":"m 306 765 q 459 739 399 765 q 550 656 519 714 q 580 498 580 597 l 580 0 l 489 0 l 481 83 l 474 83 q 388 12 440 36 q 272 -12 335 -12 q 157 13 206 -12 q 81 83 108 37 q 55 192 55 128 q 118 348 55 293 q 317 416 182 403 l 473 433 l 473 503 q 453 608 473 570 q 394 660 433 645 q 291 676 355 676 q 199 668 249 676 q 101 644 149 660 l 101 733 q 200 756 145 748 q 306 765 256 765 m 300 72 q 394 94 349 72 q 473 166 439 117 l 473 358 l 324 343 q 203 300 242 335 q 165 203 165 266 q 200 105 165 138 q 300 72 234 72 m 128 951 l 128 1024 l 534 1024 l 534 951 l 128 951 z "},"ą":{"ha":669,"x_min":55,"x_max":634,"o":"m 540 -233 q 634 -206 588 -233 l 634 -262 q 586 -281 613 -274 q 531 -288 559 -288 q 424 -255 462 -288 q 386 -162 386 -221 q 410 -73 386 -114 q 488 4 435 -33 l 481 83 l 474 83 q 388 12 440 36 q 272 -12 335 -12 q 157 13 206 -12 q 81 83 108 37 q 55 192 55 128 q 118 348 55 293 q 317 416 182 403 l 473 433 l 473 503 q 453 608 473 570 q 394 660 433 645 q 291 676 355 676 q 199 668 249 676 q 101 644 149 660 l 101 733 q 200 756 145 748 q 306 765 256 765 q 459 739 399 765 q 550 656 519 714 q 580 498 580 597 l 580 0 q 484 -75 513 -39 q 456 -155 456 -112 q 478 -213 456 -192 q 540 -233 500 -233 m 300 72 q 394 94 349 72 q 473 166 439 117 l 473 358 l 324 343 q 203 300 242 335 q 165 203 165 266 q 200 105 165 138 q 300 72 234 72 z "},"å":{"ha":669,"x_min":55,"x_max":580,"o":"m 306 765 q 459 739 399 765 q 550 656 519 714 q 580 498 580 597 l 580 0 l 489 0 l 481 83 l 474 83 q 388 12 440 36 q 272 -12 335 -12 q 157 13 206 -12 q 81 83 108 37 q 55 192 55 128 q 118 348 55 293 q 317 416 182 403 l 473 433 l 473 503 q 453 608 473 570 q 394 660 433 645 q 291 676 355 676 q 199 668 249 676 q 101 644 149 660 l 101 733 q 200 756 145 748 q 306 765 256 765 m 300 72 q 394 94 349 72 q 473 166 439 117 l 473 358 l 324 343 q 203 300 242 335 q 165 203 165 266 q 200 105 165 138 q 300 72 234 72 m 331 867 q 261 885 292 867 q 213 933 231 902 q 196 1001 196 963 q 213 1070 196 1040 q 261 1117 231 1100 q 331 1135 292 1135 q 400 1117 369 1135 q 449 1070 431 1100 q 467 1001 467 1040 q 449 933 467 963 q 400 885 431 902 q 331 867 369 867 m 331 918 q 390 941 367 918 q 413 1001 413 963 q 390 1062 413 1040 q 331 1084 367 1084 q 273 1062 295 1084 q 250 1001 250 1040 q 272 941 250 963 q 331 918 294 918 z "},"ǻ":{"ha":669,"x_min":55,"x_max":580,"o":"m 306 765 q 459 739 399 765 q 550 656 519 714 q 580 498 580 597 l 580 0 l 489 0 l 481 83 l 474 83 q 388 12 440 36 q 272 -12 335 -12 q 157 13 206 -12 q 81 83 108 37 q 55 192 55 128 q 118 348 55 293 q 317 416 182 403 l 473 433 l 473 503 q 453 608 473 570 q 394 660 433 645 q 291 676 355 676 q 199 668 249 676 q 101 644 149 660 l 101 733 q 200 756 145 748 q 306 765 256 765 m 300 72 q 394 94 349 72 q 473 166 439 117 l 473 358 l 324 343 q 203 300 242 335 q 165 203 165 266 q 200 105 165 138 q 300 72 234 72 m 437 1088 q 467 1001 467 1051 q 449 933 467 963 q 400 885 431 902 q 331 867 369 867 q 261 885 292 867 q 213 933 231 902 q 196 1001 196 963 q 213 1070 196 1040 q 261 1117 231 1100 q 331 1135 292 1135 q 385 1125 359 1135 l 474 1236 l 565 1236 l 437 1088 m 331 918 q 390 941 367 918 q 413 1001 413 963 q 390 1062 413 1040 q 331 1084 367 1084 q 273 1062 295 1084 q 250 1001 250 1040 q 272 941 250 963 q 331 918 294 918 z "},"ã":{"ha":669,"x_min":55,"x_max":580,"o":"m 306 765 q 459 739 399 765 q 550 656 519 714 q 580 498 580 597 l 580 0 l 489 0 l 481 83 l 474 83 q 388 12 440 36 q 272 -12 335 -12 q 157 13 206 -12 q 81 83 108 37 q 55 192 55 128 q 118 348 55 293 q 317 416 182 403 l 473 433 l 473 503 q 453 608 473 570 q 394 660 433 645 q 291 676 355 676 q 199 668 249 676 q 101 644 149 660 l 101 733 q 200 756 145 748 q 306 765 256 765 m 300 72 q 394 94 349 72 q 473 166 439 117 l 473 358 l 324 343 q 203 300 242 335 q 165 203 165 266 q 200 105 165 138 q 300 72 234 72 m 424 935 q 376 943 399 935 q 321 966 353 951 q 272 986 290 980 q 236 992 254 992 q 178 980 204 992 q 128 940 153 967 l 128 1018 q 238 1065 169 1065 q 285 1057 263 1065 q 341 1034 307 1049 q 388 1014 368 1021 q 426 1008 407 1008 q 483 1020 458 1008 q 534 1060 509 1033 l 534 982 q 424 935 492 935 z "},"æ":{"ha":1072,"x_min":55,"x_max":1022,"o":"m 1022 340 l 580 340 q 608 184 582 242 q 684 101 633 126 q 815 76 734 76 q 985 104 889 76 l 985 15 q 803 -13 892 -13 q 633 18 702 -13 q 526 118 565 50 q 415 18 476 48 q 281 -12 353 -12 q 161 12 212 -12 q 82 82 110 36 q 55 192 55 128 q 122 356 55 297 q 334 415 190 415 l 474 415 l 474 506 q 453 608 474 571 q 394 660 433 645 q 290 676 354 676 q 199 668 249 676 q 101 644 149 660 l 101 733 q 199 757 146 749 q 302 765 253 765 q 455 736 397 765 q 541 644 514 708 q 629 736 575 706 q 755 766 683 766 q 1022 375 1022 766 l 1022 340 m 751 687 q 626 625 670 687 q 580 415 583 563 l 917 415 q 895 577 915 517 q 839 662 874 637 q 751 687 803 687 m 302 72 q 495 194 428 72 q 474 342 477 258 l 340 342 q 207 305 248 342 q 165 201 165 267 q 201 105 165 138 q 302 72 236 72 z "},"ǽ":{"ha":1072,"x_min":55,"x_max":1022,"o":"m 1022 340 l 580 340 q 608 184 582 242 q 684 101 633 126 q 815 76 734 76 q 985 104 889 76 l 985 15 q 803 -13 892 -13 q 633 18 702 -13 q 526 118 565 50 q 415 18 476 48 q 281 -12 353 -12 q 161 12 212 -12 q 82 82 110 36 q 55 192 55 128 q 122 356 55 297 q 334 415 190 415 l 474 415 l 474 506 q 453 608 474 571 q 394 660 433 645 q 290 676 354 676 q 199 668 249 676 q 101 644 149 660 l 101 733 q 199 757 146 749 q 302 765 253 765 q 455 736 397 765 q 541 644 514 708 q 629 736 575 706 q 755 766 683 766 q 1022 375 1022 766 l 1022 340 m 751 687 q 626 625 670 687 q 580 415 583 563 l 917 415 q 895 577 915 517 q 839 662 874 637 q 751 687 803 687 m 302 72 q 495 194 428 72 q 474 342 477 258 l 340 342 q 207 305 248 342 q 165 201 165 267 q 201 105 165 138 q 302 72 236 72 m 479 870 l 608 1122 l 723 1122 l 576 870 l 479 870 z "},"b":{"ha":728,"x_min":97,"x_max":669,"o":"m 308 -13 q 197 -5 253 -13 q 97 19 141 3 l 97 1122 l 205 1122 l 205 680 l 211 680 q 291 741 242 718 q 401 765 340 765 q 538 728 478 765 q 633 608 597 691 q 669 391 669 524 q 308 -13 669 -13 m 315 76 q 497 148 436 76 q 558 381 558 220 q 508 608 558 544 q 369 672 458 672 q 276 649 320 672 q 205 585 232 626 l 205 90 q 257 80 227 84 q 315 76 286 76 z "},"c":{"ha":563,"x_min":58,"x_max":542,"o":"m 373 -13 q 138 80 217 -13 q 58 376 58 173 q 144 673 58 581 q 401 765 231 765 q 542 748 478 765 l 542 656 q 415 672 476 672 q 276 644 329 672 q 198 553 224 617 q 172 379 172 489 q 196 202 172 268 q 267 108 220 136 q 389 79 315 79 q 542 108 456 79 l 542 16 q 373 -13 459 -13 z "},"ć":{"ha":563,"x_min":58,"x_max":542,"o":"m 373 -13 q 138 80 217 -13 q 58 376 58 173 q 144 673 58 581 q 401 765 231 765 q 542 748 478 765 l 542 656 q 415 672 476 672 q 276 644 329 672 q 198 553 224 617 q 172 379 172 489 q 196 202 172 268 q 267 108 220 136 q 389 79 315 79 q 542 108 456 79 l 542 16 q 373 -13 459 -13 m 282 870 l 410 1122 l 526 1122 l 378 870 l 282 870 z "},"č":{"ha":563,"x_min":58,"x_max":542,"o":"m 373 -13 q 138 80 217 -13 q 58 376 58 173 q 144 673 58 581 q 401 765 231 765 q 542 748 478 765 l 542 656 q 415 672 476 672 q 276 644 329 672 q 198 553 224 617 q 172 379 172 489 q 196 202 172 268 q 267 108 220 136 q 389 79 315 79 q 542 108 456 79 l 542 16 q 373 -13 459 -13 m 435 1122 l 521 1122 l 379 870 l 281 870 l 140 1122 l 225 1122 l 331 926 l 435 1122 z "},"ç":{"ha":563,"x_min":58,"x_max":542,"o":"m 415 672 q 276 644 329 672 q 198 553 224 617 q 172 379 172 489 q 196 202 172 268 q 267 108 220 136 q 389 79 315 79 q 542 108 456 79 l 542 16 q 373 -13 459 -13 l 369 -13 l 369 -74 q 444 -108 418 -80 q 470 -180 470 -135 q 434 -259 470 -231 q 332 -288 399 -288 q 273 -282 302 -288 q 221 -265 243 -276 l 221 -210 q 331 -235 272 -235 q 404 -177 404 -235 q 329 -117 404 -117 l 306 -117 l 306 -8 q 120 103 183 10 q 58 376 58 196 q 144 673 58 581 q 401 765 231 765 q 542 748 478 765 l 542 656 q 415 672 476 672 z "},"ḉ":{"ha":563,"x_min":58,"x_max":542,"o":"m 526 1122 l 378 870 l 282 870 l 410 1122 l 526 1122 m 415 672 q 276 644 329 672 q 198 553 224 617 q 172 379 172 489 q 196 202 172 268 q 267 108 220 136 q 389 79 315 79 q 542 108 456 79 l 542 16 q 373 -13 459 -13 l 369 -13 l 369 -74 q 444 -108 418 -80 q 470 -180 470 -135 q 434 -259 470 -231 q 332 -288 399 -288 q 273 -282 302 -288 q 221 -265 243 -276 l 221 -210 q 331 -235 272 -235 q 404 -177 404 -235 q 329 -117 404 -117 l 306 -117 l 306 -8 q 120 103 183 10 q 58 376 58 196 q 144 673 58 581 q 401 765 231 765 q 542 748 478 765 l 542 656 q 415 672 476 672 z "},"ĉ":{"ha":563,"x_min":58,"x_max":542,"o":"m 373 -13 q 138 80 217 -13 q 58 376 58 173 q 144 673 58 581 q 401 765 231 765 q 542 748 478 765 l 542 656 q 415 672 476 672 q 276 644 329 672 q 198 553 224 617 q 172 379 172 489 q 196 202 172 268 q 267 108 220 136 q 389 79 315 79 q 542 108 456 79 l 542 16 q 373 -13 459 -13 m 519 870 l 435 870 l 331 1066 l 226 870 l 141 870 l 281 1122 l 379 1122 l 519 870 z "},"ċ":{"ha":563,"x_min":58,"x_max":542,"o":"m 373 -13 q 138 80 217 -13 q 58 376 58 173 q 144 673 58 581 q 401 765 231 765 q 542 748 478 765 l 542 656 q 415 672 476 672 q 276 644 329 672 q 198 553 224 617 q 172 379 172 489 q 196 202 172 268 q 267 108 220 136 q 389 79 315 79 q 542 108 456 79 l 542 16 q 373 -13 459 -13 m 331 918 q 274 936 294 918 q 254 987 254 954 q 274 1038 254 1019 q 331 1056 294 1056 q 386 1038 367 1056 q 406 987 406 1019 q 386 936 406 954 q 331 918 367 918 z "},"d":{"ha":728,"x_min":58,"x_max":631,"o":"m 335 -13 q 135 76 211 -13 q 58 361 58 165 q 150 665 58 565 q 418 765 241 765 q 523 758 465 765 l 523 1122 l 631 1122 l 631 0 l 539 0 l 531 78 l 524 78 q 444 12 493 37 q 335 -13 396 -13 m 359 81 q 452 104 408 81 q 523 172 497 127 l 523 666 q 471 673 500 670 q 416 676 442 676 q 231 604 292 676 q 169 371 169 532 q 193 196 169 260 q 259 106 217 132 q 359 81 300 81 z "},"ð":{"ha":719,"x_min":58,"x_max":660,"o":"m 504 919 q 618 671 576 805 q 660 408 660 537 q 582 89 660 192 q 360 -14 504 -14 q 138 81 217 -14 q 58 376 58 176 q 136 669 58 575 q 353 763 214 763 q 494 720 438 763 q 401 901 459 814 l 132 855 l 119 923 l 355 964 q 195 1122 285 1051 l 327 1122 q 461 983 399 1066 l 631 1012 l 643 944 l 504 919 m 360 75 q 501 146 451 75 q 550 374 550 217 q 527 553 550 487 q 463 648 505 620 q 360 676 421 676 q 256 649 298 676 q 192 555 215 621 q 169 378 169 489 q 192 198 169 265 q 257 103 215 131 q 360 75 299 75 z "},"ď":{"ha":728,"x_min":58,"x_max":783,"o":"m 335 -13 q 135 76 211 -13 q 58 361 58 165 q 150 665 58 565 q 418 765 241 765 q 523 758 465 765 l 523 1122 l 631 1122 l 631 0 l 539 0 l 531 78 l 524 78 q 444 12 493 37 q 335 -13 396 -13 m 359 81 q 452 104 408 81 q 523 172 497 127 l 523 666 q 471 673 500 670 q 416 676 442 676 q 231 604 292 676 q 169 371 169 532 q 193 196 169 260 q 259 106 217 132 q 359 81 300 81 m 688 819 q 703 1122 703 941 l 783 1122 q 775 965 783 1044 q 750 819 767 886 l 688 819 z "},"đ":{"ha":728,"x_min":58,"x_max":724,"o":"m 724 903 l 631 903 l 631 0 l 539 0 l 531 78 l 524 78 q 444 12 493 37 q 335 -13 396 -13 q 135 76 211 -13 q 58 361 58 165 q 150 665 58 565 q 418 765 241 765 q 523 758 465 765 l 523 903 l 299 903 l 299 979 l 523 979 l 523 1122 l 631 1122 l 631 979 l 724 979 l 724 903 m 523 666 q 471 673 500 670 q 416 676 442 676 q 231 604 292 676 q 169 371 169 532 q 193 196 169 260 q 259 106 217 132 q 359 81 300 81 q 452 104 408 81 q 523 172 497 127 l 523 666 z "},"ḍ":{"ha":728,"x_min":58,"x_max":631,"o":"m 335 -13 q 135 76 211 -13 q 58 361 58 165 q 150 665 58 565 q 418 765 241 765 q 523 758 465 765 l 523 1122 l 631 1122 l 631 0 l 539 0 l 531 78 l 524 78 q 444 12 493 37 q 335 -13 396 -13 m 359 81 q 452 104 408 81 q 523 172 497 127 l 523 666 q 471 673 500 670 q 416 676 442 676 q 231 604 292 676 q 169 371 169 532 q 193 196 169 260 q 259 106 217 132 q 359 81 300 81 m 365 -248 q 313 -230 332 -248 q 294 -181 294 -212 q 313 -132 294 -150 q 365 -114 332 -114 q 415 -132 397 -114 q 434 -181 434 -151 q 415 -230 434 -212 q 365 -248 397 -248 z "},"ḏ":{"ha":728,"x_min":58,"x_max":631,"o":"m 335 -13 q 135 76 211 -13 q 58 361 58 165 q 150 665 58 565 q 418 765 241 765 q 523 758 465 765 l 523 1122 l 631 1122 l 631 0 l 539 0 l 531 78 l 524 78 q 444 12 493 37 q 335 -13 396 -13 m 359 81 q 452 104 408 81 q 523 172 497 127 l 523 666 q 471 673 500 670 q 416 676 442 676 q 231 604 292 676 q 169 371 169 532 q 193 196 169 260 q 259 106 217 132 q 359 81 300 81 m 178 -217 l 178 -144 l 551 -144 l 551 -217 l 178 -217 z "},"ǳ":{"ha":1321,"x_min":58,"x_max":1285,"o":"m 335 -13 q 135 76 211 -13 q 58 361 58 165 q 150 665 58 565 q 418 765 241 765 q 523 758 465 765 l 523 1122 l 631 1122 l 631 0 l 539 0 l 531 78 l 524 78 q 444 12 493 37 q 335 -13 396 -13 m 359 81 q 452 104 408 81 q 523 172 497 127 l 523 666 q 471 673 500 670 q 416 676 442 676 q 231 604 292 676 q 169 371 169 532 q 193 196 169 260 q 259 106 217 132 q 359 81 300 81 m 902 90 l 1285 90 l 1285 0 l 769 0 l 769 67 l 1144 663 l 776 663 l 776 753 l 1278 753 l 1278 686 l 902 90 z "},"ǆ":{"ha":1321,"x_min":58,"x_max":1285,"o":"m 335 -13 q 135 76 211 -13 q 58 361 58 165 q 150 665 58 565 q 418 765 241 765 q 523 758 465 765 l 523 1122 l 631 1122 l 631 0 l 539 0 l 531 78 l 524 78 q 444 12 493 37 q 335 -13 396 -13 m 359 81 q 452 104 408 81 q 523 172 497 127 l 523 666 q 471 673 500 670 q 416 676 442 676 q 231 604 292 676 q 169 371 169 532 q 193 196 169 260 q 259 106 217 132 q 359 81 300 81 m 902 90 l 1285 90 l 1285 0 l 769 0 l 769 67 l 1144 663 l 776 663 l 776 753 l 1278 753 l 1278 686 l 902 90 m 1133 1122 l 1218 1122 l 1076 870 l 978 870 l 838 1122 l 922 1122 l 1028 926 l 1133 1122 z "},"e":{"ha":667,"x_min":58,"x_max":617,"o":"m 617 340 l 169 340 q 197 184 171 242 q 274 101 223 126 q 407 76 325 76 q 581 104 483 76 l 581 15 q 394 -13 485 -13 q 207 26 281 -13 q 96 151 133 65 q 58 377 58 238 q 134 669 58 574 q 345 765 210 765 q 547 670 477 765 q 617 374 617 576 l 617 340 m 344 685 q 217 624 263 685 q 169 415 172 562 l 512 415 q 490 576 510 516 q 433 660 469 635 q 344 685 397 685 z "},"é":{"ha":667,"x_min":58,"x_max":617,"o":"m 617 340 l 169 340 q 197 184 171 242 q 274 101 223 126 q 407 76 325 76 q 581 104 483 76 l 581 15 q 394 -13 485 -13 q 207 26 281 -13 q 96 151 133 65 q 58 377 58 238 q 134 669 58 574 q 345 765 210 765 q 547 670 477 765 q 617 374 617 576 l 617 340 m 344 685 q 217 624 263 685 q 169 415 172 562 l 512 415 q 490 576 510 516 q 433 660 469 635 q 344 685 397 685 m 294 870 l 422 1122 l 538 1122 l 390 870 l 294 870 z "},"ĕ":{"ha":667,"x_min":58,"x_max":617,"o":"m 617 340 l 169 340 q 197 184 171 242 q 274 101 223 126 q 407 76 325 76 q 581 104 483 76 l 581 15 q 394 -13 485 -13 q 207 26 281 -13 q 96 151 133 65 q 58 377 58 238 q 134 669 58 574 q 345 765 210 765 q 547 670 477 765 q 617 374 617 576 l 617 340 m 344 685 q 217 624 263 685 q 169 415 172 562 l 512 415 q 490 576 510 516 q 433 660 469 635 q 344 685 397 685 m 343 878 q 204 935 255 878 q 149 1104 153 993 l 222 1104 q 257 982 227 1022 q 343 943 287 943 q 430 982 400 943 q 463 1104 459 1021 l 535 1104 q 481 935 531 992 q 343 878 431 878 z "},"ě":{"ha":667,"x_min":58,"x_max":617,"o":"m 617 340 l 169 340 q 197 184 171 242 q 274 101 223 126 q 407 76 325 76 q 581 104 483 76 l 581 15 q 394 -13 485 -13 q 207 26 281 -13 q 96 151 133 65 q 58 377 58 238 q 134 669 58 574 q 345 765 210 765 q 547 670 477 765 q 617 374 617 576 l 617 340 m 344 685 q 217 624 263 685 q 169 415 172 562 l 512 415 q 490 576 510 516 q 433 660 469 635 q 344 685 397 685 m 447 1122 l 533 1122 l 391 870 l 293 870 l 152 1122 l 237 1122 l 342 926 l 447 1122 z "},"ḝ":{"ha":667,"x_min":58,"x_max":617,"o":"m 343 878 q 204 935 255 878 q 149 1104 153 993 l 222 1104 q 257 982 227 1022 q 343 943 287 943 q 430 982 400 943 q 463 1104 459 1021 l 535 1104 q 481 935 531 992 q 343 878 431 878 m 617 340 l 169 340 q 197 184 171 242 q 274 101 223 126 q 407 76 325 76 q 581 104 483 76 l 581 15 q 394 -13 485 -13 l 377 -13 l 377 -74 q 452 -108 426 -80 q 478 -180 478 -135 q 443 -259 478 -231 q 340 -288 407 -288 q 281 -282 310 -288 q 229 -265 251 -276 l 229 -210 q 339 -235 280 -235 q 413 -177 413 -235 q 338 -117 413 -117 l 314 -117 l 314 -8 q 122 103 185 11 q 58 377 58 196 q 134 669 58 574 q 345 765 210 765 q 547 670 477 765 q 617 374 617 576 l 617 340 m 344 685 q 217 624 263 685 q 169 415 172 562 l 512 415 q 490 576 510 516 q 433 660 469 635 q 344 685 397 685 z "},"ê":{"ha":667,"x_min":58,"x_max":617,"o":"m 617 340 l 169 340 q 197 184 171 242 q 274 101 223 126 q 407 76 325 76 q 581 104 483 76 l 581 15 q 394 -13 485 -13 q 207 26 281 -13 q 96 151 133 65 q 58 377 58 238 q 134 669 58 574 q 345 765 210 765 q 547 670 477 765 q 617 374 617 576 l 617 340 m 344 685 q 217 624 263 685 q 169 415 172 562 l 512 415 q 490 576 510 516 q 433 660 469 635 q 344 685 397 685 m 531 870 l 447 870 l 342 1066 l 238 870 l 153 870 l 293 1122 l 391 1122 l 531 870 z "},"ế":{"ha":667,"x_min":58,"x_max":687,"o":"m 617 340 l 169 340 q 197 184 171 242 q 274 101 223 126 q 407 76 325 76 q 581 104 483 76 l 581 15 q 394 -13 485 -13 q 207 26 281 -13 q 96 151 133 65 q 58 377 58 238 q 134 669 58 574 q 345 765 210 765 q 547 670 477 765 q 617 374 617 576 l 617 340 m 344 685 q 217 624 263 685 q 169 415 172 562 l 512 415 q 490 576 510 516 q 433 660 469 635 q 344 685 397 685 m 588 1297 l 687 1297 l 561 1108 l 481 1108 l 588 1297 m 293 1122 l 391 1122 l 531 870 l 447 870 l 342 1066 l 238 870 l 153 870 l 293 1122 z "},"ệ":{"ha":667,"x_min":58,"x_max":617,"o":"m 617 340 l 169 340 q 197 184 171 242 q 274 101 223 126 q 407 76 325 76 q 581 104 483 76 l 581 15 q 394 -13 485 -13 q 207 26 281 -13 q 96 151 133 65 q 58 377 58 238 q 134 669 58 574 q 345 765 210 765 q 547 670 477 765 q 617 374 617 576 l 617 340 m 344 685 q 217 624 263 685 q 169 415 172 562 l 512 415 q 490 576 510 516 q 433 660 469 635 q 344 685 397 685 m 342 -248 q 291 -230 310 -248 q 272 -181 272 -212 q 291 -132 272 -150 q 342 -114 310 -114 q 393 -132 374 -114 q 412 -181 412 -151 q 393 -230 412 -212 q 342 -248 374 -248 m 531 870 l 447 870 l 342 1066 l 238 870 l 153 870 l 293 1122 l 391 1122 l 531 870 z "},"ề":{"ha":667,"x_min":58,"x_max":617,"o":"m 617 340 l 169 340 q 197 184 171 242 q 274 101 223 126 q 407 76 325 76 q 581 104 483 76 l 581 15 q 394 -13 485 -13 q 207 26 281 -13 q 96 151 133 65 q 58 377 58 238 q 134 669 58 574 q 345 765 210 765 q 547 670 477 765 q 617 374 617 576 l 617 340 m 344 685 q 217 624 263 685 q 169 415 172 562 l 512 415 q 490 576 510 516 q 433 660 469 635 q 344 685 397 685 m 571 1108 l 490 1108 l 365 1297 l 463 1297 l 571 1108 m 293 1122 l 391 1122 l 531 870 l 447 870 l 342 1066 l 238 870 l 153 870 l 293 1122 z "},"ể":{"ha":667,"x_min":58,"x_max":646,"o":"m 617 340 l 169 340 q 197 184 171 242 q 274 101 223 126 q 407 76 325 76 q 581 104 483 76 l 581 15 q 394 -13 485 -13 q 207 26 281 -13 q 96 151 133 65 q 58 377 58 238 q 134 669 58 574 q 345 765 210 765 q 547 670 477 765 q 617 374 617 576 l 617 340 m 344 685 q 217 624 263 685 q 169 415 172 562 l 512 415 q 490 576 510 516 q 433 660 469 635 q 344 685 397 685 m 508 1301 q 611 1281 577 1301 q 646 1225 646 1261 q 631 1185 646 1199 q 587 1158 616 1172 q 550 1136 563 1146 q 535 1108 538 1126 l 471 1108 q 490 1152 473 1138 q 538 1181 507 1167 q 569 1199 559 1192 q 579 1219 579 1207 q 562 1244 579 1235 q 503 1252 544 1252 q 376 1229 437 1252 l 376 1279 q 437 1295 401 1290 q 508 1301 473 1301 m 293 1122 l 391 1122 l 531 870 l 447 870 l 342 1066 l 238 870 l 153 870 l 293 1122 z "},"ễ":{"ha":667,"x_min":58,"x_max":617,"o":"m 617 340 l 169 340 q 197 184 171 242 q 274 101 223 126 q 407 76 325 76 q 581 104 483 76 l 581 15 q 394 -13 485 -13 q 207 26 281 -13 q 96 151 133 65 q 58 377 58 238 q 134 669 58 574 q 345 765 210 765 q 547 670 477 765 q 617 374 617 576 l 617 340 m 344 685 q 217 624 263 685 q 169 415 172 562 l 512 415 q 490 576 510 516 q 433 660 469 635 q 344 685 397 685 m 440 1215 q 498 1226 472 1215 q 549 1263 524 1238 l 549 1193 q 438 1150 508 1150 q 388 1157 412 1150 q 332 1178 364 1164 q 282 1196 301 1190 q 244 1201 264 1201 q 186 1190 212 1201 q 135 1153 160 1178 l 135 1223 q 246 1267 177 1267 q 295 1260 272 1267 q 352 1239 317 1253 q 401 1220 381 1226 q 440 1215 420 1215 m 292 1109 l 392 1109 l 536 871 l 449 871 l 342 1058 l 235 871 l 148 871 l 292 1109 z "},"ȅ":{"ha":667,"x_min":58,"x_max":617,"o":"m 617 340 l 169 340 q 197 184 171 242 q 274 101 223 126 q 407 76 325 76 q 581 104 483 76 l 581 15 q 394 -13 485 -13 q 207 26 281 -13 q 96 151 133 65 q 58 377 58 238 q 134 669 58 574 q 345 765 210 765 q 547 670 477 765 q 617 374 617 576 l 617 340 m 344 685 q 217 624 263 685 q 169 415 172 562 l 512 415 q 490 576 510 516 q 433 660 469 635 q 344 685 397 685 m 192 870 l 103 1122 l 195 1122 l 274 870 l 192 870 m 410 870 l 322 1122 l 413 1122 l 493 870 l 410 870 z "},"ë":{"ha":667,"x_min":58,"x_max":617,"o":"m 617 340 l 169 340 q 197 184 171 242 q 274 101 223 126 q 407 76 325 76 q 581 104 483 76 l 581 15 q 394 -13 485 -13 q 207 26 281 -13 q 96 151 133 65 q 58 377 58 238 q 134 669 58 574 q 345 765 210 765 q 547 670 477 765 q 617 374 617 576 l 617 340 m 344 685 q 217 624 263 685 q 169 415 172 562 l 512 415 q 490 576 510 516 q 433 660 469 635 q 344 685 397 685 m 206 919 q 154 938 173 919 q 135 987 135 956 q 155 1037 135 1018 q 206 1056 174 1056 q 257 1037 238 1056 q 276 987 276 1018 q 257 938 276 956 q 206 919 238 919 m 478 919 q 427 938 446 919 q 408 987 408 956 q 427 1037 408 1018 q 478 1056 447 1056 q 530 1037 510 1056 q 549 987 549 1018 q 530 938 549 956 q 478 919 511 919 z "},"ė":{"ha":667,"x_min":58,"x_max":617,"o":"m 617 340 l 169 340 q 197 184 171 242 q 274 101 223 126 q 407 76 325 76 q 581 104 483 76 l 581 15 q 394 -13 485 -13 q 207 26 281 -13 q 96 151 133 65 q 58 377 58 238 q 134 669 58 574 q 345 765 210 765 q 547 670 477 765 q 617 374 617 576 l 617 340 m 344 685 q 217 624 263 685 q 169 415 172 562 l 512 415 q 490 576 510 516 q 433 660 469 635 q 344 685 397 685 m 342 918 q 286 936 306 918 q 266 987 266 954 q 286 1038 266 1019 q 342 1056 306 1056 q 398 1038 378 1056 q 418 987 418 1019 q 398 936 418 954 q 342 918 378 918 z "},"ẹ":{"ha":667,"x_min":58,"x_max":617,"o":"m 617 340 l 169 340 q 197 184 171 242 q 274 101 223 126 q 407 76 325 76 q 581 104 483 76 l 581 15 q 394 -13 485 -13 q 207 26 281 -13 q 96 151 133 65 q 58 377 58 238 q 134 669 58 574 q 345 765 210 765 q 547 670 477 765 q 617 374 617 576 l 617 340 m 344 685 q 217 624 263 685 q 169 415 172 562 l 512 415 q 490 576 510 516 q 433 660 469 635 q 344 685 397 685 m 342 -248 q 291 -230 310 -248 q 272 -181 272 -212 q 291 -132 272 -150 q 342 -114 310 -114 q 393 -132 374 -114 q 412 -181 412 -151 q 393 -230 412 -212 q 342 -248 374 -248 z "},"è":{"ha":667,"x_min":58,"x_max":617,"o":"m 617 340 l 169 340 q 197 184 171 242 q 274 101 223 126 q 407 76 325 76 q 581 104 483 76 l 581 15 q 394 -13 485 -13 q 207 26 281 -13 q 96 151 133 65 q 58 377 58 238 q 134 669 58 574 q 345 765 210 765 q 547 670 477 765 q 617 374 617 576 l 617 340 m 344 685 q 217 624 263 685 q 169 415 172 562 l 512 415 q 490 576 510 516 q 433 660 469 635 q 344 685 397 685 m 294 870 l 147 1122 l 262 1122 l 390 870 l 294 870 z "},"ẻ":{"ha":667,"x_min":58,"x_max":617,"o":"m 617 340 l 169 340 q 197 184 171 242 q 274 101 223 126 q 407 76 325 76 q 581 104 483 76 l 581 15 q 394 -13 485 -13 q 207 26 281 -13 q 96 151 133 65 q 58 377 58 238 q 134 669 58 574 q 345 765 210 765 q 547 670 477 765 q 617 374 617 576 l 617 340 m 344 685 q 217 624 263 685 q 169 415 172 562 l 512 415 q 490 576 510 516 q 433 660 469 635 q 344 685 397 685 m 308 870 q 318 916 309 897 q 340 948 327 935 q 372 975 353 960 q 402 1002 392 990 q 412 1028 412 1013 q 394 1064 412 1052 q 335 1075 376 1075 q 283 1071 310 1075 q 231 1058 255 1067 l 231 1114 q 283 1126 253 1122 q 340 1131 313 1131 q 480 1034 480 1131 q 466 984 480 1003 q 425 944 452 965 q 388 910 400 926 q 375 870 376 895 l 308 870 z "},"ȇ":{"ha":667,"x_min":58,"x_max":617,"o":"m 617 340 l 169 340 q 197 184 171 242 q 274 101 223 126 q 407 76 325 76 q 581 104 483 76 l 581 15 q 394 -13 485 -13 q 207 26 281 -13 q 96 151 133 65 q 58 377 58 238 q 134 669 58 574 q 345 765 210 765 q 547 670 477 765 q 617 374 617 576 l 617 340 m 344 685 q 217 624 263 685 q 169 415 172 562 l 512 415 q 490 576 510 516 q 433 660 469 635 q 344 685 397 685 m 149 890 q 203 1059 153 1002 q 341 1116 253 1116 q 480 1059 429 1116 q 535 890 531 1001 l 463 890 q 427 1012 458 973 q 341 1051 397 1051 q 255 1012 284 1051 q 222 890 226 973 l 149 890 z "},"ē":{"ha":667,"x_min":58,"x_max":617,"o":"m 617 340 l 169 340 q 197 184 171 242 q 274 101 223 126 q 407 76 325 76 q 581 104 483 76 l 581 15 q 394 -13 485 -13 q 207 26 281 -13 q 96 151 133 65 q 58 377 58 238 q 134 669 58 574 q 345 765 210 765 q 547 670 477 765 q 617 374 617 576 l 617 340 m 344 685 q 217 624 263 685 q 169 415 172 562 l 512 415 q 490 576 510 516 q 433 660 469 635 q 344 685 397 685 m 139 951 l 139 1024 l 545 1024 l 545 951 l 139 951 z "},"ḗ":{"ha":667,"x_min":58,"x_max":617,"o":"m 617 340 l 169 340 q 197 184 171 242 q 274 101 223 126 q 407 76 325 76 q 581 104 483 76 l 581 15 q 394 -13 485 -13 q 207 26 281 -13 q 96 151 133 65 q 58 377 58 238 q 134 669 58 574 q 345 765 210 765 q 547 670 477 765 q 617 374 617 576 l 617 340 m 344 685 q 217 624 263 685 q 169 415 172 562 l 512 415 q 490 576 510 516 q 433 660 469 635 q 344 685 397 685 m 139 951 l 139 1024 l 545 1024 l 545 951 l 139 951 m 294 1124 l 401 1319 l 516 1319 l 390 1124 l 294 1124 z "},"ḕ":{"ha":667,"x_min":58,"x_max":617,"o":"m 617 340 l 169 340 q 197 184 171 242 q 274 101 223 126 q 407 76 325 76 q 581 104 483 76 l 581 15 q 394 -13 485 -13 q 207 26 281 -13 q 96 151 133 65 q 58 377 58 238 q 134 669 58 574 q 345 765 210 765 q 547 670 477 765 q 617 374 617 576 l 617 340 m 344 685 q 217 624 263 685 q 169 415 172 562 l 512 415 q 490 576 510 516 q 433 660 469 635 q 344 685 397 685 m 139 951 l 139 1024 l 545 1024 l 545 951 l 139 951 m 294 1124 l 168 1319 l 283 1319 l 390 1124 l 294 1124 z "},"ę":{"ha":667,"x_min":58,"x_max":617,"o":"m 617 340 l 169 340 q 197 184 171 242 q 274 101 223 126 q 407 76 325 76 q 581 104 483 76 l 581 15 q 440 -63 479 -20 q 401 -155 401 -106 q 424 -213 401 -192 q 486 -233 446 -233 q 581 -206 533 -233 l 581 -262 q 477 -288 535 -288 q 370 -255 408 -288 q 332 -162 332 -221 q 418 -12 332 -70 q 394 -13 410 -13 q 207 26 281 -13 q 96 151 133 65 q 58 377 58 238 q 134 669 58 574 q 345 765 210 765 q 547 670 477 765 q 617 374 617 576 l 617 340 m 344 684 q 217 623 263 684 q 169 414 172 561 l 512 414 q 490 574 510 515 q 433 659 469 633 q 344 684 397 684 z "},"ẽ":{"ha":667,"x_min":58,"x_max":617,"o":"m 617 340 l 169 340 q 197 184 171 242 q 274 101 223 126 q 407 76 325 76 q 581 104 483 76 l 581 15 q 394 -13 485 -13 q 207 26 281 -13 q 96 151 133 65 q 58 377 58 238 q 134 669 58 574 q 345 765 210 765 q 547 670 477 765 q 617 374 617 576 l 617 340 m 344 685 q 217 624 263 685 q 169 415 172 562 l 512 415 q 490 576 510 516 q 433 660 469 635 q 344 685 397 685 m 435 935 q 387 943 410 935 q 332 966 365 951 q 283 986 301 980 q 247 992 265 992 q 190 980 215 992 q 139 940 164 967 l 139 1018 q 249 1065 180 1065 q 296 1057 274 1065 q 352 1034 318 1049 q 399 1014 379 1021 q 437 1008 418 1008 q 494 1020 469 1008 q 545 1060 520 1033 l 545 982 q 435 935 503 935 z "},"ə":{"ha":667,"x_min":50,"x_max":608,"o":"m 272 767 q 459 727 385 767 q 571 602 533 688 q 608 376 608 516 q 533 84 608 179 q 322 -11 457 -11 q 120 83 190 -11 q 50 379 50 178 l 50 413 l 498 413 q 470 569 496 512 q 393 652 444 627 q 260 678 342 678 q 86 649 184 678 l 86 739 q 272 767 181 767 m 322 68 q 450 130 404 68 q 498 338 495 192 l 155 338 q 177 178 156 238 q 233 93 197 118 q 322 68 269 68 z "},"f":{"ha":460,"x_min":10,"x_max":494,"o":"m 409 1044 q 292 1008 330 1044 q 253 892 253 972 l 253 753 l 467 753 l 467 663 l 253 663 l 253 0 l 146 0 l 146 663 l 10 663 l 10 753 l 146 753 l 146 888 q 210 1073 146 1009 q 399 1136 274 1136 q 494 1128 451 1136 l 494 1037 q 409 1044 448 1044 z "},"g":{"ha":728,"x_min":58,"x_max":631,"o":"m 309 -319 q 204 -311 258 -319 q 105 -288 149 -303 l 105 -197 q 303 -230 209 -230 q 427 -208 379 -230 q 499 -137 475 -186 q 523 -6 523 -87 l 523 75 l 517 75 q 436 14 485 37 q 327 -10 388 -10 q 191 27 251 -10 q 94 147 131 64 q 58 362 58 230 q 150 665 58 565 q 420 765 242 765 q 531 756 474 765 q 631 733 588 748 l 631 10 q 552 -241 631 -163 q 309 -319 472 -319 m 359 83 q 452 106 408 83 q 523 169 497 128 l 523 663 q 413 676 469 676 q 231 604 292 676 q 169 372 169 532 q 193 198 169 261 q 259 109 217 134 q 359 83 301 83 z "},"ǵ":{"ha":728,"x_min":58,"x_max":631,"o":"m 309 -319 q 204 -311 258 -319 q 105 -288 149 -303 l 105 -197 q 303 -230 209 -230 q 427 -208 379 -230 q 499 -137 475 -186 q 523 -6 523 -87 l 523 75 l 517 75 q 436 14 485 37 q 327 -10 388 -10 q 191 27 251 -10 q 94 147 131 64 q 58 362 58 230 q 150 665 58 565 q 420 765 242 765 q 531 756 474 765 q 631 733 588 748 l 631 10 q 552 -241 631 -163 q 309 -319 472 -319 m 359 83 q 452 106 408 83 q 523 169 497 128 l 523 663 q 413 676 469 676 q 231 604 292 676 q 169 372 169 532 q 193 198 169 261 q 259 109 217 134 q 359 83 301 83 m 329 870 l 458 1122 l 573 1122 l 426 870 l 329 870 z "},"ğ":{"ha":728,"x_min":58,"x_max":631,"o":"m 309 -319 q 204 -311 258 -319 q 105 -288 149 -303 l 105 -197 q 303 -230 209 -230 q 427 -208 379 -230 q 499 -137 475 -186 q 523 -6 523 -87 l 523 75 l 517 75 q 436 14 485 37 q 327 -10 388 -10 q 191 27 251 -10 q 94 147 131 64 q 58 362 58 230 q 150 665 58 565 q 420 765 242 765 q 531 756 474 765 q 631 733 588 748 l 631 10 q 552 -241 631 -163 q 309 -319 472 -319 m 359 83 q 452 106 408 83 q 523 169 497 128 l 523 663 q 413 676 469 676 q 231 604 292 676 q 169 372 169 532 q 193 198 169 261 q 259 109 217 134 q 359 83 301 83 m 378 878 q 240 935 290 878 q 185 1104 189 993 l 258 1104 q 292 982 263 1022 q 378 943 322 943 q 465 982 435 943 q 498 1104 494 1021 l 570 1104 q 516 935 566 992 q 378 878 466 878 z "},"ǧ":{"ha":728,"x_min":58,"x_max":631,"o":"m 309 -319 q 204 -311 258 -319 q 105 -288 149 -303 l 105 -197 q 303 -230 209 -230 q 427 -208 379 -230 q 499 -137 475 -186 q 523 -6 523 -87 l 523 75 l 517 75 q 436 14 485 37 q 327 -10 388 -10 q 191 27 251 -10 q 94 147 131 64 q 58 362 58 230 q 150 665 58 565 q 420 765 242 765 q 531 756 474 765 q 631 733 588 748 l 631 10 q 552 -241 631 -163 q 309 -319 472 -319 m 359 83 q 452 106 408 83 q 523 169 497 128 l 523 663 q 413 676 469 676 q 231 604 292 676 q 169 372 169 532 q 193 198 169 261 q 259 109 217 134 q 359 83 301 83 m 483 1122 l 568 1122 l 426 870 l 328 870 l 188 1122 l 272 1122 l 378 926 l 483 1122 z "},"ĝ":{"ha":728,"x_min":58,"x_max":631,"o":"m 309 -319 q 204 -311 258 -319 q 105 -288 149 -303 l 105 -197 q 303 -230 209 -230 q 427 -208 379 -230 q 499 -137 475 -186 q 523 -6 523 -87 l 523 75 l 517 75 q 436 14 485 37 q 327 -10 388 -10 q 191 27 251 -10 q 94 147 131 64 q 58 362 58 230 q 150 665 58 565 q 420 765 242 765 q 531 756 474 765 q 631 733 588 748 l 631 10 q 552 -241 631 -163 q 309 -319 472 -319 m 359 83 q 452 106 408 83 q 523 169 497 128 l 523 663 q 413 676 469 676 q 231 604 292 676 q 169 372 169 532 q 193 198 169 261 q 259 109 217 134 q 359 83 301 83 m 567 870 l 482 870 l 378 1066 l 273 870 l 188 870 l 328 1122 l 426 1122 l 567 870 z "},"ģ":{"ha":728,"x_min":58,"x_max":631,"o":"m 309 -319 q 204 -311 258 -319 q 105 -288 149 -303 l 105 -197 q 303 -230 209 -230 q 427 -208 379 -230 q 499 -137 475 -186 q 523 -6 523 -87 l 523 75 l 517 75 q 436 14 485 37 q 327 -10 388 -10 q 191 27 251 -10 q 94 147 131 64 q 58 362 58 230 q 150 665 58 565 q 420 765 242 765 q 531 756 474 765 q 631 733 588 748 l 631 10 q 552 -241 631 -163 q 309 -319 472 -319 m 359 83 q 452 106 408 83 q 523 169 497 128 l 523 663 q 413 676 469 676 q 231 604 292 676 q 169 372 169 532 q 193 198 169 261 q 259 109 217 134 q 359 83 301 83 m 384 1031 q 433 1014 416 1029 q 449 974 449 999 q 431 934 449 949 q 380 919 413 919 q 325 938 344 919 q 306 994 306 957 q 317 1060 306 1024 q 345 1128 327 1097 l 413 1128 q 384 1031 390 1076 z "},"ġ":{"ha":728,"x_min":58,"x_max":631,"o":"m 309 -319 q 204 -311 258 -319 q 105 -288 149 -303 l 105 -197 q 303 -230 209 -230 q 427 -208 379 -230 q 499 -137 475 -186 q 523 -6 523 -87 l 523 75 l 517 75 q 436 14 485 37 q 327 -10 388 -10 q 191 27 251 -10 q 94 147 131 64 q 58 362 58 230 q 150 665 58 565 q 420 765 242 765 q 531 756 474 765 q 631 733 588 748 l 631 10 q 552 -241 631 -163 q 309 -319 472 -319 m 359 83 q 452 106 408 83 q 523 169 497 128 l 523 663 q 413 676 469 676 q 231 604 292 676 q 169 372 169 532 q 193 198 169 261 q 259 109 217 134 q 359 83 301 83 m 378 918 q 321 936 341 918 q 301 987 301 954 q 321 1038 301 1019 q 378 1056 341 1056 q 434 1038 414 1056 q 453 987 453 1019 q 434 936 453 954 q 378 918 414 918 z "},"ḡ":{"ha":728,"x_min":58,"x_max":631,"o":"m 309 -319 q 204 -311 258 -319 q 105 -288 149 -303 l 105 -197 q 303 -230 209 -230 q 427 -208 379 -230 q 499 -137 475 -186 q 523 -6 523 -87 l 523 75 l 517 75 q 436 14 485 37 q 327 -10 388 -10 q 191 27 251 -10 q 94 147 131 64 q 58 362 58 230 q 150 665 58 565 q 420 765 242 765 q 531 756 474 765 q 631 733 588 748 l 631 10 q 552 -241 631 -163 q 309 -319 472 -319 m 359 83 q 452 106 408 83 q 523 169 497 128 l 523 663 q 413 676 469 676 q 231 604 292 676 q 169 372 169 532 q 193 198 169 261 q 259 109 217 134 q 359 83 301 83 m 174 951 l 174 1024 l 581 1024 l 581 951 l 174 951 z "},"h":{"ha":733,"x_min":97,"x_max":644,"o":"m 97 1122 l 205 1122 l 205 670 l 211 670 q 307 741 252 717 q 424 765 362 765 q 585 705 526 765 q 644 510 644 644 l 644 0 l 535 0 l 535 506 q 499 630 535 593 q 394 667 463 667 q 290 642 342 667 q 205 566 238 617 l 205 0 l 97 0 l 97 1122 z "},"ħ":{"ha":733,"x_min":4,"x_max":644,"o":"m 424 765 q 585 705 526 765 q 644 510 644 644 l 644 0 l 535 0 l 535 506 q 499 630 535 593 q 394 667 463 667 q 290 642 342 667 q 205 566 238 617 l 205 0 l 97 0 l 97 903 l 4 903 l 4 979 l 97 979 l 97 1122 l 205 1122 l 205 979 l 428 979 l 428 903 l 205 903 l 205 670 l 211 670 q 307 741 252 717 q 424 765 362 765 z "},"ḫ":{"ha":733,"x_min":97,"x_max":644,"o":"m 97 1122 l 205 1122 l 205 670 l 211 670 q 307 741 252 717 q 424 765 362 765 q 585 705 526 765 q 644 510 644 644 l 644 0 l 535 0 l 535 506 q 499 630 535 593 q 394 667 463 667 q 290 642 342 667 q 205 566 238 617 l 205 0 l 97 0 l 97 1122 m 371 -292 q 230 -243 282 -292 q 177 -108 178 -194 l 250 -108 q 283 -197 253 -167 q 371 -226 314 -226 q 458 -197 428 -226 q 490 -108 489 -167 l 563 -108 q 510 -243 561 -195 q 371 -292 460 -292 z "},"ĥ":{"ha":733,"x_min":97,"x_max":644,"o":"m 97 1122 l 205 1122 l 205 670 l 211 670 q 307 741 252 717 q 424 765 362 765 q 585 705 526 765 q 644 510 644 644 l 644 0 l 535 0 l 535 506 q 499 630 535 593 q 394 667 463 667 q 290 642 342 667 q 205 566 238 617 l 205 0 l 97 0 l 97 1122 m 575 1184 l 483 1184 l 370 1333 l 256 1184 l 165 1184 l 319 1380 l 420 1380 l 575 1184 z "},"ḥ":{"ha":733,"x_min":97,"x_max":644,"o":"m 97 1122 l 205 1122 l 205 670 l 211 670 q 307 741 252 717 q 424 765 362 765 q 585 705 526 765 q 644 510 644 644 l 644 0 l 535 0 l 535 506 q 499 630 535 593 q 394 667 463 667 q 290 642 342 667 q 205 566 238 617 l 205 0 l 97 0 l 97 1122 m 370 -248 q 319 -230 338 -248 q 300 -181 300 -212 q 319 -132 300 -150 q 370 -114 338 -114 q 421 -132 402 -114 q 440 -181 440 -151 q 421 -230 440 -212 q 370 -248 402 -248 z "},"i":{"ha":301,"x_min":74,"x_max":226,"o":"m 97 0 l 97 753 l 205 753 l 205 0 l 97 0 m 151 918 q 94 936 114 918 q 74 987 74 954 q 94 1038 74 1019 q 151 1056 114 1056 q 207 1038 187 1056 q 226 987 226 1019 q 207 936 226 954 q 151 918 187 918 z "},"ı":{"ha":301,"x_min":97,"x_max":205,"o":"m 97 0 l 97 753 l 205 753 l 205 0 l 97 0 z "},"í":{"ha":301,"x_min":97,"x_max":346,"o":"m 97 0 l 97 753 l 205 753 l 205 0 l 97 0 m 102 870 l 231 1122 l 346 1122 l 199 870 l 102 870 z "},"ĭ":{"ha":301,"x_min":-42,"x_max":343,"o":"m 97 0 l 97 753 l 205 753 l 205 0 l 97 0 m 151 878 q 13 935 63 878 q -42 1104 -38 993 l 31 1104 q 65 982 35 1022 q 151 943 95 943 q 238 982 208 943 q 271 1104 267 1021 l 343 1104 q 289 935 339 992 q 151 878 239 878 z "},"î":{"ha":301,"x_min":-39,"x_max":340,"o":"m 97 0 l 97 753 l 205 753 l 205 0 l 97 0 m 340 870 l 255 870 l 151 1066 l 46 870 l -39 870 l 101 1122 l 199 1122 l 340 870 z "},"ȉ":{"ha":301,"x_min":-88,"x_max":301,"o":"m 97 0 l 97 753 l 205 753 l 205 0 l 97 0 m 0 870 l -88 1122 l 3 1122 l 83 870 l 0 870 m 218 870 l 130 1122 l 222 1122 l 301 870 l 218 870 z "},"ï":{"ha":301,"x_min":-56,"x_max":357,"o":"m 97 0 l 97 753 l 205 753 l 205 0 l 97 0 m 14 919 q -37 938 -19 919 q -56 987 -56 956 q -37 1037 -56 1018 q 14 1056 -18 1056 q 65 1037 46 1056 q 84 987 84 1018 q 65 938 84 956 q 14 919 47 919 m 287 919 q 235 938 254 919 q 217 987 217 956 q 236 1037 217 1018 q 287 1056 255 1056 q 338 1037 319 1056 q 357 987 357 1018 q 338 938 357 956 q 287 919 319 919 z "},"ḯ":{"ha":301,"x_min":-56,"x_max":357,"o":"m 97 0 l 97 753 l 205 753 l 205 0 l 97 0 m 14 919 q -37 938 -19 919 q -56 987 -56 956 q -37 1037 -56 1018 q 14 1056 -18 1056 q 65 1037 46 1056 q 84 987 84 1018 q 65 938 84 956 q 14 919 47 919 m 287 919 q 235 938 254 919 q 217 987 217 956 q 236 1037 217 1018 q 287 1056 255 1056 q 338 1037 319 1056 q 357 987 357 1018 q 338 938 357 956 q 287 919 319 919 m 125 1182 l 232 1378 l 347 1378 l 221 1182 l 125 1182 z "},"ị":{"ha":301,"x_min":74,"x_max":226,"o":"m 97 0 l 97 753 l 205 753 l 205 0 l 97 0 m 151 918 q 94 936 114 918 q 74 987 74 954 q 94 1038 74 1019 q 151 1056 114 1056 q 207 1038 187 1056 q 226 987 226 1019 q 207 936 226 954 q 151 918 187 918 m 151 -248 q 99 -230 118 -248 q 81 -181 81 -212 q 99 -132 81 -150 q 151 -114 118 -114 q 201 -132 183 -114 q 220 -181 220 -151 q 201 -230 220 -212 q 151 -248 183 -248 z "},"ì":{"ha":301,"x_min":-45,"x_max":205,"o":"m 97 0 l 97 753 l 205 753 l 205 0 l 97 0 m 102 870 l -45 1122 l 70 1122 l 199 870 l 102 870 z "},"ỉ":{"ha":301,"x_min":40,"x_max":288,"o":"m 97 0 l 97 753 l 205 753 l 205 0 l 97 0 m 117 870 q 126 916 117 897 q 148 948 135 935 q 181 975 161 960 q 210 1002 201 990 q 220 1028 220 1013 q 202 1064 220 1052 q 144 1075 184 1075 q 91 1071 119 1075 q 40 1058 63 1067 l 40 1114 q 92 1126 62 1122 q 149 1131 122 1131 q 288 1034 288 1131 q 274 984 288 1003 q 233 944 260 965 q 196 910 208 926 q 183 870 184 895 l 117 870 z "},"ȋ":{"ha":301,"x_min":-42,"x_max":343,"o":"m 97 0 l 97 753 l 205 753 l 205 0 l 97 0 m -42 890 q 11 1059 -38 1002 q 149 1116 61 1116 q 288 1059 238 1116 q 343 890 339 1001 l 271 890 q 236 1012 266 973 q 149 1051 206 1051 q 63 1012 92 1051 q 31 890 34 973 l -42 890 z "},"ī":{"ha":301,"x_min":-53,"x_max":353,"o":"m 97 0 l 97 753 l 205 753 l 205 0 l 97 0 m -53 951 l -53 1024 l 353 1024 l 353 951 l -53 951 z "},"į":{"ha":301,"x_min":11,"x_max":259,"o":"m 151 918 q 94 936 114 918 q 74 987 74 954 q 94 1038 74 1019 q 151 1056 114 1056 q 207 1038 187 1056 q 226 987 226 1019 q 207 936 226 954 q 151 918 187 918 m 165 -233 q 259 -206 213 -233 l 259 -262 q 211 -281 238 -274 q 156 -288 184 -288 q 49 -255 87 -288 q 11 -162 11 -221 q 34 -76 11 -115 q 108 0 57 -36 l 97 0 l 97 753 l 205 753 l 205 0 q 109 -75 138 -39 q 81 -155 81 -112 q 103 -213 81 -192 q 165 -233 125 -233 z "},"ĩ":{"ha":301,"x_min":-53,"x_max":353,"o":"m 97 0 l 97 753 l 205 753 l 205 0 l 97 0 m 244 935 q 195 943 218 935 q 140 966 173 951 q 92 986 110 980 q 56 992 74 992 q -2 980 24 992 q -53 940 -28 967 l -53 1018 q 57 1065 -12 1065 q 104 1057 82 1065 q 160 1034 126 1049 q 207 1014 188 1021 q 245 1008 226 1008 q 303 1020 277 1008 q 353 1060 328 1033 l 353 982 q 244 935 312 935 z "},"j":{"ha":301,"x_min":-21,"x_max":226,"o":"m -21 -274 q 70 -92 43 -181 q 97 117 97 -4 l 97 753 l 205 753 l 205 125 q 189 -41 205 33 q 141 -182 174 -115 q 52 -322 108 -249 l -21 -274 m 150 919 q 93 938 113 919 q 74 988 74 956 q 93 1039 74 1021 q 150 1058 113 1058 q 206 1039 186 1058 q 226 988 226 1021 q 206 938 226 956 q 150 919 186 919 z "},"ȷ":{"ha":301,"x_min":-21,"x_max":205,"o":"m -21 -274 q 70 -92 43 -181 q 97 117 97 -4 l 97 753 l 205 753 l 205 125 q 189 -41 205 33 q 141 -182 174 -115 q 52 -322 108 -249 l -21 -274 z "},"ĵ":{"ha":301,"x_min":-40,"x_max":339,"o":"m -21 -274 q 70 -92 43 -181 q 97 117 97 -4 l 97 753 l 205 753 l 205 125 q 189 -41 205 33 q 141 -182 174 -115 q 52 -322 108 -249 l -21 -274 m 339 872 l 254 872 l 150 1067 l 45 872 l -40 872 l 101 1124 l 199 1124 l 339 872 z "},"k":{"ha":675,"x_min":97,"x_max":693,"o":"m 570 0 l 319 340 l 205 340 l 205 0 l 97 0 l 97 1122 l 205 1122 l 205 431 l 318 431 l 550 753 l 669 753 l 408 388 l 693 0 l 570 0 z "},"ķ":{"ha":675,"x_min":97,"x_max":693,"o":"m 570 0 l 319 340 l 205 340 l 205 0 l 97 0 l 97 1122 l 205 1122 l 205 431 l 318 431 l 550 753 l 669 753 l 408 388 l 693 0 l 570 0 m 364 -114 q 419 -133 400 -114 q 438 -189 438 -152 q 427 -255 438 -219 q 399 -323 417 -292 l 331 -323 q 359 -226 355 -267 q 311 -209 328 -224 q 294 -169 294 -194 q 313 -129 294 -144 q 364 -114 331 -114 z "},"ĸ":{"ha":675,"x_min":97,"x_max":693,"o":"m 570 0 l 319 340 l 205 340 l 205 0 l 97 0 l 97 753 l 205 753 l 205 431 l 318 431 l 550 753 l 669 753 l 408 388 l 693 0 l 570 0 z "},"l":{"ha":301,"x_min":97,"x_max":205,"o":"m 97 0 l 97 1122 l 205 1122 l 205 0 l 97 0 z "},"ĺ":{"ha":301,"x_min":97,"x_max":324,"o":"m 97 0 l 97 1122 l 205 1122 l 205 0 l 97 0 m 102 1184 l 209 1380 l 324 1380 l 198 1184 l 102 1184 z "},"ľ":{"ha":301,"x_min":97,"x_max":357,"o":"m 97 0 l 97 1122 l 205 1122 l 205 0 l 97 0 m 261 819 q 276 1122 276 941 l 357 1122 q 349 965 357 1044 q 324 819 340 886 l 261 819 z "},"ļ":{"ha":301,"x_min":79,"x_max":222,"o":"m 97 0 l 97 1122 l 205 1122 l 205 0 l 97 0 m 149 -114 q 203 -133 185 -114 q 222 -189 222 -152 q 212 -255 222 -219 q 183 -323 201 -292 l 115 -323 q 144 -226 140 -267 q 96 -209 113 -224 q 79 -169 79 -194 q 97 -129 79 -144 q 149 -114 115 -114 z "},"ŀ":{"ha":376,"x_min":97,"x_max":410,"o":"m 97 0 l 97 1122 l 205 1122 l 205 0 l 97 0 m 335 482 q 279 500 299 482 q 259 550 259 518 q 279 601 259 583 q 335 620 299 620 q 391 601 372 620 q 410 550 410 583 q 391 500 410 518 q 335 482 372 482 z "},"ḷ":{"ha":301,"x_min":81,"x_max":220,"o":"m 97 0 l 97 1122 l 205 1122 l 205 0 l 97 0 m 151 -248 q 99 -230 118 -248 q 81 -181 81 -212 q 99 -132 81 -150 q 151 -114 118 -114 q 201 -132 183 -114 q 220 -181 220 -151 q 201 -230 220 -212 q 151 -248 183 -248 z "},"ǉ":{"ha":603,"x_min":97,"x_max":527,"o":"m 97 0 l 97 1122 l 205 1122 l 205 0 l 97 0 m 281 -274 q 371 -92 344 -181 q 398 117 398 -4 l 398 753 l 506 753 l 506 125 q 491 -41 506 33 q 442 -182 475 -115 q 353 -322 409 -249 l 281 -274 m 451 919 q 395 938 415 919 q 375 988 375 956 q 395 1039 375 1021 q 451 1058 415 1058 q 507 1039 488 1058 q 527 988 527 1021 q 507 938 527 956 q 451 919 488 919 z "},"ḻ":{"ha":301,"x_min":-36,"x_max":338,"o":"m 97 0 l 97 1122 l 205 1122 l 205 0 l 97 0 m -36 -217 l -36 -144 l 338 -144 l 338 -217 l -36 -217 z "},"ł":{"ha":301,"x_min":-11,"x_max":313,"o":"m 313 572 l 205 490 l 205 0 l 97 0 l 97 408 l 29 358 l -11 419 l 97 501 l 97 1122 l 205 1122 l 205 583 l 273 634 l 313 572 z "},"m":{"ha":1111,"x_min":97,"x_max":1022,"o":"m 808 765 q 964 705 906 765 q 1022 510 1022 644 l 1022 0 l 914 0 l 914 506 q 782 668 914 668 q 690 644 736 668 q 612 569 643 621 q 615 513 615 545 l 615 0 l 508 0 l 508 506 q 474 631 508 593 q 379 668 440 668 q 284 642 332 668 q 205 563 235 617 l 205 0 l 97 0 l 97 753 l 188 753 l 196 669 l 203 669 q 296 741 243 717 q 409 765 349 765 q 589 658 541 765 q 692 739 635 714 q 808 765 749 765 z "},"ṃ":{"ha":1111,"x_min":97,"x_max":1022,"o":"m 808 765 q 964 705 906 765 q 1022 510 1022 644 l 1022 0 l 914 0 l 914 506 q 782 668 914 668 q 690 644 736 668 q 612 569 643 621 q 615 513 615 545 l 615 0 l 508 0 l 508 506 q 474 631 508 593 q 379 668 440 668 q 284 642 332 668 q 205 563 235 617 l 205 0 l 97 0 l 97 753 l 188 753 l 196 669 l 203 669 q 296 741 243 717 q 409 765 349 765 q 589 658 541 765 q 692 739 635 714 q 808 765 749 765 m 561 -248 q 510 -230 528 -248 q 491 -181 491 -212 q 510 -132 491 -150 q 561 -114 528 -114 q 612 -132 593 -114 q 631 -181 631 -151 q 612 -230 631 -212 q 561 -248 593 -248 z "},"n":{"ha":733,"x_min":97,"x_max":644,"o":"m 97 753 l 188 753 l 196 669 l 203 669 q 300 740 244 715 q 421 765 356 765 q 584 705 525 765 q 644 512 644 646 l 644 0 l 535 0 l 535 506 q 499 631 535 594 q 394 668 463 668 q 290 643 342 668 q 205 566 238 619 l 205 0 l 97 0 l 97 753 z "},"ń":{"ha":733,"x_min":97,"x_max":644,"o":"m 97 753 l 188 753 l 196 669 l 203 669 q 300 740 244 715 q 421 765 356 765 q 584 705 525 765 q 644 512 644 646 l 644 0 l 535 0 l 535 506 q 499 631 535 594 q 394 668 463 668 q 290 643 342 668 q 205 566 238 619 l 205 0 l 97 0 l 97 753 m 322 870 l 450 1122 l 565 1122 l 418 870 l 322 870 z "},"ŉ":{"ha":733,"x_min":8,"x_max":644,"o":"m 97 753 l 188 753 l 196 669 l 203 669 q 300 740 244 715 q 421 765 356 765 q 584 705 525 765 q 644 512 644 646 l 644 0 l 535 0 l 535 506 q 499 631 535 594 q 394 668 463 668 q 290 643 342 668 q 205 566 238 619 l 205 0 l 97 0 l 97 753 m 77 1128 q 132 1109 113 1128 q 150 1053 150 1090 q 140 987 150 1023 q 112 919 130 951 l 44 919 q 72 1016 67 971 q 24 1033 41 1017 q 8 1073 8 1048 q 26 1113 8 1098 q 77 1128 44 1128 z "},"ň":{"ha":733,"x_min":97,"x_max":644,"o":"m 97 753 l 188 753 l 196 669 l 203 669 q 300 740 244 715 q 421 765 356 765 q 584 705 525 765 q 644 512 644 646 l 644 0 l 535 0 l 535 506 q 499 631 535 594 q 394 668 463 668 q 290 643 342 668 q 205 566 238 619 l 205 0 l 97 0 l 97 753 m 475 1122 l 560 1122 l 419 870 l 321 870 l 180 1122 l 265 1122 l 370 926 l 475 1122 z "},"ņ":{"ha":733,"x_min":97,"x_max":644,"o":"m 97 753 l 188 753 l 196 669 l 203 669 q 300 740 244 715 q 421 765 356 765 q 584 705 525 765 q 644 512 644 646 l 644 0 l 535 0 l 535 506 q 499 631 535 594 q 394 668 463 668 q 290 643 342 668 q 205 566 238 619 l 205 0 l 97 0 l 97 753 m 368 -114 q 423 -133 404 -114 q 442 -189 442 -152 q 431 -255 442 -219 q 403 -323 421 -292 l 335 -323 q 363 -226 359 -267 q 315 -209 332 -224 q 299 -169 299 -194 q 317 -129 299 -144 q 368 -114 335 -114 z "},"ṅ":{"ha":733,"x_min":97,"x_max":644,"o":"m 97 753 l 188 753 l 196 669 l 203 669 q 300 740 244 715 q 421 765 356 765 q 584 705 525 765 q 644 512 644 646 l 644 0 l 535 0 l 535 506 q 499 631 535 594 q 394 668 463 668 q 290 643 342 668 q 205 566 238 619 l 205 0 l 97 0 l 97 753 m 370 918 q 314 936 333 918 q 294 987 294 954 q 314 1038 294 1019 q 370 1056 333 1056 q 426 1038 406 1056 q 446 987 446 1019 q 426 936 446 954 q 370 918 406 918 z "},"ṇ":{"ha":733,"x_min":97,"x_max":644,"o":"m 97 753 l 188 753 l 196 669 l 203 669 q 300 740 244 715 q 421 765 356 765 q 584 705 525 765 q 644 512 644 646 l 644 0 l 535 0 l 535 506 q 499 631 535 594 q 394 668 463 668 q 290 643 342 668 q 205 566 238 619 l 205 0 l 97 0 l 97 753 m 370 -248 q 319 -230 338 -248 q 300 -181 300 -212 q 319 -132 300 -150 q 370 -114 338 -114 q 421 -132 402 -114 q 440 -181 440 -151 q 421 -230 440 -212 q 370 -248 402 -248 z "},"ŋ":{"ha":733,"x_min":97,"x_max":644,"o":"m 418 -274 q 509 -92 482 -181 q 535 117 535 -4 l 535 507 q 499 632 535 594 q 394 669 463 669 q 290 644 342 669 q 205 567 238 619 l 205 0 l 97 0 l 97 753 l 188 753 l 196 669 l 203 669 q 301 741 245 717 q 421 765 357 765 q 584 705 525 765 q 644 510 644 645 l 644 104 q 606 -119 640 -21 q 491 -322 571 -217 l 418 -274 z "},"ǌ":{"ha":1035,"x_min":97,"x_max":959,"o":"m 97 753 l 188 753 l 196 669 l 203 669 q 300 740 244 715 q 421 765 356 765 q 584 705 525 765 q 644 512 644 646 l 644 0 l 535 0 l 535 506 q 499 631 535 594 q 394 668 463 668 q 290 643 342 668 q 205 566 238 619 l 205 0 l 97 0 l 97 753 m 713 -274 q 803 -92 776 -181 q 830 117 830 -4 l 830 753 l 938 753 l 938 125 q 923 -41 938 33 q 874 -182 907 -115 q 785 -322 841 -249 l 713 -274 m 883 919 q 827 938 847 919 q 807 988 807 956 q 827 1039 807 1021 q 883 1058 847 1058 q 939 1039 919 1058 q 959 988 959 1021 q 939 938 959 956 q 883 919 919 919 z "},"ṉ":{"ha":733,"x_min":97,"x_max":644,"o":"m 97 753 l 188 753 l 196 669 l 203 669 q 300 740 244 715 q 421 765 356 765 q 584 705 525 765 q 644 512 644 646 l 644 0 l 535 0 l 535 506 q 499 631 535 594 q 394 668 463 668 q 290 643 342 668 q 205 566 238 619 l 205 0 l 97 0 l 97 753 m 183 -217 l 183 -144 l 557 -144 l 557 -217 l 183 -217 z "},"ñ":{"ha":733,"x_min":97,"x_max":644,"o":"m 97 753 l 188 753 l 196 669 l 203 669 q 300 740 244 715 q 421 765 356 765 q 584 705 525 765 q 644 512 644 646 l 644 0 l 535 0 l 535 506 q 499 631 535 594 q 394 668 463 668 q 290 643 342 668 q 205 566 238 619 l 205 0 l 97 0 l 97 753 m 463 935 q 415 943 438 935 q 360 966 392 951 q 311 986 329 980 q 275 992 293 992 q 217 980 243 992 q 167 940 192 967 l 167 1018 q 276 1065 208 1065 q 324 1057 301 1065 q 380 1034 346 1049 q 426 1014 407 1021 q 465 1008 446 1008 q 522 1020 497 1008 q 573 1060 548 1033 l 573 982 q 463 935 531 935 z "},"o":{"ha":719,"x_min":58,"x_max":660,"o":"m 360 -13 q 138 82 217 -13 q 58 376 58 176 q 137 670 58 576 q 360 765 215 765 q 582 670 503 765 q 660 376 660 576 q 582 82 660 177 q 360 -13 503 -13 m 360 75 q 463 103 421 75 q 527 197 505 131 q 550 374 550 263 q 527 554 550 488 q 463 649 505 621 q 360 676 422 676 q 256 649 298 676 q 192 555 215 621 q 169 378 169 490 q 192 198 169 265 q 256 103 215 131 q 360 75 298 75 z "},"ó":{"ha":719,"x_min":58,"x_max":660,"o":"m 360 -13 q 138 82 217 -13 q 58 376 58 176 q 137 670 58 576 q 360 765 215 765 q 582 670 503 765 q 660 376 660 576 q 582 82 660 177 q 360 -13 503 -13 m 360 75 q 463 103 421 75 q 527 197 505 131 q 550 374 550 263 q 527 554 550 488 q 463 649 505 621 q 360 676 422 676 q 256 649 298 676 q 192 555 215 621 q 169 378 169 490 q 192 198 169 265 q 256 103 215 131 q 360 75 298 75 m 311 870 l 440 1122 l 555 1122 l 408 870 l 311 870 z "},"ŏ":{"ha":719,"x_min":58,"x_max":660,"o":"m 360 -13 q 138 82 217 -13 q 58 376 58 176 q 137 670 58 576 q 360 765 215 765 q 582 670 503 765 q 660 376 660 576 q 582 82 660 177 q 360 -13 503 -13 m 360 75 q 463 103 421 75 q 527 197 505 131 q 550 374 550 263 q 527 554 550 488 q 463 649 505 621 q 360 676 422 676 q 256 649 298 676 q 192 555 215 621 q 169 378 169 490 q 192 198 169 265 q 256 103 215 131 q 360 75 298 75 m 360 878 q 222 935 272 878 q 167 1104 171 993 l 240 1104 q 274 982 244 1022 q 360 943 304 943 q 447 982 417 943 q 480 1104 476 1021 l 552 1104 q 498 935 548 992 q 360 878 448 878 z "},"ô":{"ha":719,"x_min":58,"x_max":660,"o":"m 360 -13 q 138 82 217 -13 q 58 376 58 176 q 137 670 58 576 q 360 765 215 765 q 582 670 503 765 q 660 376 660 576 q 582 82 660 177 q 360 -13 503 -13 m 360 75 q 463 103 421 75 q 527 197 505 131 q 550 374 550 263 q 527 554 550 488 q 463 649 505 621 q 360 676 422 676 q 256 649 298 676 q 192 555 215 621 q 169 378 169 490 q 192 198 169 265 q 256 103 215 131 q 360 75 298 75 m 549 870 l 464 870 l 360 1066 l 255 870 l 170 870 l 310 1122 l 408 1122 l 549 870 z "},"ố":{"ha":719,"x_min":58,"x_max":704,"o":"m 360 -13 q 138 82 217 -13 q 58 376 58 176 q 137 670 58 576 q 360 765 215 765 q 582 670 503 765 q 660 376 660 576 q 582 82 660 177 q 360 -13 503 -13 m 360 75 q 463 103 421 75 q 527 197 505 131 q 550 374 550 263 q 527 554 550 488 q 463 649 505 621 q 360 676 422 676 q 256 649 298 676 q 192 555 215 621 q 169 378 169 490 q 192 198 169 265 q 256 103 215 131 q 360 75 298 75 m 605 1297 l 704 1297 l 578 1108 l 498 1108 l 605 1297 m 310 1122 l 408 1122 l 549 870 l 464 870 l 360 1066 l 255 870 l 170 870 l 310 1122 z "},"ộ":{"ha":719,"x_min":58,"x_max":660,"o":"m 360 -13 q 138 82 217 -13 q 58 376 58 176 q 137 670 58 576 q 360 765 215 765 q 582 670 503 765 q 660 376 660 576 q 582 82 660 177 q 360 -13 503 -13 m 360 75 q 463 103 421 75 q 527 197 505 131 q 550 374 550 263 q 527 554 550 488 q 463 649 505 621 q 360 676 422 676 q 256 649 298 676 q 192 555 215 621 q 169 378 169 490 q 192 198 169 265 q 256 103 215 131 q 360 75 298 75 m 360 -248 q 308 -230 327 -248 q 290 -181 290 -212 q 308 -132 290 -150 q 360 -114 327 -114 q 410 -132 392 -114 q 429 -181 429 -151 q 410 -230 429 -212 q 360 -248 392 -248 m 549 870 l 464 870 l 360 1066 l 255 870 l 170 870 l 310 1122 l 408 1122 l 549 870 z "},"ồ":{"ha":719,"x_min":58,"x_max":660,"o":"m 360 -13 q 138 82 217 -13 q 58 376 58 176 q 137 670 58 576 q 360 765 215 765 q 582 670 503 765 q 660 376 660 576 q 582 82 660 177 q 360 -13 503 -13 m 360 75 q 463 103 421 75 q 527 197 505 131 q 550 374 550 263 q 527 554 550 488 q 463 649 505 621 q 360 676 422 676 q 256 649 298 676 q 192 555 215 621 q 169 378 169 490 q 192 198 169 265 q 256 103 215 131 q 360 75 298 75 m 588 1108 l 508 1108 l 382 1297 l 481 1297 l 588 1108 m 310 1122 l 408 1122 l 549 870 l 464 870 l 360 1066 l 255 870 l 170 870 l 310 1122 z "},"ổ":{"ha":719,"x_min":58,"x_max":663,"o":"m 360 -13 q 138 82 217 -13 q 58 376 58 176 q 137 670 58 576 q 360 765 215 765 q 582 670 503 765 q 660 376 660 576 q 582 82 660 177 q 360 -13 503 -13 m 360 75 q 463 103 421 75 q 527 197 505 131 q 550 374 550 263 q 527 554 550 488 q 463 649 505 621 q 360 676 422 676 q 256 649 298 676 q 192 555 215 621 q 169 378 169 490 q 192 198 169 265 q 256 103 215 131 q 360 75 298 75 m 526 1301 q 629 1281 594 1301 q 663 1225 663 1261 q 648 1185 663 1199 q 604 1158 633 1172 q 568 1136 581 1146 q 553 1108 555 1126 l 488 1108 q 507 1152 490 1138 q 555 1181 524 1167 q 586 1199 576 1192 q 597 1219 597 1207 q 579 1244 597 1235 q 520 1252 562 1252 q 393 1229 454 1252 l 393 1279 q 454 1295 418 1290 q 526 1301 490 1301 m 310 1122 l 408 1122 l 549 870 l 464 870 l 360 1066 l 255 870 l 170 870 l 310 1122 z "},"ỗ":{"ha":719,"x_min":58,"x_max":660,"o":"m 360 -13 q 138 82 217 -13 q 58 376 58 176 q 137 670 58 576 q 360 765 215 765 q 582 670 503 765 q 660 376 660 576 q 582 82 660 177 q 360 -13 503 -13 m 360 75 q 463 103 421 75 q 527 197 505 131 q 550 374 550 263 q 527 554 550 488 q 463 649 505 621 q 360 676 422 676 q 256 649 298 676 q 192 555 215 621 q 169 378 169 490 q 192 198 169 265 q 256 103 215 131 q 360 75 298 75 m 457 1215 q 516 1226 490 1215 q 567 1263 542 1238 l 567 1193 q 456 1150 525 1150 q 405 1157 429 1150 q 349 1178 381 1164 q 300 1196 318 1190 q 262 1201 281 1201 q 203 1190 229 1201 q 153 1153 177 1178 l 153 1223 q 263 1267 194 1267 q 312 1260 290 1267 q 369 1239 335 1253 q 418 1220 399 1226 q 457 1215 438 1215 m 309 1109 l 410 1109 l 553 871 l 466 871 l 360 1058 l 253 871 l 165 871 l 309 1109 z "},"ȍ":{"ha":719,"x_min":58,"x_max":660,"o":"m 360 -13 q 138 82 217 -13 q 58 376 58 176 q 137 670 58 576 q 360 765 215 765 q 582 670 503 765 q 660 376 660 576 q 582 82 660 177 q 360 -13 503 -13 m 360 75 q 463 103 421 75 q 527 197 505 131 q 550 374 550 263 q 527 554 550 488 q 463 649 505 621 q 360 676 422 676 q 256 649 298 676 q 192 555 215 621 q 169 378 169 490 q 192 198 169 265 q 256 103 215 131 q 360 75 298 75 m 209 870 l 121 1122 l 213 1122 l 292 870 l 209 870 m 427 870 l 339 1122 l 431 1122 l 510 870 l 427 870 z "},"ö":{"ha":719,"x_min":58,"x_max":660,"o":"m 360 -13 q 138 82 217 -13 q 58 376 58 176 q 137 670 58 576 q 360 765 215 765 q 582 670 503 765 q 660 376 660 576 q 582 82 660 177 q 360 -13 503 -13 m 360 75 q 463 103 421 75 q 527 197 505 131 q 550 374 550 263 q 527 554 550 488 q 463 649 505 621 q 360 676 422 676 q 256 649 298 676 q 192 555 215 621 q 169 378 169 490 q 192 198 169 265 q 256 103 215 131 q 360 75 298 75 m 223 919 q 172 938 190 919 q 153 987 153 956 q 172 1037 153 1018 q 223 1056 191 1056 q 274 1037 255 1056 q 293 987 293 1018 q 274 938 293 956 q 223 919 256 919 m 496 919 q 444 938 463 919 q 426 987 426 956 q 445 1037 426 1018 q 496 1056 464 1056 q 547 1037 528 1056 q 566 987 566 1018 q 547 938 566 956 q 496 919 528 919 z "},"ȫ":{"ha":719,"x_min":58,"x_max":660,"o":"m 360 -13 q 138 82 217 -13 q 58 376 58 176 q 137 670 58 576 q 360 765 215 765 q 582 670 503 765 q 660 376 660 576 q 582 82 660 177 q 360 -13 503 -13 m 360 75 q 463 103 421 75 q 527 197 505 131 q 550 374 550 263 q 527 554 550 488 q 463 649 505 621 q 360 676 422 676 q 256 649 298 676 q 192 555 215 621 q 169 378 169 490 q 192 198 169 265 q 256 103 215 131 q 360 75 298 75 m 223 919 q 172 938 190 919 q 153 987 153 956 q 172 1037 153 1018 q 223 1056 191 1056 q 274 1037 255 1056 q 293 987 293 1018 q 274 938 293 956 q 223 919 256 919 m 496 919 q 444 938 463 919 q 426 987 426 956 q 445 1037 426 1018 q 496 1056 464 1056 q 547 1037 528 1056 q 566 987 566 1018 q 547 938 566 956 q 496 919 528 919 m 156 1160 l 156 1234 l 563 1234 l 563 1160 l 156 1160 z "},"ȱ":{"ha":719,"x_min":58,"x_max":660,"o":"m 360 -13 q 138 82 217 -13 q 58 376 58 176 q 137 670 58 576 q 360 765 215 765 q 582 670 503 765 q 660 376 660 576 q 582 82 660 177 q 360 -13 503 -13 m 360 75 q 463 103 421 75 q 527 197 505 131 q 550 374 550 263 q 527 554 550 488 q 463 649 505 621 q 360 676 422 676 q 256 649 298 676 q 192 555 215 621 q 169 378 169 490 q 192 198 169 265 q 256 103 215 131 q 360 75 298 75 m 360 918 q 303 936 323 918 q 283 987 283 954 q 303 1038 283 1019 q 360 1056 323 1056 q 416 1038 396 1056 q 435 987 435 1019 q 416 936 435 954 q 360 918 396 918 m 156 1161 l 156 1235 l 563 1235 l 563 1161 l 156 1161 z "},"ọ":{"ha":719,"x_min":58,"x_max":660,"o":"m 360 -13 q 138 82 217 -13 q 58 376 58 176 q 137 670 58 576 q 360 765 215 765 q 582 670 503 765 q 660 376 660 576 q 582 82 660 177 q 360 -13 503 -13 m 360 75 q 463 103 421 75 q 527 197 505 131 q 550 374 550 263 q 527 554 550 488 q 463 649 505 621 q 360 676 422 676 q 256 649 298 676 q 192 555 215 621 q 169 378 169 490 q 192 198 169 265 q 256 103 215 131 q 360 75 298 75 m 360 -248 q 308 -230 327 -248 q 290 -181 290 -212 q 308 -132 290 -150 q 360 -114 327 -114 q 410 -132 392 -114 q 429 -181 429 -151 q 410 -230 429 -212 q 360 -248 392 -248 z "},"ò":{"ha":719,"x_min":58,"x_max":660,"o":"m 360 -13 q 138 82 217 -13 q 58 376 58 176 q 137 670 58 576 q 360 765 215 765 q 582 670 503 765 q 660 376 660 576 q 582 82 660 177 q 360 -13 503 -13 m 360 75 q 463 103 421 75 q 527 197 505 131 q 550 374 550 263 q 527 554 550 488 q 463 649 505 621 q 360 676 422 676 q 256 649 298 676 q 192 555 215 621 q 169 378 169 490 q 192 198 169 265 q 256 103 215 131 q 360 75 298 75 m 311 870 l 164 1122 l 279 1122 l 408 870 l 311 870 z "},"ỏ":{"ha":719,"x_min":58,"x_max":660,"o":"m 360 -13 q 138 82 217 -13 q 58 376 58 176 q 137 670 58 576 q 360 765 215 765 q 582 670 503 765 q 660 376 660 576 q 582 82 660 177 q 360 -13 503 -13 m 360 75 q 463 103 421 75 q 527 197 505 131 q 550 374 550 263 q 527 554 550 488 q 463 649 505 621 q 360 676 422 676 q 256 649 298 676 q 192 555 215 621 q 169 378 169 490 q 192 198 169 265 q 256 103 215 131 q 360 75 298 75 m 326 870 q 335 916 326 897 q 357 948 344 935 q 390 975 370 960 q 419 1002 410 990 q 429 1028 429 1013 q 411 1064 429 1052 q 353 1075 393 1075 q 300 1071 328 1075 q 249 1058 272 1067 l 249 1114 q 301 1126 271 1122 q 358 1131 331 1131 q 497 1034 497 1131 q 483 984 497 1003 q 442 944 469 965 q 405 910 417 926 q 392 870 393 895 l 326 870 z "},"ơ":{"ha":719,"x_min":58,"x_max":681,"o":"m 555 699 q 660 376 660 603 q 582 82 660 177 q 360 -13 503 -13 q 138 82 217 -13 q 58 376 58 176 q 137 670 58 576 q 361 765 215 765 q 431 761 379 765 q 452 760 441 760 q 475 759 463 759 q 568 786 534 759 q 601 872 601 814 q 598 919 601 897 q 586 969 594 942 l 665 969 q 677 920 674 944 q 681 867 681 897 q 648 756 681 799 q 555 699 614 713 m 360 75 q 463 103 421 75 q 527 197 505 131 q 550 374 550 263 q 527 554 550 488 q 463 649 505 621 q 360 676 422 676 q 256 649 298 676 q 192 555 215 621 q 169 378 169 490 q 192 198 169 265 q 256 103 215 131 q 360 75 298 75 z "},"ớ":{"ha":719,"x_min":58,"x_max":681,"o":"m 548 1122 l 404 870 l 310 870 l 435 1122 l 548 1122 m 555 699 q 660 376 660 603 q 582 82 660 177 q 360 -13 503 -13 q 138 82 217 -13 q 58 376 58 176 q 137 670 58 576 q 361 765 215 765 q 431 761 379 765 q 452 760 441 760 q 475 759 463 759 q 568 786 534 759 q 601 872 601 814 q 598 919 601 897 q 586 969 594 942 l 665 969 q 677 920 674 944 q 681 867 681 897 q 648 756 681 799 q 555 699 614 713 m 360 75 q 463 103 421 75 q 527 197 505 131 q 550 374 550 263 q 527 554 550 488 q 463 649 505 621 q 360 676 422 676 q 256 649 298 676 q 192 555 215 621 q 169 378 169 490 q 192 198 169 265 q 256 103 215 131 q 360 75 298 75 z "},"ợ":{"ha":719,"x_min":58,"x_max":681,"o":"m 555 699 q 660 376 660 603 q 582 82 660 177 q 360 -13 503 -13 q 138 82 217 -13 q 58 376 58 176 q 137 670 58 576 q 361 765 215 765 q 431 761 379 765 q 452 760 441 760 q 475 759 463 759 q 568 786 534 759 q 601 872 601 814 q 598 919 601 897 q 586 969 594 942 l 665 969 q 677 920 674 944 q 681 867 681 897 q 648 756 681 799 q 555 699 614 713 m 360 75 q 463 103 421 75 q 527 197 505 131 q 550 374 550 263 q 527 554 550 488 q 463 649 505 621 q 360 676 422 676 q 256 649 298 676 q 192 555 215 621 q 169 378 169 490 q 192 198 169 265 q 256 103 215 131 q 360 75 298 75 m 359 -248 q 308 -230 326 -248 q 289 -181 289 -212 q 308 -132 289 -150 q 359 -114 326 -114 q 410 -132 391 -114 q 428 -181 428 -151 q 410 -230 428 -212 q 359 -248 391 -248 z "},"ờ":{"ha":719,"x_min":58,"x_max":681,"o":"m 555 699 q 660 376 660 603 q 582 82 660 177 q 360 -13 503 -13 q 138 82 217 -13 q 58 376 58 176 q 137 670 58 576 q 361 765 215 765 q 431 761 379 765 q 452 760 441 760 q 475 759 463 759 q 568 786 534 759 q 601 872 601 814 q 598 919 601 897 q 586 969 594 942 l 665 969 q 677 920 674 944 q 681 867 681 897 q 648 756 681 799 q 555 699 614 713 m 360 75 q 463 103 421 75 q 527 197 505 131 q 550 374 550 263 q 527 554 550 488 q 463 649 505 621 q 360 676 422 676 q 256 649 298 676 q 192 555 215 621 q 169 378 169 490 q 192 198 169 265 q 256 103 215 131 q 360 75 298 75 m 308 870 l 161 1122 l 276 1122 l 405 870 l 308 870 z "},"ở":{"ha":719,"x_min":58,"x_max":681,"o":"m 555 699 q 660 376 660 603 q 582 82 660 177 q 360 -13 503 -13 q 138 82 217 -13 q 58 376 58 176 q 137 670 58 576 q 361 765 215 765 q 431 761 379 765 q 452 760 441 760 q 475 759 463 759 q 568 786 534 759 q 601 872 601 814 q 598 919 601 897 q 586 969 594 942 l 665 969 q 677 920 674 944 q 681 867 681 897 q 648 756 681 799 q 555 699 614 713 m 360 75 q 463 103 421 75 q 527 197 505 131 q 550 374 550 263 q 527 554 550 488 q 463 649 505 621 q 360 676 422 676 q 256 649 298 676 q 192 555 215 621 q 169 378 169 490 q 192 198 169 265 q 256 103 215 131 q 360 75 298 75 m 323 870 q 333 916 324 897 q 355 948 342 935 q 387 975 367 960 q 417 1002 407 990 q 426 1028 426 1013 q 408 1064 426 1052 q 350 1075 390 1075 q 297 1071 325 1075 q 246 1058 269 1067 l 246 1114 q 298 1126 268 1122 q 355 1131 328 1131 q 494 1034 494 1131 q 481 984 494 1003 q 440 944 467 965 q 402 910 415 926 q 390 870 390 895 l 323 870 z "},"ỡ":{"ha":719,"x_min":58,"x_max":681,"o":"m 261 992 q 206 980 231 992 q 156 940 181 967 l 156 1018 q 263 1065 197 1065 q 309 1057 288 1065 q 363 1034 331 1049 q 408 1014 390 1021 q 445 1008 426 1008 q 501 1020 476 1008 q 551 1060 526 1033 l 551 982 q 444 935 510 935 q 396 943 419 935 q 343 966 374 951 q 297 986 314 980 q 261 992 279 992 m 555 699 q 660 376 660 603 q 582 82 660 177 q 360 -13 503 -13 q 138 82 217 -13 q 58 376 58 176 q 137 670 58 576 q 361 765 215 765 q 431 761 379 765 q 452 760 441 760 q 475 759 463 759 q 568 786 534 759 q 601 872 601 814 q 598 919 601 897 q 586 969 594 942 l 665 969 q 677 920 674 944 q 681 867 681 897 q 648 756 681 799 q 555 699 614 713 m 360 75 q 463 103 421 75 q 527 197 505 131 q 550 374 550 263 q 527 554 550 488 q 463 649 505 621 q 360 676 422 676 q 256 649 298 676 q 192 555 215 621 q 169 378 169 490 q 192 198 169 265 q 256 103 215 131 q 360 75 298 75 z "},"ő":{"ha":719,"x_min":58,"x_max":660,"o":"m 360 -13 q 138 82 217 -13 q 58 376 58 176 q 137 670 58 576 q 360 765 215 765 q 582 670 503 765 q 660 376 660 576 q 582 82 660 177 q 360 -13 503 -13 m 360 75 q 463 103 421 75 q 527 197 505 131 q 550 374 550 263 q 527 554 550 488 q 463 649 505 621 q 360 676 422 676 q 256 649 298 676 q 192 555 215 621 q 169 378 169 490 q 192 198 169 265 q 256 103 215 131 q 360 75 298 75 m 210 870 l 290 1122 l 381 1122 l 292 870 l 210 870 m 427 870 l 508 1122 l 597 1122 l 509 870 l 427 870 z "},"ȏ":{"ha":719,"x_min":58,"x_max":660,"o":"m 360 -13 q 138 82 217 -13 q 58 376 58 176 q 137 670 58 576 q 360 765 215 765 q 582 670 503 765 q 660 376 660 576 q 582 82 660 177 q 360 -13 503 -13 m 360 75 q 463 103 421 75 q 527 197 505 131 q 550 374 550 263 q 527 554 550 488 q 463 649 505 621 q 360 676 422 676 q 256 649 298 676 q 192 555 215 621 q 169 378 169 490 q 192 198 169 265 q 256 103 215 131 q 360 75 298 75 m 167 890 q 220 1059 171 1002 q 358 1116 270 1116 q 497 1059 447 1116 q 552 890 548 1001 l 480 890 q 445 1012 475 973 q 358 1051 415 1051 q 272 1012 301 1051 q 240 890 243 973 l 167 890 z "},"ō":{"ha":719,"x_min":58,"x_max":660,"o":"m 360 -13 q 138 82 217 -13 q 58 376 58 176 q 137 670 58 576 q 360 765 215 765 q 582 670 503 765 q 660 376 660 576 q 582 82 660 177 q 360 -13 503 -13 m 360 75 q 463 103 421 75 q 527 197 505 131 q 550 374 550 263 q 527 554 550 488 q 463 649 505 621 q 360 676 422 676 q 256 649 298 676 q 192 555 215 621 q 169 378 169 490 q 192 198 169 265 q 256 103 215 131 q 360 75 298 75 m 156 951 l 156 1024 l 563 1024 l 563 951 l 156 951 z "},"ṓ":{"ha":719,"x_min":58,"x_max":660,"o":"m 360 -13 q 138 82 217 -13 q 58 376 58 176 q 137 670 58 576 q 360 765 215 765 q 582 670 503 765 q 660 376 660 576 q 582 82 660 177 q 360 -13 503 -13 m 360 75 q 463 103 421 75 q 527 197 505 131 q 550 374 550 263 q 527 554 550 488 q 463 649 505 621 q 360 676 422 676 q 256 649 298 676 q 192 555 215 621 q 169 378 169 490 q 192 198 169 265 q 256 103 215 131 q 360 75 298 75 m 156 951 l 156 1024 l 563 1024 l 563 951 l 156 951 m 311 1124 l 418 1319 l 533 1319 l 407 1124 l 311 1124 z "},"ṑ":{"ha":719,"x_min":58,"x_max":660,"o":"m 360 -13 q 138 82 217 -13 q 58 376 58 176 q 137 670 58 576 q 360 765 215 765 q 582 670 503 765 q 660 376 660 576 q 582 82 660 177 q 360 -13 503 -13 m 360 75 q 463 103 421 75 q 527 197 505 131 q 550 374 550 263 q 527 554 550 488 q 463 649 505 621 q 360 676 422 676 q 256 649 298 676 q 192 555 215 621 q 169 378 169 490 q 192 198 169 265 q 256 103 215 131 q 360 75 298 75 m 156 951 l 156 1024 l 563 1024 l 563 951 l 156 951 m 311 1124 l 185 1319 l 301 1319 l 408 1124 l 311 1124 z "},"ǫ":{"ha":719,"x_min":58,"x_max":660,"o":"m 469 3 q 355 -66 389 -25 q 320 -153 320 -108 q 343 -213 320 -192 q 405 -233 365 -233 q 489 -212 449 -233 l 499 -263 q 395 -288 451 -288 q 289 -255 328 -288 q 251 -162 251 -222 q 272 -80 251 -117 q 335 -12 292 -42 q 131 91 203 -4 q 58 376 58 185 q 137 670 58 576 q 360 765 215 765 q 582 670 503 765 q 660 376 660 576 q 611 126 660 217 q 469 3 563 35 m 169 378 q 192 198 169 265 q 256 103 215 131 q 360 75 298 75 q 463 103 421 75 q 527 197 505 131 q 550 374 550 263 q 527 554 550 488 q 463 649 505 621 q 360 676 422 676 q 256 649 298 676 q 192 555 215 621 q 169 378 169 490 z "},"ø":{"ha":719,"x_min":58,"x_max":660,"o":"m 590 659 q 660 376 660 562 q 582 82 660 177 q 360 -13 503 -13 q 175 44 247 -13 l 131 -22 l 75 17 l 128 94 q 58 376 58 193 q 137 670 58 576 q 360 765 215 765 q 542 709 472 765 l 587 775 l 642 736 l 590 659 m 360 678 q 255 650 297 678 q 190 556 213 622 q 167 378 167 490 q 194 185 167 258 l 490 626 q 360 678 446 678 m 360 74 q 464 102 422 74 q 529 197 506 131 q 552 374 552 263 q 524 569 552 498 l 228 126 q 360 74 274 74 z "},"ǿ":{"ha":719,"x_min":58,"x_max":660,"o":"m 590 659 q 660 376 660 562 q 582 82 660 177 q 360 -13 503 -13 q 175 44 247 -13 l 131 -22 l 75 17 l 128 94 q 58 376 58 193 q 137 670 58 576 q 360 765 215 765 q 542 709 472 765 l 587 775 l 642 736 l 590 659 m 360 678 q 255 650 297 678 q 190 556 213 622 q 167 378 167 490 q 194 185 167 258 l 490 626 q 360 678 446 678 m 360 74 q 464 102 422 74 q 529 197 506 131 q 552 374 552 263 q 524 569 552 498 l 228 126 q 360 74 274 74 m 310 870 l 438 1122 l 553 1122 l 406 870 l 310 870 z "},"õ":{"ha":719,"x_min":58,"x_max":660,"o":"m 360 -13 q 138 82 217 -13 q 58 376 58 176 q 137 670 58 576 q 360 765 215 765 q 582 670 503 765 q 660 376 660 576 q 582 82 660 177 q 360 -13 503 -13 m 360 75 q 463 103 421 75 q 527 197 505 131 q 550 374 550 263 q 527 554 550 488 q 463 649 505 621 q 360 676 422 676 q 256 649 298 676 q 192 555 215 621 q 169 378 169 490 q 192 198 169 265 q 256 103 215 131 q 360 75 298 75 m 453 935 q 405 943 427 935 q 349 966 382 951 q 301 986 319 980 q 265 992 283 992 q 207 980 233 992 q 156 940 181 967 l 156 1018 q 266 1065 197 1065 q 313 1057 291 1065 q 369 1034 335 1049 q 416 1014 397 1021 q 454 1008 435 1008 q 512 1020 486 1008 q 563 1060 538 1033 l 563 982 q 453 935 521 935 z "},"ṍ":{"ha":719,"x_min":58,"x_max":660,"o":"m 360 -13 q 138 82 217 -13 q 58 376 58 176 q 137 670 58 576 q 360 765 215 765 q 582 670 503 765 q 660 376 660 576 q 582 82 660 177 q 360 -13 503 -13 m 360 75 q 463 103 421 75 q 527 197 505 131 q 550 374 550 263 q 527 554 550 488 q 463 649 505 621 q 360 676 422 676 q 256 649 298 676 q 192 555 215 621 q 169 378 169 490 q 192 198 169 265 q 256 103 215 131 q 360 75 298 75 m 453 935 q 405 943 427 935 q 349 966 382 951 q 301 986 319 980 q 265 992 283 992 q 207 980 233 992 q 156 940 181 967 l 156 1018 q 266 1065 197 1065 q 313 1057 291 1065 q 369 1034 335 1049 q 416 1014 397 1021 q 454 1008 435 1008 q 512 1020 486 1008 q 563 1060 538 1033 l 563 982 q 453 935 521 935 m 334 1182 l 441 1378 l 556 1378 l 430 1182 l 334 1182 z "},"ṏ":{"ha":719,"x_min":58,"x_max":660,"o":"m 360 -13 q 138 82 217 -13 q 58 376 58 176 q 137 670 58 576 q 360 765 215 765 q 582 670 503 765 q 660 376 660 576 q 582 82 660 177 q 360 -13 503 -13 m 360 75 q 463 103 421 75 q 527 197 505 131 q 550 374 550 263 q 527 554 550 488 q 463 649 505 621 q 360 676 422 676 q 256 649 298 676 q 192 555 215 621 q 169 378 169 490 q 192 198 169 265 q 256 103 215 131 q 360 75 298 75 m 453 935 q 405 943 427 935 q 349 966 382 951 q 301 986 319 980 q 265 992 283 992 q 207 980 233 992 q 156 940 181 967 l 156 1018 q 266 1065 197 1065 q 313 1057 291 1065 q 369 1034 335 1049 q 416 1014 397 1021 q 454 1008 435 1008 q 512 1020 486 1008 q 563 1060 538 1033 l 563 982 q 453 935 521 935 m 223 1129 q 172 1147 190 1129 q 153 1197 153 1165 q 172 1247 153 1228 q 223 1265 191 1265 q 274 1247 255 1265 q 293 1197 293 1228 q 274 1147 293 1165 q 223 1129 256 1129 m 496 1129 q 444 1147 463 1129 q 426 1197 426 1165 q 445 1247 426 1228 q 496 1265 464 1265 q 547 1247 528 1265 q 566 1197 566 1228 q 547 1147 566 1165 q 496 1129 528 1129 z "},"ȭ":{"ha":719,"x_min":58,"x_max":660,"o":"m 360 -13 q 138 82 217 -13 q 58 376 58 176 q 137 670 58 576 q 360 765 215 765 q 582 670 503 765 q 660 376 660 576 q 582 82 660 177 q 360 -13 503 -13 m 360 75 q 463 103 421 75 q 527 197 505 131 q 550 374 550 263 q 527 554 550 488 q 463 649 505 621 q 360 676 422 676 q 256 649 298 676 q 192 555 215 621 q 169 378 169 490 q 192 198 169 265 q 256 103 215 131 q 360 75 298 75 m 453 935 q 405 943 427 935 q 349 966 382 951 q 301 986 319 980 q 265 992 283 992 q 207 980 233 992 q 156 940 181 967 l 156 1018 q 266 1065 197 1065 q 313 1057 291 1065 q 369 1034 335 1049 q 416 1014 397 1021 q 454 1008 435 1008 q 512 1020 486 1008 q 563 1060 538 1033 l 563 982 q 453 935 521 935 m 156 1160 l 156 1234 l 563 1234 l 563 1160 l 156 1160 z "},"œ":{"ha":1149,"x_min":58,"x_max":1099,"o":"m 1099 340 l 656 340 q 684 184 658 242 q 760 101 710 126 q 891 76 810 76 q 1062 104 965 76 l 1062 15 q 879 -13 968 -13 q 703 23 772 -13 q 597 137 633 59 q 354 -13 529 -13 q 137 82 215 -13 q 58 376 58 176 q 136 670 58 576 q 354 765 213 765 q 601 608 534 765 q 691 727 633 688 q 831 766 750 766 q 1099 375 1099 766 l 1099 340 m 827 687 q 703 625 747 687 q 656 415 659 563 l 994 415 q 972 577 992 517 q 915 662 951 637 q 827 687 879 687 m 358 75 q 498 143 449 75 q 546 374 546 211 q 523 554 546 488 q 459 649 501 621 q 358 676 418 676 q 256 649 297 676 q 192 555 215 621 q 169 378 169 490 q 192 198 169 265 q 256 103 215 131 q 358 75 297 75 z "},"p":{"ha":728,"x_min":97,"x_max":669,"o":"m 97 753 l 189 753 l 197 674 l 203 674 q 283 740 234 715 q 392 765 332 765 q 592 676 516 765 q 669 391 669 588 q 577 87 669 187 q 310 -13 486 -13 q 205 -6 263 -13 l 205 -306 l 97 -306 l 97 753 m 312 76 q 497 148 435 76 q 558 381 558 219 q 508 608 558 544 q 369 672 458 672 q 276 648 320 672 q 205 581 231 625 l 205 86 q 256 78 226 81 q 312 76 285 76 z "},"þ":{"ha":728,"x_min":97,"x_max":669,"o":"m 97 1122 l 205 1122 l 205 679 l 211 679 q 292 742 243 719 q 403 765 340 765 q 539 728 479 765 q 633 608 598 691 q 669 391 669 524 q 577 87 669 187 q 310 -13 486 -13 q 205 -6 263 -13 l 205 -306 l 97 -306 l 97 1122 m 312 76 q 497 148 435 76 q 558 381 558 219 q 509 607 558 543 q 370 672 459 672 q 276 649 321 672 q 205 583 231 626 l 205 86 q 256 78 226 81 q 312 76 285 76 z "},"q":{"ha":728,"x_min":58,"x_max":631,"o":"m 523 72 l 517 72 q 436 10 485 33 q 327 -13 388 -13 q 190 24 250 -13 q 94 144 130 61 q 58 361 58 228 q 420 765 58 765 q 531 756 474 765 q 631 733 588 748 l 631 -306 l 523 -306 l 523 72 m 359 81 q 452 103 407 81 q 523 167 497 125 l 523 663 q 413 676 469 676 q 231 604 292 676 q 169 371 169 532 q 219 144 169 208 q 359 81 269 81 z "},"r":{"ha":465,"x_min":97,"x_max":457,"o":"m 97 753 l 188 753 l 196 653 l 203 653 q 292 733 238 706 q 407 760 345 760 q 457 757 434 760 l 457 656 q 401 659 433 659 q 290 630 344 659 q 205 549 235 601 l 205 0 l 97 0 l 97 753 z "},"ŕ":{"ha":465,"x_min":97,"x_max":461,"o":"m 97 753 l 188 753 l 196 653 l 203 653 q 292 733 238 706 q 407 760 345 760 q 457 757 434 760 l 457 656 q 401 659 433 659 q 290 630 344 659 q 205 549 235 601 l 205 0 l 97 0 l 97 753 m 217 870 l 346 1122 l 461 1122 l 314 870 l 217 870 z "},"ř":{"ha":465,"x_min":76,"x_max":457,"o":"m 97 753 l 188 753 l 196 653 l 203 653 q 292 733 238 706 q 407 760 345 760 q 457 757 434 760 l 457 656 q 401 659 433 659 q 290 630 344 659 q 205 549 235 601 l 205 0 l 97 0 l 97 753 m 371 1122 l 456 1122 l 315 870 l 217 870 l 76 1122 l 160 1122 l 266 926 l 371 1122 z "},"ŗ":{"ha":465,"x_min":79,"x_max":457,"o":"m 97 753 l 188 753 l 196 653 l 203 653 q 292 733 238 706 q 407 760 345 760 q 457 757 434 760 l 457 656 q 401 659 433 659 q 290 630 344 659 q 205 549 235 601 l 205 0 l 97 0 l 97 753 m 149 -114 q 203 -133 185 -114 q 222 -189 222 -152 q 212 -255 222 -219 q 183 -323 201 -292 l 115 -323 q 144 -226 140 -267 q 96 -209 113 -224 q 79 -169 79 -194 q 97 -129 79 -144 q 149 -114 115 -114 z "},"ȑ":{"ha":465,"x_min":27,"x_max":457,"o":"m 97 753 l 188 753 l 196 653 l 203 653 q 292 733 238 706 q 407 760 345 760 q 457 757 434 760 l 457 656 q 401 659 433 659 q 290 630 344 659 q 205 549 235 601 l 205 0 l 97 0 l 97 753 m 115 870 l 27 1122 l 119 1122 l 198 870 l 115 870 m 333 870 l 245 1122 l 337 1122 l 417 870 l 333 870 z "},"ṛ":{"ha":465,"x_min":81,"x_max":457,"o":"m 97 753 l 188 753 l 196 653 l 203 653 q 292 733 238 706 q 407 760 345 760 q 457 757 434 760 l 457 656 q 401 659 433 659 q 290 630 344 659 q 205 549 235 601 l 205 0 l 97 0 l 97 753 m 151 -248 q 99 -230 118 -248 q 81 -181 81 -212 q 99 -132 81 -150 q 151 -114 118 -114 q 201 -132 183 -114 q 220 -181 220 -151 q 201 -230 220 -212 q 151 -248 183 -248 z "},"ȓ":{"ha":465,"x_min":73,"x_max":458,"o":"m 97 753 l 188 753 l 196 653 l 203 653 q 292 733 238 706 q 407 760 345 760 q 457 757 434 760 l 457 656 q 401 659 433 659 q 290 630 344 659 q 205 549 235 601 l 205 0 l 97 0 l 97 753 m 73 890 q 127 1059 77 1002 q 265 1116 176 1116 q 403 1059 353 1116 q 458 890 454 1001 l 386 890 q 351 1012 381 973 q 265 1051 321 1051 q 178 1012 208 1051 q 146 890 149 973 l 73 890 z "},"ṟ":{"ha":465,"x_min":-36,"x_max":457,"o":"m 97 753 l 188 753 l 196 653 l 203 653 q 292 733 238 706 q 407 760 345 760 q 457 757 434 760 l 457 656 q 401 659 433 659 q 290 630 344 659 q 205 549 235 601 l 205 0 l 97 0 l 97 753 m -36 -217 l -36 -144 l 338 -144 l 338 -217 l -36 -217 z "},"s":{"ha":578,"x_min":52,"x_max":535,"o":"m 259 -13 q 67 16 155 -13 l 67 104 q 258 74 166 74 q 388 107 344 74 q 432 201 432 140 q 406 282 432 253 q 323 324 380 310 l 235 344 q 95 418 138 368 q 52 549 52 467 q 84 661 52 613 q 180 737 116 710 q 335 765 243 765 q 498 746 421 765 l 498 658 q 338 678 422 678 q 200 643 244 678 q 156 552 156 608 q 181 476 156 504 q 262 433 206 447 l 350 414 q 492 340 449 390 q 535 206 535 290 q 503 89 535 138 q 409 13 471 40 q 259 -13 347 -13 z "},"ś":{"ha":578,"x_min":52,"x_max":535,"o":"m 259 -13 q 67 16 155 -13 l 67 104 q 258 74 166 74 q 388 107 344 74 q 432 201 432 140 q 406 282 432 253 q 323 324 380 310 l 235 344 q 95 418 138 368 q 52 549 52 467 q 84 661 52 613 q 180 737 116 710 q 335 765 243 765 q 498 746 421 765 l 498 658 q 338 678 422 678 q 200 643 244 678 q 156 552 156 608 q 181 476 156 504 q 262 433 206 447 l 350 414 q 492 340 449 390 q 535 206 535 290 q 503 89 535 138 q 409 13 471 40 q 259 -13 347 -13 m 244 870 l 373 1122 l 488 1122 l 341 870 l 244 870 z "},"ṥ":{"ha":578,"x_min":52,"x_max":535,"o":"m 259 -13 q 67 16 155 -13 l 67 104 q 258 74 166 74 q 388 107 344 74 q 432 201 432 140 q 406 282 432 253 q 323 324 380 310 l 235 344 q 95 418 138 368 q 52 549 52 467 q 84 661 52 613 q 180 737 116 710 q 335 765 243 765 q 498 746 421 765 l 498 658 q 338 678 422 678 q 200 643 244 678 q 156 552 156 608 q 181 476 156 504 q 262 433 206 447 l 350 414 q 492 340 449 390 q 535 206 535 290 q 503 89 535 138 q 409 13 471 40 q 259 -13 347 -13 m 234 1094 q 185 1110 203 1094 q 167 1151 167 1125 q 185 1194 167 1178 q 234 1210 203 1210 q 283 1194 265 1210 q 301 1151 301 1178 q 283 1110 301 1125 q 234 1094 265 1094 m 244 870 l 373 1122 l 488 1122 l 341 870 l 244 870 z "},"š":{"ha":578,"x_min":52,"x_max":535,"o":"m 259 -13 q 67 16 155 -13 l 67 104 q 258 74 166 74 q 388 107 344 74 q 432 201 432 140 q 406 282 432 253 q 323 324 380 310 l 235 344 q 95 418 138 368 q 52 549 52 467 q 84 661 52 613 q 180 737 116 710 q 335 765 243 765 q 498 746 421 765 l 498 658 q 338 678 422 678 q 200 643 244 678 q 156 552 156 608 q 181 476 156 504 q 262 433 206 447 l 350 414 q 492 340 449 390 q 535 206 535 290 q 503 89 535 138 q 409 13 471 40 q 259 -13 347 -13 m 398 1122 l 483 1122 l 342 870 l 244 870 l 103 1122 l 188 1122 l 293 926 l 398 1122 z "},"ṧ":{"ha":578,"x_min":52,"x_max":535,"o":"m 259 -13 q 67 16 155 -13 l 67 104 q 258 74 166 74 q 388 107 344 74 q 432 201 432 140 q 406 282 432 253 q 323 324 380 310 l 235 344 q 95 418 138 368 q 52 549 52 467 q 84 661 52 613 q 180 737 116 710 q 335 765 243 765 q 498 746 421 765 l 498 658 q 338 678 422 678 q 200 643 244 678 q 156 552 156 608 q 181 476 156 504 q 262 433 206 447 l 350 414 q 492 340 449 390 q 535 206 535 290 q 503 89 535 138 q 409 13 471 40 q 259 -13 347 -13 m 293 1128 q 244 1143 262 1128 q 226 1185 226 1159 q 244 1228 226 1213 q 293 1244 262 1244 q 342 1228 324 1244 q 360 1185 360 1213 q 342 1143 360 1159 q 293 1128 324 1128 m 398 1122 l 483 1122 l 342 870 l 244 870 l 103 1122 l 188 1122 l 293 926 l 398 1122 z "},"ş":{"ha":578,"x_min":52,"x_max":535,"o":"m 535 206 q 482 61 535 117 q 328 -8 428 6 l 328 -74 q 403 -108 377 -80 q 429 -180 429 -135 q 393 -259 429 -231 q 291 -288 358 -288 q 232 -282 261 -288 q 180 -265 202 -276 l 180 -210 q 290 -235 231 -235 q 363 -177 363 -235 q 288 -117 363 -117 l 265 -117 l 265 -13 l 259 -13 q 67 16 155 -13 l 67 104 q 258 74 166 74 q 388 107 344 74 q 432 201 432 140 q 406 282 432 253 q 323 324 380 310 l 235 344 q 95 418 138 368 q 52 549 52 467 q 84 661 52 613 q 180 737 116 710 q 335 765 243 765 q 498 746 421 765 l 498 658 q 338 678 422 678 q 200 643 244 678 q 156 552 156 608 q 181 476 156 504 q 262 433 206 447 l 350 414 q 492 340 449 390 q 535 206 535 290 z "},"ŝ":{"ha":578,"x_min":52,"x_max":535,"o":"m 259 -13 q 67 16 155 -13 l 67 104 q 258 74 166 74 q 388 107 344 74 q 432 201 432 140 q 406 282 432 253 q 323 324 380 310 l 235 344 q 95 418 138 368 q 52 549 52 467 q 84 661 52 613 q 180 737 116 710 q 335 765 243 765 q 498 746 421 765 l 498 658 q 338 678 422 678 q 200 643 244 678 q 156 552 156 608 q 181 476 156 504 q 262 433 206 447 l 350 414 q 492 340 449 390 q 535 206 535 290 q 503 89 535 138 q 409 13 471 40 q 259 -13 347 -13 m 482 870 l 397 870 l 293 1066 l 188 870 l 103 870 l 244 1122 l 342 1122 l 482 870 z "},"ș":{"ha":578,"x_min":52,"x_max":535,"o":"m 259 -13 q 67 16 155 -13 l 67 104 q 258 74 166 74 q 388 107 344 74 q 432 201 432 140 q 406 282 432 253 q 323 324 380 310 l 235 344 q 95 418 138 368 q 52 549 52 467 q 84 661 52 613 q 180 737 116 710 q 335 765 243 765 q 498 746 421 765 l 498 658 q 338 678 422 678 q 200 643 244 678 q 156 552 156 608 q 181 476 156 504 q 262 433 206 447 l 350 414 q 492 340 449 390 q 535 206 535 290 q 503 89 535 138 q 409 13 471 40 q 259 -13 347 -13 m 291 -114 q 346 -133 327 -114 q 365 -189 365 -152 q 354 -255 365 -219 q 326 -323 344 -292 l 258 -323 q 286 -226 282 -267 q 238 -209 255 -224 q 222 -169 222 -194 q 240 -129 222 -144 q 291 -114 258 -114 z "},"ṡ":{"ha":578,"x_min":52,"x_max":535,"o":"m 259 -13 q 67 16 155 -13 l 67 104 q 258 74 166 74 q 388 107 344 74 q 432 201 432 140 q 406 282 432 253 q 323 324 380 310 l 235 344 q 95 418 138 368 q 52 549 52 467 q 84 661 52 613 q 180 737 116 710 q 335 765 243 765 q 498 746 421 765 l 498 658 q 338 678 422 678 q 200 643 244 678 q 156 552 156 608 q 181 476 156 504 q 262 433 206 447 l 350 414 q 492 340 449 390 q 535 206 535 290 q 503 89 535 138 q 409 13 471 40 q 259 -13 347 -13 m 293 918 q 236 936 256 918 q 217 987 217 954 q 236 1038 217 1019 q 293 1056 256 1056 q 349 1038 329 1056 q 369 987 369 1019 q 349 936 369 954 q 293 918 329 918 z "},"ṣ":{"ha":578,"x_min":52,"x_max":535,"o":"m 259 -13 q 67 16 155 -13 l 67 104 q 258 74 166 74 q 388 107 344 74 q 432 201 432 140 q 406 282 432 253 q 323 324 380 310 l 235 344 q 95 418 138 368 q 52 549 52 467 q 84 661 52 613 q 180 737 116 710 q 335 765 243 765 q 498 746 421 765 l 498 658 q 338 678 422 678 q 200 643 244 678 q 156 552 156 608 q 181 476 156 504 q 262 433 206 447 l 350 414 q 492 340 449 390 q 535 206 535 290 q 503 89 535 138 q 409 13 471 40 q 259 -13 347 -13 m 293 -248 q 242 -230 260 -248 q 223 -181 223 -212 q 242 -132 223 -150 q 293 -114 260 -114 q 344 -132 325 -114 q 363 -181 363 -151 q 344 -230 363 -212 q 293 -248 325 -248 z "}}}
